<?xml version="1.0" encoding="utf-8" standalone="no"?>
<!DOCTYPE svg PUBLIC "-//W3C//DTD SVG 1.1//EN"
  "http://www.w3.org/Graphics/SVG/1.1/DTD/svg11.dtd">
<!-- Created with matplotlib (http://matplotlib.org/) -->
<svg height="407pt" version="1.1" viewBox="0 0 641 407" width="641pt" xmlns="http://www.w3.org/2000/svg" xmlns:xlink="http://www.w3.org/1999/xlink">
 <defs>
  <style type="text/css">
*{stroke-linecap:butt;stroke-linejoin:round;}
  </style>
 </defs>
 <g id="figure_1">
  <g id="patch_1">
   <path d="M 0 407 
L 641 407 
L 641 0 
L 0 0 
z
" style="fill:#ffffff;"/>
  </g>
  <g id="axes_1">
   <g id="patch_2">
    <path d="M 44.203125 365.84375 
L 626.7 365.84375 
L 626.7 25.918125 
L 44.203125 25.918125 
z
" style="fill:#ffffff;"/>
   </g>
   <g id="PathCollection_1">
    <defs>
     <path d="M 0 3 
C 0.795609 3 1.55874 2.683901 2.12132 2.12132 
C 2.683901 1.55874 3 0.795609 3 0 
C 3 -0.795609 2.683901 -1.55874 2.12132 -2.12132 
C 1.55874 -2.683901 0.795609 -3 0 -3 
C -0.795609 -3 -1.55874 -2.683901 -2.12132 -2.12132 
C -2.683901 -1.55874 -3 -0.795609 -3 0 
C -3 0.795609 -2.683901 1.55874 -2.12132 2.12132 
C -1.55874 2.683901 -0.795609 3 0 3 
z
" id="m5a7c20d175" style="stroke:#1f77b4;"/>
    </defs>
    <g clip-path="url(#pc447c42b82)">
     <use style="fill:#1f77b4;stroke:#1f77b4;" x="199.060011" xlink:href="#m5a7c20d175" y="320.047182"/>
     <use style="fill:#1f77b4;stroke:#1f77b4;" x="383.751777" xlink:href="#m5a7c20d175" y="85.834292"/>
     <use style="fill:#1f77b4;stroke:#1f77b4;" x="388.566165" xlink:href="#m5a7c20d175" y="115.453115"/>
     <use style="fill:#1f77b4;stroke:#1f77b4;" x="361.963357" xlink:href="#m5a7c20d175" y="327.929727"/>
     <use style="fill:#1f77b4;stroke:#1f77b4;" x="462.109545" xlink:href="#m5a7c20d175" y="93.75995"/>
     <use style="fill:#1f77b4;stroke:#1f77b4;" x="563.426798" xlink:href="#m5a7c20d175" y="51.257442"/>
     <use style="fill:#1f77b4;stroke:#1f77b4;" x="568.327052" xlink:href="#m5a7c20d175" y="61.36032"/>
     <use style="fill:#1f77b4;stroke:#1f77b4;" x="548.635941" xlink:href="#m5a7c20d175" y="91.496503"/>
     <use style="fill:#1f77b4;stroke:#1f77b4;" x="235.44256" xlink:href="#m5a7c20d175" y="174.654833"/>
     <use style="fill:#1f77b4;stroke:#1f77b4;" x="561.197997" xlink:href="#m5a7c20d175" y="64.148312"/>
     <use style="fill:#1f77b4;stroke:#1f77b4;" x="239.053655" xlink:href="#m5a7c20d175" y="227.353631"/>
     <use style="fill:#1f77b4;stroke:#1f77b4;" x="338.737923" xlink:href="#m5a7c20d175" y="163.933997"/>
     <use style="fill:#1f77b4;stroke:#1f77b4;" x="406.903512" xlink:href="#m5a7c20d175" y="97.122785"/>
     <use style="fill:#1f77b4;stroke:#1f77b4;" x="460.419818" xlink:href="#m5a7c20d175" y="270.466911"/>
     <use style="fill:#1f77b4;stroke:#1f77b4;" x="427.017921" xlink:href="#m5a7c20d175" y="114.813601"/>
     <use style="fill:#1f77b4;stroke:#1f77b4;" x="443.774253" xlink:href="#m5a7c20d175" y="110.39449"/>
     <use style="fill:#1f77b4;stroke:#1f77b4;" x="221.767746" xlink:href="#m5a7c20d175" y="259.207159"/>
     <use style="fill:#1f77b4;stroke:#1f77b4;" x="115.445161" xlink:href="#m5a7c20d175" y="278.715918"/>
     <use style="fill:#1f77b4;stroke:#1f77b4;" x="256.753177" xlink:href="#m5a7c20d175" y="205.832919"/>
     <use style="fill:#1f77b4;stroke:#1f77b4;" x="274.668362" xlink:href="#m5a7c20d175" y="272.608204"/>
     <use style="fill:#1f77b4;stroke:#1f77b4;" x="568.870922" xlink:href="#m5a7c20d175" y="55.43943"/>
     <use style="fill:#1f77b4;stroke:#1f77b4;" x="166.110271" xlink:href="#m5a7c20d175" y="313.486778"/>
     <use style="fill:#1f77b4;stroke:#1f77b4;" x="256.172118" xlink:href="#m5a7c20d175" y="271.020198"/>
     <use style="fill:#1f77b4;stroke:#1f77b4;" x="465.199708" xlink:href="#m5a7c20d175" y="70.529078"/>
     <use style="fill:#1f77b4;stroke:#1f77b4;" x="365.355586" xlink:href="#m5a7c20d175" y="110.710654"/>
     <use style="fill:#1f77b4;stroke:#1f77b4;" x="400.682172" xlink:href="#m5a7c20d175" y="111.228013"/>
     <use style="fill:#1f77b4;stroke:#1f77b4;" x="200.266041" xlink:href="#m5a7c20d175" y="166.822587"/>
     <use style="fill:#1f77b4;stroke:#1f77b4;" x="70.682483" xlink:href="#m5a7c20d175" y="301.120453"/>
     <use style="fill:#1f77b4;stroke:#1f77b4;" x="333.538151" xlink:href="#m5a7c20d175" y="237.45651"/>
     <use style="fill:#1f77b4;stroke:#1f77b4;" x="433.348576" xlink:href="#m5a7c20d175" y="68.883587"/>
     <use style="fill:#1f77b4;stroke:#1f77b4;" x="246.139687" xlink:href="#m5a7c20d175" y="287.712223"/>
     <use style="fill:#1f77b4;stroke:#1f77b4;" x="475.857436" xlink:href="#m5a7c20d175" y="90.684536"/>
     <use style="fill:#1f77b4;stroke:#1f77b4;" x="425.682258" xlink:href="#m5a7c20d175" y="72.541031"/>
     <use style="fill:#1f77b4;stroke:#1f77b4;" x="521.431804" xlink:href="#m5a7c20d175" y="85.381602"/>
     <use style="fill:#1f77b4;stroke:#1f77b4;" x="565.899012" xlink:href="#m5a7c20d175" y="72.117083"/>
     <use style="fill:#1f77b4;stroke:#1f77b4;" x="276.670059" xlink:href="#m5a7c20d175" y="241.272035"/>
     <use style="fill:#1f77b4;stroke:#1f77b4;" x="385.261517" xlink:href="#m5a7c20d175" y="115.927361"/>
     <use style="fill:#1f77b4;stroke:#1f77b4;" x="398.718596" xlink:href="#m5a7c20d175" y="96.102438"/>
     <use style="fill:#1f77b4;stroke:#1f77b4;" x="377.434236" xlink:href="#m5a7c20d175" y="122.372796"/>
     <use style="fill:#1f77b4;stroke:#1f77b4;" x="380.09457" xlink:href="#m5a7c20d175" y="118.492601"/>
     <use style="fill:#1f77b4;stroke:#1f77b4;" x="456.981883" xlink:href="#m5a7c20d175" y="264.352011"/>
     <use style="fill:#1f77b4;stroke:#1f77b4;" x="156.294608" xlink:href="#m5a7c20d175" y="217.926194"/>
     <use style="fill:#1f77b4;stroke:#1f77b4;" x="163.884081" xlink:href="#m5a7c20d175" y="254.522183"/>
     <use style="fill:#1f77b4;stroke:#1f77b4;" x="559.714383" xlink:href="#m5a7c20d175" y="65.068062"/>
     <use style="fill:#1f77b4;stroke:#1f77b4;" x="550.922142" xlink:href="#m5a7c20d175" y="55.410688"/>
     <use style="fill:#1f77b4;stroke:#1f77b4;" x="465.469753" xlink:href="#m5a7c20d175" y="227.303333"/>
     <use style="fill:#1f77b4;stroke:#1f77b4;" x="172.661428" xlink:href="#m5a7c20d175" y="207.808945"/>
     <use style="fill:#1f77b4;stroke:#1f77b4;" x="556.472515" xlink:href="#m5a7c20d175" y="64.399806"/>
     <use style="fill:#1f77b4;stroke:#1f77b4;" x="230.656423" xlink:href="#m5a7c20d175" y="203.684441"/>
     <use style="fill:#1f77b4;stroke:#1f77b4;" x="540.582295" xlink:href="#m5a7c20d175" y="63.846519"/>
     <use style="fill:#1f77b4;stroke:#1f77b4;" x="369.929045" xlink:href="#m5a7c20d175" y="130.126001"/>
     <use style="fill:#1f77b4;stroke:#1f77b4;" x="195.655609" xlink:href="#m5a7c20d175" y="232.534411"/>
     <use style="fill:#1f77b4;stroke:#1f77b4;" x="145.878939" xlink:href="#m5a7c20d175" y="301.652183"/>
     <use style="fill:#1f77b4;stroke:#1f77b4;" x="220.466491" xlink:href="#m5a7c20d175" y="197.260562"/>
     <use style="fill:#1f77b4;stroke:#1f77b4;" x="331.140299" xlink:href="#m5a7c20d175" y="130.564319"/>
     <use style="fill:#1f77b4;stroke:#1f77b4;" x="578.032411" xlink:href="#m5a7c20d175" y="44.265905"/>
     <use style="fill:#1f77b4;stroke:#1f77b4;" x="497.171724" xlink:href="#m5a7c20d175" y="108.001703"/>
     <use style="fill:#1f77b4;stroke:#1f77b4;" x="568.480556" xlink:href="#m5a7c20d175" y="47.506586"/>
     <use style="fill:#1f77b4;stroke:#1f77b4;" x="293.374438" xlink:href="#m5a7c20d175" y="170.084825"/>
     <use style="fill:#1f77b4;stroke:#1f77b4;" x="330.918853" xlink:href="#m5a7c20d175" y="127.316452"/>
     <use style="fill:#1f77b4;stroke:#1f77b4;" x="452.262972" xlink:href="#m5a7c20d175" y="125.060191"/>
     <use style="fill:#1f77b4;stroke:#1f77b4;" x="354.766342" xlink:href="#m5a7c20d175" y="207.111947"/>
     <use style="fill:#1f77b4;stroke:#1f77b4;" x="580.450527" xlink:href="#m5a7c20d175" y="68.143476"/>
     <use style="fill:#1f77b4;stroke:#1f77b4;" x="532.815146" xlink:href="#m5a7c20d175" y="54.77836"/>
     <use style="fill:#1f77b4;stroke:#1f77b4;" x="544.340159" xlink:href="#m5a7c20d175" y="56.208283"/>
     <use style="fill:#1f77b4;stroke:#1f77b4;" x="405.167294" xlink:href="#m5a7c20d175" y="113.541759"/>
     <use style="fill:#1f77b4;stroke:#1f77b4;" x="554.825262" xlink:href="#m5a7c20d175" y="41.427614"/>
     <use style="fill:#1f77b4;stroke:#1f77b4;" x="355.866836" xlink:href="#m5a7c20d175" y="113.771697"/>
     <use style="fill:#1f77b4;stroke:#1f77b4;" x="240.599554" xlink:href="#m5a7c20d175" y="246.165392"/>
     <use style="fill:#1f77b4;stroke:#1f77b4;" x="249.287594" xlink:href="#m5a7c20d175" y="151.40959"/>
     <use style="fill:#1f77b4;stroke:#1f77b4;" x="523.710807" xlink:href="#m5a7c20d175" y="70.026089"/>
     <use style="fill:#1f77b4;stroke:#1f77b4;" x="595.886495" xlink:href="#m5a7c20d175" y="77.46313"/>
     <use style="fill:#1f77b4;stroke:#1f77b4;" x="441.649543" xlink:href="#m5a7c20d175" y="117.666263"/>
     <use style="fill:#1f77b4;stroke:#1f77b4;" x="247.753355" xlink:href="#m5a7c20d175" y="328.928518"/>
     <use style="fill:#1f77b4;stroke:#1f77b4;" x="111.677757" xlink:href="#m5a7c20d175" y="306.753921"/>
     <use style="fill:#1f77b4;stroke:#1f77b4;" x="456.166347" xlink:href="#m5a7c20d175" y="103.589777"/>
     <use style="fill:#1f77b4;stroke:#1f77b4;" x="206.168329" xlink:href="#m5a7c20d175" y="207.844873"/>
     <use style="fill:#1f77b4;stroke:#1f77b4;" x="173.553722" xlink:href="#m5a7c20d175" y="287.891861"/>
     <use style="fill:#1f77b4;stroke:#1f77b4;" x="459.454163" xlink:href="#m5a7c20d175" y="101.513154"/>
     <use style="fill:#1f77b4;stroke:#1f77b4;" x="205.953993" xlink:href="#m5a7c20d175" y="243.600152"/>
     <use style="fill:#1f77b4;stroke:#1f77b4;" x="261.949125" xlink:href="#m5a7c20d175" y="173.921907"/>
     <use style="fill:#1f77b4;stroke:#1f77b4;" x="446.383778" xlink:href="#m5a7c20d175" y="111.860341"/>
     <use style="fill:#1f77b4;stroke:#1f77b4;" x="455.486573" xlink:href="#m5a7c20d175" y="87.472596"/>
     <use style="fill:#1f77b4;stroke:#1f77b4;" x="317.194574" xlink:href="#m5a7c20d175" y="154.95925"/>
     <use style="fill:#1f77b4;stroke:#1f77b4;" x="429.116882" xlink:href="#m5a7c20d175" y="99.343119"/>
     <use style="fill:#1f77b4;stroke:#1f77b4;" x="338.685446" xlink:href="#m5a7c20d175" y="123.623081"/>
     <use style="fill:#1f77b4;stroke:#1f77b4;" x="181.866198" xlink:href="#m5a7c20d175" y="332.593147"/>
     <use style="fill:#1f77b4;stroke:#1f77b4;" x="195.801428" xlink:href="#m5a7c20d175" y="188.975627"/>
     <use style="fill:#1f77b4;stroke:#1f77b4;" x="362.257582" xlink:href="#m5a7c20d175" y="254.81679"/>
     <use style="fill:#1f77b4;stroke:#1f77b4;" x="210.627564" xlink:href="#m5a7c20d175" y="176.645229"/>
     <use style="fill:#1f77b4;stroke:#1f77b4;" x="570.209298" xlink:href="#m5a7c20d175" y="61.841752"/>
     <use style="fill:#1f77b4;stroke:#1f77b4;" x="531.451449" xlink:href="#m5a7c20d175" y="58.66574"/>
     <use style="fill:#1f77b4;stroke:#1f77b4;" x="305.063765" xlink:href="#m5a7c20d175" y="111.156158"/>
     <use style="fill:#1f77b4;stroke:#1f77b4;" x="152.77776" xlink:href="#m5a7c20d175" y="226.35484"/>
     <use style="fill:#1f77b4;stroke:#1f77b4;" x="273.251217" xlink:href="#m5a7c20d175" y="298.267791"/>
     <use style="fill:#1f77b4;stroke:#1f77b4;" x="600.222857" xlink:href="#m5a7c20d175" y="58.723225"/>
     <use style="fill:#1f77b4;stroke:#1f77b4;" x="519.090362" xlink:href="#m5a7c20d175" y="91.460575"/>
     <use style="fill:#1f77b4;stroke:#1f77b4;" x="299.589564" xlink:href="#m5a7c20d175" y="164.444171"/>
     <use style="fill:#1f77b4;stroke:#1f77b4;" x="435.073214" xlink:href="#m5a7c20d175" y="92.200686"/>
     <use style="fill:#1f77b4;stroke:#1f77b4;" x="347.71074" xlink:href="#m5a7c20d175" y="119.39798"/>
     <use style="fill:#1f77b4;stroke:#1f77b4;" x="406.388941" xlink:href="#m5a7c20d175" y="121.776396"/>
     <use style="fill:#1f77b4;stroke:#1f77b4;" x="320.274645" xlink:href="#m5a7c20d175" y="119.857855"/>
     <use style="fill:#1f77b4;stroke:#1f77b4;" x="481.108629" xlink:href="#m5a7c20d175" y="92.013862"/>
     <use style="fill:#1f77b4;stroke:#1f77b4;" x="510.46196" xlink:href="#m5a7c20d175" y="73.798501"/>
     <use style="fill:#1f77b4;stroke:#1f77b4;" x="504.400422" xlink:href="#m5a7c20d175" y="69.142267"/>
     <use style="fill:#1f77b4;stroke:#1f77b4;" x="409.930555" xlink:href="#m5a7c20d175" y="85.697766"/>
     <use style="fill:#1f77b4;stroke:#1f77b4;" x="444.988888" xlink:href="#m5a7c20d175" y="114.195644"/>
     <use style="fill:#1f77b4;stroke:#1f77b4;" x="186.642363" xlink:href="#m5a7c20d175" y="302.701273"/>
     <use style="fill:#1f77b4;stroke:#1f77b4;" x="249.63153" xlink:href="#m5a7c20d175" y="164.120822"/>
     <use style="fill:#1f77b4;stroke:#1f77b4;" x="516.015438" xlink:href="#m5a7c20d175" y="112.032795"/>
     <use style="fill:#1f77b4;stroke:#1f77b4;" x="256.675223" xlink:href="#m5a7c20d175" y="181.84038"/>
     <use style="fill:#1f77b4;stroke:#1f77b4;" x="434.836919" xlink:href="#m5a7c20d175" y="103.2305"/>
     <use style="fill:#1f77b4;stroke:#1f77b4;" x="186.57748" xlink:href="#m5a7c20d175" y="329.100971"/>
     <use style="fill:#1f77b4;stroke:#1f77b4;" x="595.531952" xlink:href="#m5a7c20d175" y="60.332787"/>
     <use style="fill:#1f77b4;stroke:#1f77b4;" x="500.901895" xlink:href="#m5a7c20d175" y="98.480854"/>
     <use style="fill:#1f77b4;stroke:#1f77b4;" x="533.791526" xlink:href="#m5a7c20d175" y="75.034415"/>
     <use style="fill:#1f77b4;stroke:#1f77b4;" x="193.849229" xlink:href="#m5a7c20d175" y="288.92658"/>
     <use style="fill:#1f77b4;stroke:#1f77b4;" x="429.290826" xlink:href="#m5a7c20d175" y="280.447635"/>
     <use style="fill:#1f77b4;stroke:#1f77b4;" x="545.235439" xlink:href="#m5a7c20d175" y="53.369992"/>
     <use style="fill:#1f77b4;stroke:#1f77b4;" x="342.619958" xlink:href="#m5a7c20d175" y="114.770488"/>
     <use style="fill:#1f77b4;stroke:#1f77b4;" x="299.450128" xlink:href="#m5a7c20d175" y="214.218452"/>
     <use style="fill:#1f77b4;stroke:#1f77b4;" x="355.731491" xlink:href="#m5a7c20d175" y="350.334261"/>
     <use style="fill:#1f77b4;stroke:#1f77b4;" x="561.703797" xlink:href="#m5a7c20d175" y="53.779569"/>
     <use style="fill:#1f77b4;stroke:#1f77b4;" x="572.158513" xlink:href="#m5a7c20d175" y="47.908977"/>
     <use style="fill:#1f77b4;stroke:#1f77b4;" x="347.997159" xlink:href="#m5a7c20d175" y="102.217338"/>
     <use style="fill:#1f77b4;stroke:#1f77b4;" x="544.870262" xlink:href="#m5a7c20d175" y="71.628466"/>
     <use style="fill:#1f77b4;stroke:#1f77b4;" x="212.126466" xlink:href="#m5a7c20d175" y="257.611968"/>
     <use style="fill:#1f77b4;stroke:#1f77b4;" x="407.069434" xlink:href="#m5a7c20d175" y="127.560761"/>
     <use style="fill:#1f77b4;stroke:#1f77b4;" x="188.970123" xlink:href="#m5a7c20d175" y="215.195687"/>
     <use style="fill:#1f77b4;stroke:#1f77b4;" x="497.169254" xlink:href="#m5a7c20d175" y="133.287641"/>
     <use style="fill:#1f77b4;stroke:#1f77b4;" x="401.934033" xlink:href="#m5a7c20d175" y="103.798158"/>
     <use style="fill:#1f77b4;stroke:#1f77b4;" x="419.928148" xlink:href="#m5a7c20d175" y="119.218341"/>
     <use style="fill:#1f77b4;stroke:#1f77b4;" x="207.297888" xlink:href="#m5a7c20d175" y="264.617876"/>
     <use style="fill:#1f77b4;stroke:#1f77b4;" x="559.702615" xlink:href="#m5a7c20d175" y="64.263281"/>
     <use style="fill:#1f77b4;stroke:#1f77b4;" x="586.014612" xlink:href="#m5a7c20d175" y="72.763783"/>
     <use style="fill:#1f77b4;stroke:#1f77b4;" x="443.108628" xlink:href="#m5a7c20d175" y="86.114528"/>
     <use style="fill:#1f77b4;stroke:#1f77b4;" x="450.57661" xlink:href="#m5a7c20d175" y="105.062814"/>
     <use style="fill:#1f77b4;stroke:#1f77b4;" x="292.930234" xlink:href="#m5a7c20d175" y="101.45567"/>
     <use style="fill:#1f77b4;stroke:#1f77b4;" x="314.842619" xlink:href="#m5a7c20d175" y="107.398117"/>
     <use style="fill:#1f77b4;stroke:#1f77b4;" x="285.966481" xlink:href="#m5a7c20d175" y="184.455918"/>
     <use style="fill:#1f77b4;stroke:#1f77b4;" x="226.219519" xlink:href="#m5a7c20d175" y="330.423111"/>
     <use style="fill:#1f77b4;stroke:#1f77b4;" x="124.456573" xlink:href="#m5a7c20d175" y="322.497454"/>
    </g>
   </g>
   <g id="matplotlib.axis_1">
    <g id="xtick_1">
     <g id="line2d_1">
      <defs>
       <path d="M 0 0 
L 0 3.5 
" id="m626797e70a" style="stroke:#000000;stroke-width:0.8;"/>
      </defs>
      <g>
       <use style="stroke:#000000;stroke-width:0.8;" x="201.691785" xlink:href="#m626797e70a" y="365.84375"/>
      </g>
     </g>
     <g id="text_1">
      <!-- $\mathdefault{10^{3}}$ -->
      <defs>
       <path d="M 12.40625 8.296875 
L 28.515625 8.296875 
L 28.515625 63.921875 
L 10.984375 60.40625 
L 10.984375 69.390625 
L 28.421875 72.90625 
L 38.28125 72.90625 
L 38.28125 8.296875 
L 54.390625 8.296875 
L 54.390625 0 
L 12.40625 0 
z
" id="DejaVuSans-31"/>
       <path d="M 31.78125 66.40625 
Q 24.171875 66.40625 20.328125 58.90625 
Q 16.5 51.421875 16.5 36.375 
Q 16.5 21.390625 20.328125 13.890625 
Q 24.171875 6.390625 31.78125 6.390625 
Q 39.453125 6.390625 43.28125 13.890625 
Q 47.125 21.390625 47.125 36.375 
Q 47.125 51.421875 43.28125 58.90625 
Q 39.453125 66.40625 31.78125 66.40625 
z
M 31.78125 74.21875 
Q 44.046875 74.21875 50.515625 64.515625 
Q 56.984375 54.828125 56.984375 36.375 
Q 56.984375 17.96875 50.515625 8.265625 
Q 44.046875 -1.421875 31.78125 -1.421875 
Q 19.53125 -1.421875 13.0625 8.265625 
Q 6.59375 17.96875 6.59375 36.375 
Q 6.59375 54.828125 13.0625 64.515625 
Q 19.53125 74.21875 31.78125 74.21875 
z
" id="DejaVuSans-30"/>
       <path d="M 40.578125 39.3125 
Q 47.65625 37.796875 51.625 33 
Q 55.609375 28.21875 55.609375 21.1875 
Q 55.609375 10.40625 48.1875 4.484375 
Q 40.765625 -1.421875 27.09375 -1.421875 
Q 22.515625 -1.421875 17.65625 -0.515625 
Q 12.796875 0.390625 7.625 2.203125 
L 7.625 11.71875 
Q 11.71875 9.328125 16.59375 8.109375 
Q 21.484375 6.890625 26.8125 6.890625 
Q 36.078125 6.890625 40.9375 10.546875 
Q 45.796875 14.203125 45.796875 21.1875 
Q 45.796875 27.640625 41.28125 31.265625 
Q 36.765625 34.90625 28.71875 34.90625 
L 20.21875 34.90625 
L 20.21875 43.015625 
L 29.109375 43.015625 
Q 36.375 43.015625 40.234375 45.921875 
Q 44.09375 48.828125 44.09375 54.296875 
Q 44.09375 59.90625 40.109375 62.90625 
Q 36.140625 65.921875 28.71875 65.921875 
Q 24.65625 65.921875 20.015625 65.03125 
Q 15.375 64.15625 9.8125 62.3125 
L 9.8125 71.09375 
Q 15.4375 72.65625 20.34375 73.4375 
Q 25.25 74.21875 29.59375 74.21875 
Q 40.828125 74.21875 47.359375 69.109375 
Q 53.90625 64.015625 53.90625 55.328125 
Q 53.90625 49.265625 50.4375 45.09375 
Q 46.96875 40.921875 40.578125 39.3125 
z
" id="DejaVuSans-33"/>
      </defs>
      <g transform="translate(192.891785 380.442187)scale(0.1 -0.1)">
       <use transform="translate(0 0.765625)" xlink:href="#DejaVuSans-31"/>
       <use transform="translate(63.623047 0.765625)" xlink:href="#DejaVuSans-30"/>
       <use transform="translate(128.203125 39.046875)scale(0.7)" xlink:href="#DejaVuSans-33"/>
      </g>
     </g>
    </g>
    <g id="xtick_2">
     <g id="line2d_2">
      <g>
       <use style="stroke:#000000;stroke-width:0.8;" x="437.042404" xlink:href="#m626797e70a" y="365.84375"/>
      </g>
     </g>
     <g id="text_2">
      <!-- $\mathdefault{10^{4}}$ -->
      <defs>
       <path d="M 37.796875 64.3125 
L 12.890625 25.390625 
L 37.796875 25.390625 
z
M 35.203125 72.90625 
L 47.609375 72.90625 
L 47.609375 25.390625 
L 58.015625 25.390625 
L 58.015625 17.1875 
L 47.609375 17.1875 
L 47.609375 0 
L 37.796875 0 
L 37.796875 17.1875 
L 4.890625 17.1875 
L 4.890625 26.703125 
z
" id="DejaVuSans-34"/>
      </defs>
      <g transform="translate(428.242404 380.442187)scale(0.1 -0.1)">
       <use transform="translate(0 0.684375)" xlink:href="#DejaVuSans-31"/>
       <use transform="translate(63.623047 0.684375)" xlink:href="#DejaVuSans-30"/>
       <use transform="translate(128.203125 38.965625)scale(0.7)" xlink:href="#DejaVuSans-34"/>
      </g>
     </g>
    </g>
    <g id="xtick_3">
     <g id="line2d_3">
      <defs>
       <path d="M 0 0 
L 0 2 
" id="m23124acb88" style="stroke:#000000;stroke-width:0.6;"/>
      </defs>
      <g>
       <use style="stroke:#000000;stroke-width:0.6;" x="78.631948" xlink:href="#m23124acb88" y="365.84375"/>
      </g>
     </g>
    </g>
    <g id="xtick_4">
     <g id="line2d_4">
      <g>
       <use style="stroke:#000000;stroke-width:0.6;" x="108.036357" xlink:href="#m23124acb88" y="365.84375"/>
      </g>
     </g>
    </g>
    <g id="xtick_5">
     <g id="line2d_5">
      <g>
       <use style="stroke:#000000;stroke-width:0.6;" x="130.844189" xlink:href="#m23124acb88" y="365.84375"/>
      </g>
     </g>
    </g>
    <g id="xtick_6">
     <g id="line2d_6">
      <g>
       <use style="stroke:#000000;stroke-width:0.6;" x="149.479544" xlink:href="#m23124acb88" y="365.84375"/>
      </g>
     </g>
    </g>
    <g id="xtick_7">
     <g id="line2d_7">
      <g>
       <use style="stroke:#000000;stroke-width:0.6;" x="165.235512" xlink:href="#m23124acb88" y="365.84375"/>
      </g>
     </g>
    </g>
    <g id="xtick_8">
     <g id="line2d_8">
      <g>
       <use style="stroke:#000000;stroke-width:0.6;" x="178.883953" xlink:href="#m23124acb88" y="365.84375"/>
      </g>
     </g>
    </g>
    <g id="xtick_9">
     <g id="line2d_9">
      <g>
       <use style="stroke:#000000;stroke-width:0.6;" x="190.922731" xlink:href="#m23124acb88" y="365.84375"/>
      </g>
     </g>
    </g>
    <g id="xtick_10">
     <g id="line2d_10">
      <g>
       <use style="stroke:#000000;stroke-width:0.6;" x="272.539381" xlink:href="#m23124acb88" y="365.84375"/>
      </g>
     </g>
    </g>
    <g id="xtick_11">
     <g id="line2d_11">
      <g>
       <use style="stroke:#000000;stroke-width:0.6;" x="313.982567" xlink:href="#m23124acb88" y="365.84375"/>
      </g>
     </g>
    </g>
    <g id="xtick_12">
     <g id="line2d_12">
      <g>
       <use style="stroke:#000000;stroke-width:0.6;" x="343.386976" xlink:href="#m23124acb88" y="365.84375"/>
      </g>
     </g>
    </g>
    <g id="xtick_13">
     <g id="line2d_13">
      <g>
       <use style="stroke:#000000;stroke-width:0.6;" x="366.194808" xlink:href="#m23124acb88" y="365.84375"/>
      </g>
     </g>
    </g>
    <g id="xtick_14">
     <g id="line2d_14">
      <g>
       <use style="stroke:#000000;stroke-width:0.6;" x="384.830163" xlink:href="#m23124acb88" y="365.84375"/>
      </g>
     </g>
    </g>
    <g id="xtick_15">
     <g id="line2d_15">
      <g>
       <use style="stroke:#000000;stroke-width:0.6;" x="400.586132" xlink:href="#m23124acb88" y="365.84375"/>
      </g>
     </g>
    </g>
    <g id="xtick_16">
     <g id="line2d_16">
      <g>
       <use style="stroke:#000000;stroke-width:0.6;" x="414.234572" xlink:href="#m23124acb88" y="365.84375"/>
      </g>
     </g>
    </g>
    <g id="xtick_17">
     <g id="line2d_17">
      <g>
       <use style="stroke:#000000;stroke-width:0.6;" x="426.27335" xlink:href="#m23124acb88" y="365.84375"/>
      </g>
     </g>
    </g>
    <g id="xtick_18">
     <g id="line2d_18">
      <g>
       <use style="stroke:#000000;stroke-width:0.6;" x="507.89" xlink:href="#m23124acb88" y="365.84375"/>
      </g>
     </g>
    </g>
    <g id="xtick_19">
     <g id="line2d_19">
      <g>
       <use style="stroke:#000000;stroke-width:0.6;" x="549.333187" xlink:href="#m23124acb88" y="365.84375"/>
      </g>
     </g>
    </g>
    <g id="xtick_20">
     <g id="line2d_20">
      <g>
       <use style="stroke:#000000;stroke-width:0.6;" x="578.737596" xlink:href="#m23124acb88" y="365.84375"/>
      </g>
     </g>
    </g>
    <g id="xtick_21">
     <g id="line2d_21">
      <g>
       <use style="stroke:#000000;stroke-width:0.6;" x="601.545428" xlink:href="#m23124acb88" y="365.84375"/>
      </g>
     </g>
    </g>
    <g id="xtick_22">
     <g id="line2d_22">
      <g>
       <use style="stroke:#000000;stroke-width:0.6;" x="620.180783" xlink:href="#m23124acb88" y="365.84375"/>
      </g>
     </g>
    </g>
    <g id="text_3">
     <!-- GDP per Capita [in USD] -->
     <defs>
      <path d="M 59.515625 10.40625 
L 59.515625 29.984375 
L 43.40625 29.984375 
L 43.40625 38.09375 
L 69.28125 38.09375 
L 69.28125 6.78125 
Q 63.578125 2.734375 56.6875 0.65625 
Q 49.8125 -1.421875 42 -1.421875 
Q 24.90625 -1.421875 15.25 8.5625 
Q 5.609375 18.5625 5.609375 36.375 
Q 5.609375 54.25 15.25 64.234375 
Q 24.90625 74.21875 42 74.21875 
Q 49.125 74.21875 55.546875 72.453125 
Q 61.96875 70.703125 67.390625 67.28125 
L 67.390625 56.78125 
Q 61.921875 61.421875 55.765625 63.765625 
Q 49.609375 66.109375 42.828125 66.109375 
Q 29.4375 66.109375 22.71875 58.640625 
Q 16.015625 51.171875 16.015625 36.375 
Q 16.015625 21.625 22.71875 14.15625 
Q 29.4375 6.6875 42.828125 6.6875 
Q 48.046875 6.6875 52.140625 7.59375 
Q 56.25 8.5 59.515625 10.40625 
z
" id="DejaVuSans-47"/>
      <path d="M 19.671875 64.796875 
L 19.671875 8.109375 
L 31.59375 8.109375 
Q 46.6875 8.109375 53.6875 14.9375 
Q 60.6875 21.78125 60.6875 36.53125 
Q 60.6875 51.171875 53.6875 57.984375 
Q 46.6875 64.796875 31.59375 64.796875 
z
M 9.8125 72.90625 
L 30.078125 72.90625 
Q 51.265625 72.90625 61.171875 64.09375 
Q 71.09375 55.28125 71.09375 36.53125 
Q 71.09375 17.671875 61.125 8.828125 
Q 51.171875 0 30.078125 0 
L 9.8125 0 
z
" id="DejaVuSans-44"/>
      <path d="M 19.671875 64.796875 
L 19.671875 37.40625 
L 32.078125 37.40625 
Q 38.96875 37.40625 42.71875 40.96875 
Q 46.484375 44.53125 46.484375 51.125 
Q 46.484375 57.671875 42.71875 61.234375 
Q 38.96875 64.796875 32.078125 64.796875 
z
M 9.8125 72.90625 
L 32.078125 72.90625 
Q 44.34375 72.90625 50.609375 67.359375 
Q 56.890625 61.8125 56.890625 51.125 
Q 56.890625 40.328125 50.609375 34.8125 
Q 44.34375 29.296875 32.078125 29.296875 
L 19.671875 29.296875 
L 19.671875 0 
L 9.8125 0 
z
" id="DejaVuSans-50"/>
      <path id="DejaVuSans-20"/>
      <path d="M 18.109375 8.203125 
L 18.109375 -20.796875 
L 9.078125 -20.796875 
L 9.078125 54.6875 
L 18.109375 54.6875 
L 18.109375 46.390625 
Q 20.953125 51.265625 25.265625 53.625 
Q 29.59375 56 35.59375 56 
Q 45.5625 56 51.78125 48.09375 
Q 58.015625 40.1875 58.015625 27.296875 
Q 58.015625 14.40625 51.78125 6.484375 
Q 45.5625 -1.421875 35.59375 -1.421875 
Q 29.59375 -1.421875 25.265625 0.953125 
Q 20.953125 3.328125 18.109375 8.203125 
z
M 48.6875 27.296875 
Q 48.6875 37.203125 44.609375 42.84375 
Q 40.53125 48.484375 33.40625 48.484375 
Q 26.265625 48.484375 22.1875 42.84375 
Q 18.109375 37.203125 18.109375 27.296875 
Q 18.109375 17.390625 22.1875 11.75 
Q 26.265625 6.109375 33.40625 6.109375 
Q 40.53125 6.109375 44.609375 11.75 
Q 48.6875 17.390625 48.6875 27.296875 
z
" id="DejaVuSans-70"/>
      <path d="M 56.203125 29.59375 
L 56.203125 25.203125 
L 14.890625 25.203125 
Q 15.484375 15.921875 20.484375 11.0625 
Q 25.484375 6.203125 34.421875 6.203125 
Q 39.59375 6.203125 44.453125 7.46875 
Q 49.3125 8.734375 54.109375 11.28125 
L 54.109375 2.78125 
Q 49.265625 0.734375 44.1875 -0.34375 
Q 39.109375 -1.421875 33.890625 -1.421875 
Q 20.796875 -1.421875 13.15625 6.1875 
Q 5.515625 13.8125 5.515625 26.8125 
Q 5.515625 40.234375 12.765625 48.109375 
Q 20.015625 56 32.328125 56 
Q 43.359375 56 49.78125 48.890625 
Q 56.203125 41.796875 56.203125 29.59375 
z
M 47.21875 32.234375 
Q 47.125 39.59375 43.09375 43.984375 
Q 39.0625 48.390625 32.421875 48.390625 
Q 24.90625 48.390625 20.390625 44.140625 
Q 15.875 39.890625 15.1875 32.171875 
z
" id="DejaVuSans-65"/>
      <path d="M 41.109375 46.296875 
Q 39.59375 47.171875 37.8125 47.578125 
Q 36.03125 48 33.890625 48 
Q 26.265625 48 22.1875 43.046875 
Q 18.109375 38.09375 18.109375 28.8125 
L 18.109375 0 
L 9.078125 0 
L 9.078125 54.6875 
L 18.109375 54.6875 
L 18.109375 46.1875 
Q 20.953125 51.171875 25.484375 53.578125 
Q 30.03125 56 36.53125 56 
Q 37.453125 56 38.578125 55.875 
Q 39.703125 55.765625 41.0625 55.515625 
z
" id="DejaVuSans-72"/>
      <path d="M 64.40625 67.28125 
L 64.40625 56.890625 
Q 59.421875 61.53125 53.78125 63.8125 
Q 48.140625 66.109375 41.796875 66.109375 
Q 29.296875 66.109375 22.65625 58.46875 
Q 16.015625 50.828125 16.015625 36.375 
Q 16.015625 21.96875 22.65625 14.328125 
Q 29.296875 6.6875 41.796875 6.6875 
Q 48.140625 6.6875 53.78125 8.984375 
Q 59.421875 11.28125 64.40625 15.921875 
L 64.40625 5.609375 
Q 59.234375 2.09375 53.4375 0.328125 
Q 47.65625 -1.421875 41.21875 -1.421875 
Q 24.65625 -1.421875 15.125 8.703125 
Q 5.609375 18.84375 5.609375 36.375 
Q 5.609375 53.953125 15.125 64.078125 
Q 24.65625 74.21875 41.21875 74.21875 
Q 47.75 74.21875 53.53125 72.484375 
Q 59.328125 70.75 64.40625 67.28125 
z
" id="DejaVuSans-43"/>
      <path d="M 34.28125 27.484375 
Q 23.390625 27.484375 19.1875 25 
Q 14.984375 22.515625 14.984375 16.5 
Q 14.984375 11.71875 18.140625 8.90625 
Q 21.296875 6.109375 26.703125 6.109375 
Q 34.1875 6.109375 38.703125 11.40625 
Q 43.21875 16.703125 43.21875 25.484375 
L 43.21875 27.484375 
z
M 52.203125 31.203125 
L 52.203125 0 
L 43.21875 0 
L 43.21875 8.296875 
Q 40.140625 3.328125 35.546875 0.953125 
Q 30.953125 -1.421875 24.3125 -1.421875 
Q 15.921875 -1.421875 10.953125 3.296875 
Q 6 8.015625 6 15.921875 
Q 6 25.140625 12.171875 29.828125 
Q 18.359375 34.515625 30.609375 34.515625 
L 43.21875 34.515625 
L 43.21875 35.40625 
Q 43.21875 41.609375 39.140625 45 
Q 35.0625 48.390625 27.6875 48.390625 
Q 23 48.390625 18.546875 47.265625 
Q 14.109375 46.140625 10.015625 43.890625 
L 10.015625 52.203125 
Q 14.9375 54.109375 19.578125 55.046875 
Q 24.21875 56 28.609375 56 
Q 40.484375 56 46.34375 49.84375 
Q 52.203125 43.703125 52.203125 31.203125 
z
" id="DejaVuSans-61"/>
      <path d="M 9.421875 54.6875 
L 18.40625 54.6875 
L 18.40625 0 
L 9.421875 0 
z
M 9.421875 75.984375 
L 18.40625 75.984375 
L 18.40625 64.59375 
L 9.421875 64.59375 
z
" id="DejaVuSans-69"/>
      <path d="M 18.3125 70.21875 
L 18.3125 54.6875 
L 36.8125 54.6875 
L 36.8125 47.703125 
L 18.3125 47.703125 
L 18.3125 18.015625 
Q 18.3125 11.328125 20.140625 9.421875 
Q 21.96875 7.515625 27.59375 7.515625 
L 36.8125 7.515625 
L 36.8125 0 
L 27.59375 0 
Q 17.1875 0 13.234375 3.875 
Q 9.28125 7.765625 9.28125 18.015625 
L 9.28125 47.703125 
L 2.6875 47.703125 
L 2.6875 54.6875 
L 9.28125 54.6875 
L 9.28125 70.21875 
z
" id="DejaVuSans-74"/>
      <path d="M 8.59375 75.984375 
L 29.296875 75.984375 
L 29.296875 69 
L 17.578125 69 
L 17.578125 -6.203125 
L 29.296875 -6.203125 
L 29.296875 -13.1875 
L 8.59375 -13.1875 
z
" id="DejaVuSans-5b"/>
      <path d="M 54.890625 33.015625 
L 54.890625 0 
L 45.90625 0 
L 45.90625 32.71875 
Q 45.90625 40.484375 42.875 44.328125 
Q 39.84375 48.1875 33.796875 48.1875 
Q 26.515625 48.1875 22.3125 43.546875 
Q 18.109375 38.921875 18.109375 30.90625 
L 18.109375 0 
L 9.078125 0 
L 9.078125 54.6875 
L 18.109375 54.6875 
L 18.109375 46.1875 
Q 21.34375 51.125 25.703125 53.5625 
Q 30.078125 56 35.796875 56 
Q 45.21875 56 50.046875 50.171875 
Q 54.890625 44.34375 54.890625 33.015625 
z
" id="DejaVuSans-6e"/>
      <path d="M 8.6875 72.90625 
L 18.609375 72.90625 
L 18.609375 28.609375 
Q 18.609375 16.890625 22.84375 11.734375 
Q 27.09375 6.59375 36.625 6.59375 
Q 46.09375 6.59375 50.34375 11.734375 
Q 54.59375 16.890625 54.59375 28.609375 
L 54.59375 72.90625 
L 64.5 72.90625 
L 64.5 27.390625 
Q 64.5 13.140625 57.4375 5.859375 
Q 50.390625 -1.421875 36.625 -1.421875 
Q 22.796875 -1.421875 15.734375 5.859375 
Q 8.6875 13.140625 8.6875 27.390625 
z
" id="DejaVuSans-55"/>
      <path d="M 53.515625 70.515625 
L 53.515625 60.890625 
Q 47.90625 63.578125 42.921875 64.890625 
Q 37.9375 66.21875 33.296875 66.21875 
Q 25.25 66.21875 20.875 63.09375 
Q 16.5 59.96875 16.5 54.203125 
Q 16.5 49.359375 19.40625 46.890625 
Q 22.3125 44.4375 30.421875 42.921875 
L 36.375 41.703125 
Q 47.40625 39.59375 52.65625 34.296875 
Q 57.90625 29 57.90625 20.125 
Q 57.90625 9.515625 50.796875 4.046875 
Q 43.703125 -1.421875 29.984375 -1.421875 
Q 24.8125 -1.421875 18.96875 -0.25 
Q 13.140625 0.921875 6.890625 3.21875 
L 6.890625 13.375 
Q 12.890625 10.015625 18.65625 8.296875 
Q 24.421875 6.59375 29.984375 6.59375 
Q 38.421875 6.59375 43.015625 9.90625 
Q 47.609375 13.234375 47.609375 19.390625 
Q 47.609375 24.75 44.3125 27.78125 
Q 41.015625 30.8125 33.5 32.328125 
L 27.484375 33.5 
Q 16.453125 35.6875 11.515625 40.375 
Q 6.59375 45.0625 6.59375 53.421875 
Q 6.59375 63.09375 13.40625 68.65625 
Q 20.21875 74.21875 32.171875 74.21875 
Q 37.3125 74.21875 42.625 73.28125 
Q 47.953125 72.359375 53.515625 70.515625 
z
" id="DejaVuSans-53"/>
      <path d="M 30.421875 75.984375 
L 30.421875 -13.1875 
L 9.71875 -13.1875 
L 9.71875 -6.203125 
L 21.390625 -6.203125 
L 21.390625 69 
L 9.71875 69 
L 9.71875 75.984375 
z
" id="DejaVuSans-5d"/>
     </defs>
     <g transform="translate(274.764063 394.120313)scale(0.1 -0.1)">
      <use xlink:href="#DejaVuSans-47"/>
      <use x="77.490234" xlink:href="#DejaVuSans-44"/>
      <use x="154.492188" xlink:href="#DejaVuSans-50"/>
      <use x="214.794922" xlink:href="#DejaVuSans-20"/>
      <use x="246.582031" xlink:href="#DejaVuSans-70"/>
      <use x="310.058594" xlink:href="#DejaVuSans-65"/>
      <use x="371.582031" xlink:href="#DejaVuSans-72"/>
      <use x="412.695312" xlink:href="#DejaVuSans-20"/>
      <use x="444.482422" xlink:href="#DejaVuSans-43"/>
      <use x="514.306641" xlink:href="#DejaVuSans-61"/>
      <use x="575.585938" xlink:href="#DejaVuSans-70"/>
      <use x="639.0625" xlink:href="#DejaVuSans-69"/>
      <use x="666.845703" xlink:href="#DejaVuSans-74"/>
      <use x="706.054688" xlink:href="#DejaVuSans-61"/>
      <use x="767.333984" xlink:href="#DejaVuSans-20"/>
      <use x="799.121094" xlink:href="#DejaVuSans-5b"/>
      <use x="838.134766" xlink:href="#DejaVuSans-69"/>
      <use x="865.917969" xlink:href="#DejaVuSans-6e"/>
      <use x="929.296875" xlink:href="#DejaVuSans-20"/>
      <use x="961.083984" xlink:href="#DejaVuSans-55"/>
      <use x="1034.277344" xlink:href="#DejaVuSans-53"/>
      <use x="1097.753906" xlink:href="#DejaVuSans-44"/>
      <use x="1174.755859" xlink:href="#DejaVuSans-5d"/>
     </g>
    </g>
   </g>
   <g id="matplotlib.axis_2">
    <g id="ytick_1">
     <g id="line2d_23">
      <defs>
       <path d="M 0 0 
L -3.5 0 
" id="m3fd5d45924" style="stroke:#000000;stroke-width:0.8;"/>
      </defs>
      <g>
       <use style="stroke:#000000;stroke-width:0.8;" x="44.203125" xlink:href="#m3fd5d45924" y="347.553454"/>
      </g>
     </g>
     <g id="text_4">
      <!-- 40 -->
      <g transform="translate(24.478125 351.352673)scale(0.1 -0.1)">
       <use xlink:href="#DejaVuSans-34"/>
       <use x="63.623047" xlink:href="#DejaVuSans-30"/>
      </g>
     </g>
    </g>
    <g id="ytick_2">
     <g id="line2d_24">
      <g>
       <use style="stroke:#000000;stroke-width:0.8;" x="44.203125" xlink:href="#m3fd5d45924" y="275.697989"/>
      </g>
     </g>
     <g id="text_5">
      <!-- 50 -->
      <defs>
       <path d="M 10.796875 72.90625 
L 49.515625 72.90625 
L 49.515625 64.59375 
L 19.828125 64.59375 
L 19.828125 46.734375 
Q 21.96875 47.46875 24.109375 47.828125 
Q 26.265625 48.1875 28.421875 48.1875 
Q 40.625 48.1875 47.75 41.5 
Q 54.890625 34.8125 54.890625 23.390625 
Q 54.890625 11.625 47.5625 5.09375 
Q 40.234375 -1.421875 26.90625 -1.421875 
Q 22.3125 -1.421875 17.546875 -0.640625 
Q 12.796875 0.140625 7.71875 1.703125 
L 7.71875 11.625 
Q 12.109375 9.234375 16.796875 8.0625 
Q 21.484375 6.890625 26.703125 6.890625 
Q 35.15625 6.890625 40.078125 11.328125 
Q 45.015625 15.765625 45.015625 23.390625 
Q 45.015625 31 40.078125 35.4375 
Q 35.15625 39.890625 26.703125 39.890625 
Q 22.75 39.890625 18.8125 39.015625 
Q 14.890625 38.140625 10.796875 36.28125 
z
" id="DejaVuSans-35"/>
      </defs>
      <g transform="translate(24.478125 279.497208)scale(0.1 -0.1)">
       <use xlink:href="#DejaVuSans-35"/>
       <use x="63.623047" xlink:href="#DejaVuSans-30"/>
      </g>
     </g>
    </g>
    <g id="ytick_3">
     <g id="line2d_25">
      <g>
       <use style="stroke:#000000;stroke-width:0.8;" x="44.203125" xlink:href="#m3fd5d45924" y="203.842523"/>
      </g>
     </g>
     <g id="text_6">
      <!-- 60 -->
      <defs>
       <path d="M 33.015625 40.375 
Q 26.375 40.375 22.484375 35.828125 
Q 18.609375 31.296875 18.609375 23.390625 
Q 18.609375 15.53125 22.484375 10.953125 
Q 26.375 6.390625 33.015625 6.390625 
Q 39.65625 6.390625 43.53125 10.953125 
Q 47.40625 15.53125 47.40625 23.390625 
Q 47.40625 31.296875 43.53125 35.828125 
Q 39.65625 40.375 33.015625 40.375 
z
M 52.59375 71.296875 
L 52.59375 62.3125 
Q 48.875 64.0625 45.09375 64.984375 
Q 41.3125 65.921875 37.59375 65.921875 
Q 27.828125 65.921875 22.671875 59.328125 
Q 17.53125 52.734375 16.796875 39.40625 
Q 19.671875 43.65625 24.015625 45.921875 
Q 28.375 48.1875 33.59375 48.1875 
Q 44.578125 48.1875 50.953125 41.515625 
Q 57.328125 34.859375 57.328125 23.390625 
Q 57.328125 12.15625 50.6875 5.359375 
Q 44.046875 -1.421875 33.015625 -1.421875 
Q 20.359375 -1.421875 13.671875 8.265625 
Q 6.984375 17.96875 6.984375 36.375 
Q 6.984375 53.65625 15.1875 63.9375 
Q 23.390625 74.21875 37.203125 74.21875 
Q 40.921875 74.21875 44.703125 73.484375 
Q 48.484375 72.75 52.59375 71.296875 
z
" id="DejaVuSans-36"/>
      </defs>
      <g transform="translate(24.478125 207.641742)scale(0.1 -0.1)">
       <use xlink:href="#DejaVuSans-36"/>
       <use x="63.623047" xlink:href="#DejaVuSans-30"/>
      </g>
     </g>
    </g>
    <g id="ytick_4">
     <g id="line2d_26">
      <g>
       <use style="stroke:#000000;stroke-width:0.8;" x="44.203125" xlink:href="#m3fd5d45924" y="131.987057"/>
      </g>
     </g>
     <g id="text_7">
      <!-- 70 -->
      <defs>
       <path d="M 8.203125 72.90625 
L 55.078125 72.90625 
L 55.078125 68.703125 
L 28.609375 0 
L 18.3125 0 
L 43.21875 64.59375 
L 8.203125 64.59375 
z
" id="DejaVuSans-37"/>
      </defs>
      <g transform="translate(24.478125 135.786276)scale(0.1 -0.1)">
       <use xlink:href="#DejaVuSans-37"/>
       <use x="63.623047" xlink:href="#DejaVuSans-30"/>
      </g>
     </g>
    </g>
    <g id="ytick_5">
     <g id="line2d_27">
      <g>
       <use style="stroke:#000000;stroke-width:0.8;" x="44.203125" xlink:href="#m3fd5d45924" y="60.131592"/>
      </g>
     </g>
     <g id="text_8">
      <!-- 80 -->
      <defs>
       <path d="M 31.78125 34.625 
Q 24.75 34.625 20.71875 30.859375 
Q 16.703125 27.09375 16.703125 20.515625 
Q 16.703125 13.921875 20.71875 10.15625 
Q 24.75 6.390625 31.78125 6.390625 
Q 38.8125 6.390625 42.859375 10.171875 
Q 46.921875 13.96875 46.921875 20.515625 
Q 46.921875 27.09375 42.890625 30.859375 
Q 38.875 34.625 31.78125 34.625 
z
M 21.921875 38.8125 
Q 15.578125 40.375 12.03125 44.71875 
Q 8.5 49.078125 8.5 55.328125 
Q 8.5 64.0625 14.71875 69.140625 
Q 20.953125 74.21875 31.78125 74.21875 
Q 42.671875 74.21875 48.875 69.140625 
Q 55.078125 64.0625 55.078125 55.328125 
Q 55.078125 49.078125 51.53125 44.71875 
Q 48 40.375 41.703125 38.8125 
Q 48.828125 37.15625 52.796875 32.3125 
Q 56.78125 27.484375 56.78125 20.515625 
Q 56.78125 9.90625 50.3125 4.234375 
Q 43.84375 -1.421875 31.78125 -1.421875 
Q 19.734375 -1.421875 13.25 4.234375 
Q 6.78125 9.90625 6.78125 20.515625 
Q 6.78125 27.484375 10.78125 32.3125 
Q 14.796875 37.15625 21.921875 38.8125 
z
M 18.3125 54.390625 
Q 18.3125 48.734375 21.84375 45.5625 
Q 25.390625 42.390625 31.78125 42.390625 
Q 38.140625 42.390625 41.71875 45.5625 
Q 45.3125 48.734375 45.3125 54.390625 
Q 45.3125 60.0625 41.71875 63.234375 
Q 38.140625 66.40625 31.78125 66.40625 
Q 25.390625 66.40625 21.84375 63.234375 
Q 18.3125 60.0625 18.3125 54.390625 
z
" id="DejaVuSans-38"/>
      </defs>
      <g transform="translate(24.478125 63.93081)scale(0.1 -0.1)">
       <use xlink:href="#DejaVuSans-38"/>
       <use x="63.623047" xlink:href="#DejaVuSans-30"/>
      </g>
     </g>
    </g>
    <g id="text_9">
     <!-- Life Expectancy [in years] -->
     <defs>
      <path d="M 9.8125 72.90625 
L 19.671875 72.90625 
L 19.671875 8.296875 
L 55.171875 8.296875 
L 55.171875 0 
L 9.8125 0 
z
" id="DejaVuSans-4c"/>
      <path d="M 37.109375 75.984375 
L 37.109375 68.5 
L 28.515625 68.5 
Q 23.6875 68.5 21.796875 66.546875 
Q 19.921875 64.59375 19.921875 59.515625 
L 19.921875 54.6875 
L 34.71875 54.6875 
L 34.71875 47.703125 
L 19.921875 47.703125 
L 19.921875 0 
L 10.890625 0 
L 10.890625 47.703125 
L 2.296875 47.703125 
L 2.296875 54.6875 
L 10.890625 54.6875 
L 10.890625 58.5 
Q 10.890625 67.625 15.140625 71.796875 
Q 19.390625 75.984375 28.609375 75.984375 
z
" id="DejaVuSans-66"/>
      <path d="M 9.8125 72.90625 
L 55.90625 72.90625 
L 55.90625 64.59375 
L 19.671875 64.59375 
L 19.671875 43.015625 
L 54.390625 43.015625 
L 54.390625 34.71875 
L 19.671875 34.71875 
L 19.671875 8.296875 
L 56.78125 8.296875 
L 56.78125 0 
L 9.8125 0 
z
" id="DejaVuSans-45"/>
      <path d="M 54.890625 54.6875 
L 35.109375 28.078125 
L 55.90625 0 
L 45.3125 0 
L 29.390625 21.484375 
L 13.484375 0 
L 2.875 0 
L 24.125 28.609375 
L 4.6875 54.6875 
L 15.28125 54.6875 
L 29.78125 35.203125 
L 44.28125 54.6875 
z
" id="DejaVuSans-78"/>
      <path d="M 48.78125 52.59375 
L 48.78125 44.1875 
Q 44.96875 46.296875 41.140625 47.34375 
Q 37.3125 48.390625 33.40625 48.390625 
Q 24.65625 48.390625 19.8125 42.84375 
Q 14.984375 37.3125 14.984375 27.296875 
Q 14.984375 17.28125 19.8125 11.734375 
Q 24.65625 6.203125 33.40625 6.203125 
Q 37.3125 6.203125 41.140625 7.25 
Q 44.96875 8.296875 48.78125 10.40625 
L 48.78125 2.09375 
Q 45.015625 0.34375 40.984375 -0.53125 
Q 36.96875 -1.421875 32.421875 -1.421875 
Q 20.0625 -1.421875 12.78125 6.34375 
Q 5.515625 14.109375 5.515625 27.296875 
Q 5.515625 40.671875 12.859375 48.328125 
Q 20.21875 56 33.015625 56 
Q 37.15625 56 41.109375 55.140625 
Q 45.0625 54.296875 48.78125 52.59375 
z
" id="DejaVuSans-63"/>
      <path d="M 32.171875 -5.078125 
Q 28.375 -14.84375 24.75 -17.8125 
Q 21.140625 -20.796875 15.09375 -20.796875 
L 7.90625 -20.796875 
L 7.90625 -13.28125 
L 13.1875 -13.28125 
Q 16.890625 -13.28125 18.9375 -11.515625 
Q 21 -9.765625 23.484375 -3.21875 
L 25.09375 0.875 
L 2.984375 54.6875 
L 12.5 54.6875 
L 29.59375 11.921875 
L 46.6875 54.6875 
L 56.203125 54.6875 
z
" id="DejaVuSans-79"/>
      <path d="M 44.28125 53.078125 
L 44.28125 44.578125 
Q 40.484375 46.53125 36.375 47.5 
Q 32.28125 48.484375 27.875 48.484375 
Q 21.1875 48.484375 17.84375 46.4375 
Q 14.5 44.390625 14.5 40.28125 
Q 14.5 37.15625 16.890625 35.375 
Q 19.28125 33.59375 26.515625 31.984375 
L 29.59375 31.296875 
Q 39.15625 29.25 43.1875 25.515625 
Q 47.21875 21.78125 47.21875 15.09375 
Q 47.21875 7.46875 41.1875 3.015625 
Q 35.15625 -1.421875 24.609375 -1.421875 
Q 20.21875 -1.421875 15.453125 -0.5625 
Q 10.6875 0.296875 5.421875 2 
L 5.421875 11.28125 
Q 10.40625 8.6875 15.234375 7.390625 
Q 20.0625 6.109375 24.8125 6.109375 
Q 31.15625 6.109375 34.5625 8.28125 
Q 37.984375 10.453125 37.984375 14.40625 
Q 37.984375 18.0625 35.515625 20.015625 
Q 33.0625 21.96875 24.703125 23.78125 
L 21.578125 24.515625 
Q 13.234375 26.265625 9.515625 29.90625 
Q 5.8125 33.546875 5.8125 39.890625 
Q 5.8125 47.609375 11.28125 51.796875 
Q 16.75 56 26.8125 56 
Q 31.78125 56 36.171875 55.265625 
Q 40.578125 54.546875 44.28125 53.078125 
z
" id="DejaVuSans-73"/>
     </defs>
     <g transform="translate(18.398438 260.899688)rotate(-90)scale(0.1 -0.1)">
      <use xlink:href="#DejaVuSans-4c"/>
      <use x="55.712891" xlink:href="#DejaVuSans-69"/>
      <use x="83.496094" xlink:href="#DejaVuSans-66"/>
      <use x="118.701172" xlink:href="#DejaVuSans-65"/>
      <use x="180.224609" xlink:href="#DejaVuSans-20"/>
      <use x="212.011719" xlink:href="#DejaVuSans-45"/>
      <use x="275.195312" xlink:href="#DejaVuSans-78"/>
      <use x="334.375" xlink:href="#DejaVuSans-70"/>
      <use x="397.851562" xlink:href="#DejaVuSans-65"/>
      <use x="459.375" xlink:href="#DejaVuSans-63"/>
      <use x="514.355469" xlink:href="#DejaVuSans-74"/>
      <use x="553.564453" xlink:href="#DejaVuSans-61"/>
      <use x="614.84375" xlink:href="#DejaVuSans-6e"/>
      <use x="678.222656" xlink:href="#DejaVuSans-63"/>
      <use x="733.203125" xlink:href="#DejaVuSans-79"/>
      <use x="792.382812" xlink:href="#DejaVuSans-20"/>
      <use x="824.169922" xlink:href="#DejaVuSans-5b"/>
      <use x="863.183594" xlink:href="#DejaVuSans-69"/>
      <use x="890.966797" xlink:href="#DejaVuSans-6e"/>
      <use x="954.345703" xlink:href="#DejaVuSans-20"/>
      <use x="986.132812" xlink:href="#DejaVuSans-79"/>
      <use x="1045.3125" xlink:href="#DejaVuSans-65"/>
      <use x="1106.835938" xlink:href="#DejaVuSans-61"/>
      <use x="1168.115234" xlink:href="#DejaVuSans-72"/>
      <use x="1209.228516" xlink:href="#DejaVuSans-73"/>
      <use x="1261.328125" xlink:href="#DejaVuSans-5d"/>
     </g>
    </g>
   </g>
   <g id="patch_3">
    <path d="M 44.203125 365.84375 
L 44.203125 25.918125 
" style="fill:none;stroke:#000000;stroke-linecap:square;stroke-linejoin:miter;stroke-width:0.8;"/>
   </g>
   <g id="patch_4">
    <path d="M 626.7 365.84375 
L 626.7 25.918125 
" style="fill:none;stroke:#000000;stroke-linecap:square;stroke-linejoin:miter;stroke-width:0.8;"/>
   </g>
   <g id="patch_5">
    <path d="M 44.203125 365.84375 
L 626.7 365.84375 
" style="fill:none;stroke:#000000;stroke-linecap:square;stroke-linejoin:miter;stroke-width:0.8;"/>
   </g>
   <g id="patch_6">
    <path d="M 44.203125 25.918125 
L 626.7 25.918125 
" style="fill:none;stroke:#000000;stroke-linecap:square;stroke-linejoin:miter;stroke-width:0.8;"/>
   </g>
   <g id="text_10">
    <!-- World Development in 2007 -->
    <defs>
     <path d="M 3.328125 72.90625 
L 13.28125 72.90625 
L 28.609375 11.28125 
L 43.890625 72.90625 
L 54.984375 72.90625 
L 70.3125 11.28125 
L 85.59375 72.90625 
L 95.609375 72.90625 
L 77.296875 0 
L 64.890625 0 
L 49.515625 63.28125 
L 33.984375 0 
L 21.578125 0 
z
" id="DejaVuSans-57"/>
     <path d="M 30.609375 48.390625 
Q 23.390625 48.390625 19.1875 42.75 
Q 14.984375 37.109375 14.984375 27.296875 
Q 14.984375 17.484375 19.15625 11.84375 
Q 23.34375 6.203125 30.609375 6.203125 
Q 37.796875 6.203125 41.984375 11.859375 
Q 46.1875 17.53125 46.1875 27.296875 
Q 46.1875 37.015625 41.984375 42.703125 
Q 37.796875 48.390625 30.609375 48.390625 
z
M 30.609375 56 
Q 42.328125 56 49.015625 48.375 
Q 55.71875 40.765625 55.71875 27.296875 
Q 55.71875 13.875 49.015625 6.21875 
Q 42.328125 -1.421875 30.609375 -1.421875 
Q 18.84375 -1.421875 12.171875 6.21875 
Q 5.515625 13.875 5.515625 27.296875 
Q 5.515625 40.765625 12.171875 48.375 
Q 18.84375 56 30.609375 56 
z
" id="DejaVuSans-6f"/>
     <path d="M 9.421875 75.984375 
L 18.40625 75.984375 
L 18.40625 0 
L 9.421875 0 
z
" id="DejaVuSans-6c"/>
     <path d="M 45.40625 46.390625 
L 45.40625 75.984375 
L 54.390625 75.984375 
L 54.390625 0 
L 45.40625 0 
L 45.40625 8.203125 
Q 42.578125 3.328125 38.25 0.953125 
Q 33.9375 -1.421875 27.875 -1.421875 
Q 17.96875 -1.421875 11.734375 6.484375 
Q 5.515625 14.40625 5.515625 27.296875 
Q 5.515625 40.1875 11.734375 48.09375 
Q 17.96875 56 27.875 56 
Q 33.9375 56 38.25 53.625 
Q 42.578125 51.265625 45.40625 46.390625 
z
M 14.796875 27.296875 
Q 14.796875 17.390625 18.875 11.75 
Q 22.953125 6.109375 30.078125 6.109375 
Q 37.203125 6.109375 41.296875 11.75 
Q 45.40625 17.390625 45.40625 27.296875 
Q 45.40625 37.203125 41.296875 42.84375 
Q 37.203125 48.484375 30.078125 48.484375 
Q 22.953125 48.484375 18.875 42.84375 
Q 14.796875 37.203125 14.796875 27.296875 
z
" id="DejaVuSans-64"/>
     <path d="M 2.984375 54.6875 
L 12.5 54.6875 
L 29.59375 8.796875 
L 46.6875 54.6875 
L 56.203125 54.6875 
L 35.6875 0 
L 23.484375 0 
z
" id="DejaVuSans-76"/>
     <path d="M 52 44.1875 
Q 55.375 50.25 60.0625 53.125 
Q 64.75 56 71.09375 56 
Q 79.640625 56 84.28125 50.015625 
Q 88.921875 44.046875 88.921875 33.015625 
L 88.921875 0 
L 79.890625 0 
L 79.890625 32.71875 
Q 79.890625 40.578125 77.09375 44.375 
Q 74.3125 48.1875 68.609375 48.1875 
Q 61.625 48.1875 57.5625 43.546875 
Q 53.515625 38.921875 53.515625 30.90625 
L 53.515625 0 
L 44.484375 0 
L 44.484375 32.71875 
Q 44.484375 40.625 41.703125 44.40625 
Q 38.921875 48.1875 33.109375 48.1875 
Q 26.21875 48.1875 22.15625 43.53125 
Q 18.109375 38.875 18.109375 30.90625 
L 18.109375 0 
L 9.078125 0 
L 9.078125 54.6875 
L 18.109375 54.6875 
L 18.109375 46.1875 
Q 21.1875 51.21875 25.484375 53.609375 
Q 29.78125 56 35.6875 56 
Q 41.65625 56 45.828125 52.96875 
Q 50 49.953125 52 44.1875 
z
" id="DejaVuSans-6d"/>
     <path d="M 19.1875 8.296875 
L 53.609375 8.296875 
L 53.609375 0 
L 7.328125 0 
L 7.328125 8.296875 
Q 12.9375 14.109375 22.625 23.890625 
Q 32.328125 33.6875 34.8125 36.53125 
Q 39.546875 41.84375 41.421875 45.53125 
Q 43.3125 49.21875 43.3125 52.78125 
Q 43.3125 58.59375 39.234375 62.25 
Q 35.15625 65.921875 28.609375 65.921875 
Q 23.96875 65.921875 18.8125 64.3125 
Q 13.671875 62.703125 7.8125 59.421875 
L 7.8125 69.390625 
Q 13.765625 71.78125 18.9375 73 
Q 24.125 74.21875 28.421875 74.21875 
Q 39.75 74.21875 46.484375 68.546875 
Q 53.21875 62.890625 53.21875 53.421875 
Q 53.21875 48.921875 51.53125 44.890625 
Q 49.859375 40.875 45.40625 35.40625 
Q 44.1875 33.984375 37.640625 27.21875 
Q 31.109375 20.453125 19.1875 8.296875 
z
" id="DejaVuSans-32"/>
    </defs>
    <g transform="translate(251.056875 19.918125)scale(0.12 -0.12)">
     <use xlink:href="#DejaVuSans-57"/>
     <use x="98.798828" xlink:href="#DejaVuSans-6f"/>
     <use x="159.980469" xlink:href="#DejaVuSans-72"/>
     <use x="201.09375" xlink:href="#DejaVuSans-6c"/>
     <use x="228.876953" xlink:href="#DejaVuSans-64"/>
     <use x="292.353516" xlink:href="#DejaVuSans-20"/>
     <use x="324.140625" xlink:href="#DejaVuSans-44"/>
     <use x="401.142578" xlink:href="#DejaVuSans-65"/>
     <use x="462.666016" xlink:href="#DejaVuSans-76"/>
     <use x="521.845703" xlink:href="#DejaVuSans-65"/>
     <use x="583.369141" xlink:href="#DejaVuSans-6c"/>
     <use x="611.152344" xlink:href="#DejaVuSans-6f"/>
     <use x="672.333984" xlink:href="#DejaVuSans-70"/>
     <use x="735.810547" xlink:href="#DejaVuSans-6d"/>
     <use x="833.222656" xlink:href="#DejaVuSans-65"/>
     <use x="894.746094" xlink:href="#DejaVuSans-6e"/>
     <use x="958.125" xlink:href="#DejaVuSans-74"/>
     <use x="997.333984" xlink:href="#DejaVuSans-20"/>
     <use x="1029.121094" xlink:href="#DejaVuSans-69"/>
     <use x="1056.904297" xlink:href="#DejaVuSans-6e"/>
     <use x="1120.283203" xlink:href="#DejaVuSans-20"/>
     <use x="1152.070312" xlink:href="#DejaVuSans-32"/>
     <use x="1215.693359" xlink:href="#DejaVuSans-30"/>
     <use x="1279.316406" xlink:href="#DejaVuSans-30"/>
     <use x="1342.939453" xlink:href="#DejaVuSans-37"/>
    </g>
   </g>
  </g>
 </g>
 <defs>
  <clipPath id="pc447c42b82">
   <rect height="339.925625" width="582.496875" x="44.203125" y="25.918125"/>
  </clipPath>
 </defs>
</svg>
