<?xml version="1.0" encoding="utf-8" standalone="no"?>
<!DOCTYPE svg PUBLIC "-//W3C//DTD SVG 1.1//EN"
  "http://www.w3.org/Graphics/SVG/1.1/DTD/svg11.dtd">
<!-- Created with matplotlib (http://matplotlib.org/) -->
<svg height="407pt" version="1.1" viewBox="0 0 641 407" width="641pt" xmlns="http://www.w3.org/2000/svg" xmlns:xlink="http://www.w3.org/1999/xlink">
 <defs>
  <style type="text/css">
*{stroke-linecap:butt;stroke-linejoin:round;}
  </style>
 </defs>
 <g id="figure_1">
  <g id="patch_1">
   <path d="M 0 407 
L 641 407 
L 641 0 
L 0 0 
z
" style="fill:#ffffff;"/>
  </g>
  <g id="axes_1">
   <g id="patch_2">
    <path d="M 36.8875 379.521875 
L 626.7 379.521875 
L 626.7 14.3 
L 36.8875 14.3 
z
" style="fill:#ffffff;"/>
   </g>
   <g id="matplotlib.axis_1">
    <g id="xtick_1">
     <g id="line2d_1">
      <defs>
       <path d="M 0 0 
L 0 3.5 
" id="m451ec0cffc" style="stroke:#000000;stroke-width:0.8;"/>
      </defs>
      <g>
       <use style="stroke:#000000;stroke-width:0.8;" x="63.697159" xlink:href="#m451ec0cffc" y="379.521875"/>
      </g>
     </g>
     <g id="text_1">
      <!-- 0 -->
      <defs>
       <path d="M 31.78125 66.40625 
Q 24.171875 66.40625 20.328125 58.90625 
Q 16.5 51.421875 16.5 36.375 
Q 16.5 21.390625 20.328125 13.890625 
Q 24.171875 6.390625 31.78125 6.390625 
Q 39.453125 6.390625 43.28125 13.890625 
Q 47.125 21.390625 47.125 36.375 
Q 47.125 51.421875 43.28125 58.90625 
Q 39.453125 66.40625 31.78125 66.40625 
z
M 31.78125 74.21875 
Q 44.046875 74.21875 50.515625 64.515625 
Q 56.984375 54.828125 56.984375 36.375 
Q 56.984375 17.96875 50.515625 8.265625 
Q 44.046875 -1.421875 31.78125 -1.421875 
Q 19.53125 -1.421875 13.0625 8.265625 
Q 6.59375 17.96875 6.59375 36.375 
Q 6.59375 54.828125 13.0625 64.515625 
Q 19.53125 74.21875 31.78125 74.21875 
z
" id="DejaVuSans-30"/>
      </defs>
      <g transform="translate(60.515909 394.120313)scale(0.1 -0.1)">
       <use xlink:href="#DejaVuSans-30"/>
      </g>
     </g>
    </g>
    <g id="xtick_2">
     <g id="line2d_2">
      <g>
       <use style="stroke:#000000;stroke-width:0.8;" x="182.851199" xlink:href="#m451ec0cffc" y="379.521875"/>
      </g>
     </g>
     <g id="text_2">
      <!-- 2 -->
      <defs>
       <path d="M 19.1875 8.296875 
L 53.609375 8.296875 
L 53.609375 0 
L 7.328125 0 
L 7.328125 8.296875 
Q 12.9375 14.109375 22.625 23.890625 
Q 32.328125 33.6875 34.8125 36.53125 
Q 39.546875 41.84375 41.421875 45.53125 
Q 43.3125 49.21875 43.3125 52.78125 
Q 43.3125 58.59375 39.234375 62.25 
Q 35.15625 65.921875 28.609375 65.921875 
Q 23.96875 65.921875 18.8125 64.3125 
Q 13.671875 62.703125 7.8125 59.421875 
L 7.8125 69.390625 
Q 13.765625 71.78125 18.9375 73 
Q 24.125 74.21875 28.421875 74.21875 
Q 39.75 74.21875 46.484375 68.546875 
Q 53.21875 62.890625 53.21875 53.421875 
Q 53.21875 48.921875 51.53125 44.890625 
Q 49.859375 40.875 45.40625 35.40625 
Q 44.1875 33.984375 37.640625 27.21875 
Q 31.109375 20.453125 19.1875 8.296875 
z
" id="DejaVuSans-32"/>
      </defs>
      <g transform="translate(179.669949 394.120313)scale(0.1 -0.1)">
       <use xlink:href="#DejaVuSans-32"/>
      </g>
     </g>
    </g>
    <g id="xtick_3">
     <g id="line2d_3">
      <g>
       <use style="stroke:#000000;stroke-width:0.8;" x="302.00524" xlink:href="#m451ec0cffc" y="379.521875"/>
      </g>
     </g>
     <g id="text_3">
      <!-- 4 -->
      <defs>
       <path d="M 37.796875 64.3125 
L 12.890625 25.390625 
L 37.796875 25.390625 
z
M 35.203125 72.90625 
L 47.609375 72.90625 
L 47.609375 25.390625 
L 58.015625 25.390625 
L 58.015625 17.1875 
L 47.609375 17.1875 
L 47.609375 0 
L 37.796875 0 
L 37.796875 17.1875 
L 4.890625 17.1875 
L 4.890625 26.703125 
z
" id="DejaVuSans-34"/>
      </defs>
      <g transform="translate(298.82399 394.120313)scale(0.1 -0.1)">
       <use xlink:href="#DejaVuSans-34"/>
      </g>
     </g>
    </g>
    <g id="xtick_4">
     <g id="line2d_4">
      <g>
       <use style="stroke:#000000;stroke-width:0.8;" x="421.15928" xlink:href="#m451ec0cffc" y="379.521875"/>
      </g>
     </g>
     <g id="text_4">
      <!-- 6 -->
      <defs>
       <path d="M 33.015625 40.375 
Q 26.375 40.375 22.484375 35.828125 
Q 18.609375 31.296875 18.609375 23.390625 
Q 18.609375 15.53125 22.484375 10.953125 
Q 26.375 6.390625 33.015625 6.390625 
Q 39.65625 6.390625 43.53125 10.953125 
Q 47.40625 15.53125 47.40625 23.390625 
Q 47.40625 31.296875 43.53125 35.828125 
Q 39.65625 40.375 33.015625 40.375 
z
M 52.59375 71.296875 
L 52.59375 62.3125 
Q 48.875 64.0625 45.09375 64.984375 
Q 41.3125 65.921875 37.59375 65.921875 
Q 27.828125 65.921875 22.671875 59.328125 
Q 17.53125 52.734375 16.796875 39.40625 
Q 19.671875 43.65625 24.015625 45.921875 
Q 28.375 48.1875 33.59375 48.1875 
Q 44.578125 48.1875 50.953125 41.515625 
Q 57.328125 34.859375 57.328125 23.390625 
Q 57.328125 12.15625 50.6875 5.359375 
Q 44.046875 -1.421875 33.015625 -1.421875 
Q 20.359375 -1.421875 13.671875 8.265625 
Q 6.984375 17.96875 6.984375 36.375 
Q 6.984375 53.65625 15.1875 63.9375 
Q 23.390625 74.21875 37.203125 74.21875 
Q 40.921875 74.21875 44.703125 73.484375 
Q 48.484375 72.75 52.59375 71.296875 
z
" id="DejaVuSans-36"/>
      </defs>
      <g transform="translate(417.97803 394.120313)scale(0.1 -0.1)">
       <use xlink:href="#DejaVuSans-36"/>
      </g>
     </g>
    </g>
    <g id="xtick_5">
     <g id="line2d_5">
      <g>
       <use style="stroke:#000000;stroke-width:0.8;" x="540.313321" xlink:href="#m451ec0cffc" y="379.521875"/>
      </g>
     </g>
     <g id="text_5">
      <!-- 8 -->
      <defs>
       <path d="M 31.78125 34.625 
Q 24.75 34.625 20.71875 30.859375 
Q 16.703125 27.09375 16.703125 20.515625 
Q 16.703125 13.921875 20.71875 10.15625 
Q 24.75 6.390625 31.78125 6.390625 
Q 38.8125 6.390625 42.859375 10.171875 
Q 46.921875 13.96875 46.921875 20.515625 
Q 46.921875 27.09375 42.890625 30.859375 
Q 38.875 34.625 31.78125 34.625 
z
M 21.921875 38.8125 
Q 15.578125 40.375 12.03125 44.71875 
Q 8.5 49.078125 8.5 55.328125 
Q 8.5 64.0625 14.71875 69.140625 
Q 20.953125 74.21875 31.78125 74.21875 
Q 42.671875 74.21875 48.875 69.140625 
Q 55.078125 64.0625 55.078125 55.328125 
Q 55.078125 49.078125 51.53125 44.71875 
Q 48 40.375 41.703125 38.8125 
Q 48.828125 37.15625 52.796875 32.3125 
Q 56.78125 27.484375 56.78125 20.515625 
Q 56.78125 9.90625 50.3125 4.234375 
Q 43.84375 -1.421875 31.78125 -1.421875 
Q 19.734375 -1.421875 13.25 4.234375 
Q 6.78125 9.90625 6.78125 20.515625 
Q 6.78125 27.484375 10.78125 32.3125 
Q 14.796875 37.15625 21.921875 38.8125 
z
M 18.3125 54.390625 
Q 18.3125 48.734375 21.84375 45.5625 
Q 25.390625 42.390625 31.78125 42.390625 
Q 38.140625 42.390625 41.71875 45.5625 
Q 45.3125 48.734375 45.3125 54.390625 
Q 45.3125 60.0625 41.71875 63.234375 
Q 38.140625 66.40625 31.78125 66.40625 
Q 25.390625 66.40625 21.84375 63.234375 
Q 18.3125 60.0625 18.3125 54.390625 
z
" id="DejaVuSans-38"/>
      </defs>
      <g transform="translate(537.132071 394.120313)scale(0.1 -0.1)">
       <use xlink:href="#DejaVuSans-38"/>
      </g>
     </g>
    </g>
   </g>
   <g id="matplotlib.axis_2">
    <g id="ytick_1">
     <g id="line2d_6">
      <defs>
       <path d="M 0 0 
L -3.5 0 
" id="mc80d418ec1" style="stroke:#000000;stroke-width:0.8;"/>
      </defs>
      <g>
       <use style="stroke:#000000;stroke-width:0.8;" x="36.8875" xlink:href="#mc80d418ec1" y="362.920881"/>
      </g>
     </g>
     <g id="text_6">
      <!-- 0 -->
      <g transform="translate(23.525 366.720099)scale(0.1 -0.1)">
       <use xlink:href="#DejaVuSans-30"/>
      </g>
     </g>
    </g>
    <g id="ytick_2">
     <g id="line2d_7">
      <g>
       <use style="stroke:#000000;stroke-width:0.8;" x="36.8875" xlink:href="#mc80d418ec1" y="300.861089"/>
      </g>
     </g>
     <g id="text_7">
      <!-- 20 -->
      <g transform="translate(17.1625 304.660308)scale(0.1 -0.1)">
       <use xlink:href="#DejaVuSans-32"/>
       <use x="63.623047" xlink:href="#DejaVuSans-30"/>
      </g>
     </g>
    </g>
    <g id="ytick_3">
     <g id="line2d_8">
      <g>
       <use style="stroke:#000000;stroke-width:0.8;" x="36.8875" xlink:href="#mc80d418ec1" y="238.801297"/>
      </g>
     </g>
     <g id="text_8">
      <!-- 40 -->
      <g transform="translate(17.1625 242.600516)scale(0.1 -0.1)">
       <use xlink:href="#DejaVuSans-34"/>
       <use x="63.623047" xlink:href="#DejaVuSans-30"/>
      </g>
     </g>
    </g>
    <g id="ytick_4">
     <g id="line2d_9">
      <g>
       <use style="stroke:#000000;stroke-width:0.8;" x="36.8875" xlink:href="#mc80d418ec1" y="176.741505"/>
      </g>
     </g>
     <g id="text_9">
      <!-- 60 -->
      <g transform="translate(17.1625 180.540724)scale(0.1 -0.1)">
       <use xlink:href="#DejaVuSans-36"/>
       <use x="63.623047" xlink:href="#DejaVuSans-30"/>
      </g>
     </g>
    </g>
    <g id="ytick_5">
     <g id="line2d_10">
      <g>
       <use style="stroke:#000000;stroke-width:0.8;" x="36.8875" xlink:href="#mc80d418ec1" y="114.681713"/>
      </g>
     </g>
     <g id="text_10">
      <!-- 80 -->
      <g transform="translate(17.1625 118.480932)scale(0.1 -0.1)">
       <use xlink:href="#DejaVuSans-38"/>
       <use x="63.623047" xlink:href="#DejaVuSans-30"/>
      </g>
     </g>
    </g>
    <g id="ytick_6">
     <g id="line2d_11">
      <g>
       <use style="stroke:#000000;stroke-width:0.8;" x="36.8875" xlink:href="#mc80d418ec1" y="52.621921"/>
      </g>
     </g>
     <g id="text_11">
      <!-- 100 -->
      <defs>
       <path d="M 12.40625 8.296875 
L 28.515625 8.296875 
L 28.515625 63.921875 
L 10.984375 60.40625 
L 10.984375 69.390625 
L 28.421875 72.90625 
L 38.28125 72.90625 
L 38.28125 8.296875 
L 54.390625 8.296875 
L 54.390625 0 
L 12.40625 0 
z
" id="DejaVuSans-31"/>
      </defs>
      <g transform="translate(10.8 56.42114)scale(0.1 -0.1)">
       <use xlink:href="#DejaVuSans-31"/>
       <use x="63.623047" xlink:href="#DejaVuSans-30"/>
       <use x="127.246094" xlink:href="#DejaVuSans-30"/>
      </g>
     </g>
    </g>
   </g>
   <g id="line2d_12">
    <path clip-path="url(#p791eb841c3)" d="M 63.697159 362.920881 
L 123.274179 362.920881 
L 182.851199 362.920881 
L 242.42822 362.920881 
L 302.00524 362.920881 
L 361.58226 362.920881 
L 421.15928 362.920881 
L 480.736301 362.920881 
L 540.313321 362.920881 
L 599.890341 362.920881 
" style="fill:none;stroke:#1f77b4;stroke-linecap:square;stroke-width:1.5;"/>
   </g>
   <g id="line2d_13">
    <path clip-path="url(#p791eb841c3)" d="M 63.697159 353.611912 
L 123.274179 350.508922 
L 182.851199 356.714901 
L 242.42822 344.302943 
L 302.00524 344.302943 
L 361.58226 362.920881 
L 421.15928 362.920881 
L 480.736301 362.920881 
L 540.313321 359.817891 
L 599.890341 359.817891 
" style="fill:none;stroke:#ff7f0e;stroke-linecap:square;stroke-width:1.5;"/>
   </g>
   <g id="line2d_14">
    <path clip-path="url(#p791eb841c3)" d="M 63.697159 350.508922 
L 123.274179 353.611912 
L 182.851199 359.817891 
L 242.42822 347.405933 
L 302.00524 347.405933 
L 361.58226 362.920881 
L 421.15928 362.920881 
L 480.736301 359.817891 
L 540.313321 362.920881 
L 599.890341 356.714901 
" style="fill:none;stroke:#2ca02c;stroke-linecap:square;stroke-width:1.5;"/>
   </g>
   <g id="line2d_15">
    <path clip-path="url(#p791eb841c3)" d="M 63.697159 347.405933 
L 123.274179 356.714901 
L 182.851199 356.714901 
L 242.42822 344.302943 
L 302.00524 344.302943 
L 361.58226 359.817891 
L 421.15928 359.817891 
L 480.736301 356.714901 
L 540.313321 359.817891 
L 599.890341 353.611912 
" style="fill:none;stroke:#d62728;stroke-linecap:square;stroke-width:1.5;"/>
   </g>
   <g id="line2d_16">
    <path clip-path="url(#p791eb841c3)" d="M 63.697159 350.508922 
L 123.274179 350.508922 
L 182.851199 353.611912 
L 242.42822 341.199954 
L 302.00524 347.405933 
L 361.58226 341.199954 
L 421.15928 362.920881 
L 480.736301 359.817891 
L 540.313321 356.714901 
L 599.890341 350.508922 
" style="fill:none;stroke:#9467bd;stroke-linecap:square;stroke-width:1.5;"/>
   </g>
   <g id="line2d_17">
    <path clip-path="url(#p791eb841c3)" d="M 63.697159 347.405933 
L 123.274179 353.611912 
L 182.851199 344.302943 
L 242.42822 338.096964 
L 302.00524 350.508922 
L 361.58226 338.096964 
L 421.15928 362.920881 
L 480.736301 356.714901 
L 540.313321 359.817891 
L 599.890341 347.405933 
" style="fill:none;stroke:#8c564b;stroke-linecap:square;stroke-width:1.5;"/>
   </g>
   <g id="line2d_18">
    <path clip-path="url(#p791eb841c3)" d="M 63.697159 344.302943 
L 123.274179 350.508922 
L 182.851199 347.405933 
L 242.42822 334.993974 
L 302.00524 347.405933 
L 361.58226 328.787995 
L 421.15928 350.508922 
L 480.736301 353.611912 
L 540.313321 362.920881 
L 599.890341 350.508922 
" style="fill:none;stroke:#e377c2;stroke-linecap:square;stroke-width:1.5;"/>
   </g>
   <g id="line2d_19">
    <path clip-path="url(#p791eb841c3)" d="M 63.697159 341.199954 
L 123.274179 344.302943 
L 182.851199 344.302943 
L 242.42822 331.890985 
L 302.00524 334.993974 
L 361.58226 325.685006 
L 421.15928 347.405933 
L 480.736301 334.993974 
L 540.313321 362.920881 
L 599.890341 353.611912 
" style="fill:none;stroke:#7f7f7f;stroke-linecap:square;stroke-width:1.5;"/>
   </g>
   <g id="line2d_20">
    <path clip-path="url(#p791eb841c3)" d="M 63.697159 344.302943 
L 123.274179 341.199954 
L 182.851199 347.405933 
L 242.42822 328.787995 
L 302.00524 331.890985 
L 361.58226 307.067068 
L 421.15928 341.199954 
L 480.736301 331.890985 
L 540.313321 359.817891 
L 599.890341 344.302943 
" style="fill:none;stroke:#bcbd22;stroke-linecap:square;stroke-width:1.5;"/>
   </g>
   <g id="line2d_21">
    <path clip-path="url(#p791eb841c3)" d="M 63.697159 347.405933 
L 123.274179 338.096964 
L 182.851199 344.302943 
L 242.42822 325.685006 
L 302.00524 328.787995 
L 361.58226 303.964078 
L 421.15928 328.787995 
L 480.736301 328.787995 
L 540.313321 356.714901 
L 599.890341 347.405933 
" style="fill:none;stroke:#17becf;stroke-linecap:square;stroke-width:1.5;"/>
   </g>
   <g id="line2d_22">
    <path clip-path="url(#p791eb841c3)" d="M 63.697159 350.508922 
L 123.274179 322.582016 
L 182.851199 341.199954 
L 242.42822 322.582016 
L 302.00524 325.685006 
L 361.58226 300.861089 
L 421.15928 310.170058 
L 480.736301 325.685006 
L 540.313321 353.611912 
L 599.890341 350.508922 
" style="fill:none;stroke:#1f77b4;stroke-linecap:square;stroke-width:1.5;"/>
   </g>
   <g id="line2d_23">
    <path clip-path="url(#p791eb841c3)" d="M 63.697159 353.611912 
L 123.274179 325.685006 
L 182.851199 338.096964 
L 242.42822 325.685006 
L 302.00524 322.582016 
L 361.58226 282.243151 
L 421.15928 313.273047 
L 480.736301 328.787995 
L 540.313321 350.508922 
L 599.890341 353.611912 
" style="fill:none;stroke:#ff7f0e;stroke-linecap:square;stroke-width:1.5;"/>
   </g>
   <g id="line2d_24">
    <path clip-path="url(#p791eb841c3)" d="M 63.697159 356.714901 
L 123.274179 322.582016 
L 182.851199 341.199954 
L 242.42822 322.582016 
L 302.00524 325.685006 
L 361.58226 285.346141 
L 421.15928 316.376037 
L 480.736301 322.582016 
L 540.313321 347.405933 
L 599.890341 356.714901 
" style="fill:none;stroke:#2ca02c;stroke-linecap:square;stroke-width:1.5;"/>
   </g>
   <g id="line2d_25">
    <path clip-path="url(#p791eb841c3)" d="M 63.697159 359.817891 
L 123.274179 319.479026 
L 182.851199 338.096964 
L 242.42822 325.685006 
L 302.00524 328.787995 
L 361.58226 266.728203 
L 421.15928 313.273047 
L 480.736301 319.479026 
L 540.313321 331.890985 
L 599.890341 353.611912 
" style="fill:none;stroke:#d62728;stroke-linecap:square;stroke-width:1.5;"/>
   </g>
   <g id="line2d_26">
    <path clip-path="url(#p791eb841c3)" d="M 63.697159 362.920881 
L 123.274179 316.376037 
L 182.851199 341.199954 
L 242.42822 328.787995 
L 302.00524 331.890985 
L 361.58226 269.831193 
L 421.15928 310.170058 
L 480.736301 316.376037 
L 540.313321 319.479026 
L 599.890341 334.993974 
" style="fill:none;stroke:#9467bd;stroke-linecap:square;stroke-width:1.5;"/>
   </g>
   <g id="line2d_27">
    <path clip-path="url(#p791eb841c3)" d="M 63.697159 362.920881 
L 123.274179 313.273047 
L 182.851199 338.096964 
L 242.42822 325.685006 
L 302.00524 334.993974 
L 361.58226 266.728203 
L 421.15928 307.067068 
L 480.736301 313.273047 
L 540.313321 322.582016 
L 599.890341 331.890985 
" style="fill:none;stroke:#8c564b;stroke-linecap:square;stroke-width:1.5;"/>
   </g>
   <g id="line2d_28">
    <path clip-path="url(#p791eb841c3)" d="M 63.697159 359.817891 
L 123.274179 310.170058 
L 182.851199 334.993974 
L 242.42822 328.787995 
L 302.00524 338.096964 
L 361.58226 263.625214 
L 421.15928 310.170058 
L 480.736301 316.376037 
L 540.313321 319.479026 
L 599.890341 334.993974 
" style="fill:none;stroke:#e377c2;stroke-linecap:square;stroke-width:1.5;"/>
   </g>
   <g id="line2d_29">
    <path clip-path="url(#p791eb841c3)" d="M 63.697159 344.302943 
L 123.274179 313.273047 
L 182.851199 328.787995 
L 242.42822 325.685006 
L 302.00524 334.993974 
L 361.58226 260.522224 
L 421.15928 307.067068 
L 480.736301 313.273047 
L 540.313321 322.582016 
L 599.890341 331.890985 
" style="fill:none;stroke:#7f7f7f;stroke-linecap:square;stroke-width:1.5;"/>
   </g>
   <g id="line2d_30">
    <path clip-path="url(#p791eb841c3)" d="M 63.697159 347.405933 
L 123.274179 297.758099 
L 182.851199 331.890985 
L 242.42822 328.787995 
L 302.00524 331.890985 
L 361.58226 263.625214 
L 421.15928 310.170058 
L 480.736301 310.170058 
L 540.313321 325.685006 
L 599.890341 328.787995 
" style="fill:none;stroke:#bcbd22;stroke-linecap:square;stroke-width:1.5;"/>
   </g>
   <g id="line2d_31">
    <path clip-path="url(#p791eb841c3)" d="M 63.697159 350.508922 
L 123.274179 294.65511 
L 182.851199 334.993974 
L 242.42822 325.685006 
L 302.00524 328.787995 
L 361.58226 245.007276 
L 421.15928 307.067068 
L 480.736301 307.067068 
L 540.313321 328.787995 
L 599.890341 331.890985 
" style="fill:none;stroke:#17becf;stroke-linecap:square;stroke-width:1.5;"/>
   </g>
   <g id="line2d_32">
    <path clip-path="url(#p791eb841c3)" d="M 63.697159 347.405933 
L 123.274179 291.55212 
L 182.851199 331.890985 
L 242.42822 322.582016 
L 302.00524 325.685006 
L 361.58226 241.904287 
L 421.15928 303.964078 
L 480.736301 303.964078 
L 540.313321 325.685006 
L 599.890341 334.993974 
" style="fill:none;stroke:#1f77b4;stroke-linecap:square;stroke-width:1.5;"/>
   </g>
   <g id="line2d_33">
    <path clip-path="url(#p791eb841c3)" d="M 63.697159 350.508922 
L 123.274179 288.44913 
L 182.851199 328.787995 
L 242.42822 310.170058 
L 302.00524 322.582016 
L 361.58226 245.007276 
L 421.15928 307.067068 
L 480.736301 307.067068 
L 540.313321 328.787995 
L 599.890341 331.890985 
" style="fill:none;stroke:#ff7f0e;stroke-linecap:square;stroke-width:1.5;"/>
   </g>
   <g id="line2d_34">
    <path clip-path="url(#p791eb841c3)" d="M 63.697159 347.405933 
L 123.274179 291.55212 
L 182.851199 331.890985 
L 242.42822 307.067068 
L 302.00524 319.479026 
L 361.58226 241.904287 
L 421.15928 310.170058 
L 480.736301 303.964078 
L 540.313321 325.685006 
L 599.890341 328.787995 
" style="fill:none;stroke:#2ca02c;stroke-linecap:square;stroke-width:1.5;"/>
   </g>
   <g id="line2d_35">
    <path clip-path="url(#p791eb841c3)" d="M 63.697159 344.302943 
L 123.274179 294.65511 
L 182.851199 325.685006 
L 242.42822 310.170058 
L 302.00524 322.582016 
L 361.58226 245.007276 
L 421.15928 307.067068 
L 480.736301 307.067068 
L 540.313321 322.582016 
L 599.890341 325.685006 
" style="fill:none;stroke:#d62728;stroke-linecap:square;stroke-width:1.5;"/>
   </g>
   <g id="line2d_36">
    <path clip-path="url(#p791eb841c3)" d="M 63.697159 341.199954 
L 123.274179 297.758099 
L 182.851199 322.582016 
L 242.42822 291.55212 
L 302.00524 319.479026 
L 361.58226 241.904287 
L 421.15928 303.964078 
L 480.736301 303.964078 
L 540.313321 325.685006 
L 599.890341 328.787995 
" style="fill:none;stroke:#9467bd;stroke-linecap:square;stroke-width:1.5;"/>
   </g>
   <g id="line2d_37">
    <path clip-path="url(#p791eb841c3)" d="M 63.697159 338.096964 
L 123.274179 300.861089 
L 182.851199 319.479026 
L 242.42822 294.65511 
L 302.00524 316.376037 
L 361.58226 245.007276 
L 421.15928 300.861089 
L 480.736301 300.861089 
L 540.313321 313.273047 
L 599.890341 316.376037 
" style="fill:none;stroke:#8c564b;stroke-linecap:square;stroke-width:1.5;"/>
   </g>
   <g id="line2d_38">
    <path clip-path="url(#p791eb841c3)" d="M 63.697159 334.993974 
L 123.274179 303.964078 
L 182.851199 316.376037 
L 242.42822 297.758099 
L 302.00524 319.479026 
L 361.58226 241.904287 
L 421.15928 297.758099 
L 480.736301 303.964078 
L 540.313321 310.170058 
L 599.890341 313.273047 
" style="fill:none;stroke:#e377c2;stroke-linecap:square;stroke-width:1.5;"/>
   </g>
   <g id="line2d_39">
    <path clip-path="url(#p791eb841c3)" d="M 63.697159 338.096964 
L 123.274179 300.861089 
L 182.851199 313.273047 
L 242.42822 294.65511 
L 302.00524 316.376037 
L 361.58226 245.007276 
L 421.15928 294.65511 
L 480.736301 300.861089 
L 540.313321 313.273047 
L 599.890341 316.376037 
" style="fill:none;stroke:#7f7f7f;stroke-linecap:square;stroke-width:1.5;"/>
   </g>
   <g id="line2d_40">
    <path clip-path="url(#p791eb841c3)" d="M 63.697159 334.993974 
L 123.274179 297.758099 
L 182.851199 310.170058 
L 242.42822 297.758099 
L 302.00524 313.273047 
L 361.58226 241.904287 
L 421.15928 291.55212 
L 480.736301 288.44913 
L 540.313321 310.170058 
L 599.890341 310.170058 
" style="fill:none;stroke:#bcbd22;stroke-linecap:square;stroke-width:1.5;"/>
   </g>
   <g id="line2d_41">
    <path clip-path="url(#p791eb841c3)" d="M 63.697159 338.096964 
L 123.274179 294.65511 
L 182.851199 307.067068 
L 242.42822 300.861089 
L 302.00524 303.964078 
L 361.58226 229.492328 
L 421.15928 288.44913 
L 480.736301 285.346141 
L 540.313321 313.273047 
L 599.890341 307.067068 
" style="fill:none;stroke:#17becf;stroke-linecap:square;stroke-width:1.5;"/>
   </g>
   <g id="line2d_42">
    <path clip-path="url(#p791eb841c3)" d="M 63.697159 334.993974 
L 123.274179 276.037172 
L 182.851199 310.170058 
L 242.42822 297.758099 
L 302.00524 307.067068 
L 361.58226 226.389339 
L 421.15928 285.346141 
L 480.736301 276.037172 
L 540.313321 316.376037 
L 599.890341 310.170058 
" style="fill:none;stroke:#1f77b4;stroke-linecap:square;stroke-width:1.5;"/>
   </g>
   <g id="line2d_43">
    <path clip-path="url(#p791eb841c3)" d="M 63.697159 331.890985 
L 123.274179 279.140162 
L 182.851199 307.067068 
L 242.42822 300.861089 
L 302.00524 303.964078 
L 361.58226 220.183359 
L 421.15928 282.243151 
L 480.736301 272.934183 
L 540.313321 313.273047 
L 599.890341 307.067068 
" style="fill:none;stroke:#ff7f0e;stroke-linecap:square;stroke-width:1.5;"/>
   </g>
   <g id="line2d_44">
    <path clip-path="url(#p791eb841c3)" d="M 63.697159 328.787995 
L 123.274179 282.243151 
L 182.851199 303.964078 
L 242.42822 288.44913 
L 302.00524 307.067068 
L 361.58226 223.286349 
L 421.15928 279.140162 
L 480.736301 260.522224 
L 540.313321 316.376037 
L 599.890341 303.964078 
" style="fill:none;stroke:#2ca02c;stroke-linecap:square;stroke-width:1.5;"/>
   </g>
   <g id="line2d_45">
    <path clip-path="url(#p791eb841c3)" d="M 63.697159 325.685006 
L 123.274179 285.346141 
L 182.851199 288.44913 
L 242.42822 291.55212 
L 302.00524 303.964078 
L 361.58226 220.183359 
L 421.15928 260.522224 
L 480.736301 257.419235 
L 540.313321 303.964078 
L 599.890341 300.861089 
" style="fill:none;stroke:#d62728;stroke-linecap:square;stroke-width:1.5;"/>
   </g>
   <g id="line2d_46">
    <path clip-path="url(#p791eb841c3)" d="M 63.697159 328.787995 
L 123.274179 282.243151 
L 182.851199 285.346141 
L 242.42822 288.44913 
L 302.00524 294.65511 
L 361.58226 223.286349 
L 421.15928 263.625214 
L 480.736301 260.522224 
L 540.313321 300.861089 
L 599.890341 297.758099 
" style="fill:none;stroke:#9467bd;stroke-linecap:square;stroke-width:1.5;"/>
   </g>
   <g id="line2d_47">
    <path clip-path="url(#p791eb841c3)" d="M 63.697159 316.376037 
L 123.274179 279.140162 
L 182.851199 288.44913 
L 242.42822 291.55212 
L 302.00524 291.55212 
L 361.58226 226.389339 
L 421.15928 254.316245 
L 480.736301 257.419235 
L 540.313321 297.758099 
L 599.890341 294.65511 
" style="fill:none;stroke:#8c564b;stroke-linecap:square;stroke-width:1.5;"/>
   </g>
   <g id="line2d_48">
    <path clip-path="url(#p791eb841c3)" d="M 63.697159 313.273047 
L 123.274179 276.037172 
L 182.851199 291.55212 
L 242.42822 288.44913 
L 302.00524 288.44913 
L 361.58226 223.286349 
L 421.15928 251.213255 
L 480.736301 254.316245 
L 540.313321 294.65511 
L 599.890341 291.55212 
" style="fill:none;stroke:#e377c2;stroke-linecap:square;stroke-width:1.5;"/>
   </g>
   <g id="line2d_49">
    <path clip-path="url(#p791eb841c3)" d="M 63.697159 316.376037 
L 123.274179 279.140162 
L 182.851199 294.65511 
L 242.42822 291.55212 
L 302.00524 285.346141 
L 361.58226 226.389339 
L 421.15928 254.316245 
L 480.736301 257.419235 
L 540.313321 291.55212 
L 599.890341 294.65511 
" style="fill:none;stroke:#7f7f7f;stroke-linecap:square;stroke-width:1.5;"/>
   </g>
   <g id="line2d_50">
    <path clip-path="url(#p791eb841c3)" d="M 63.697159 313.273047 
L 123.274179 276.037172 
L 182.851199 297.758099 
L 242.42822 288.44913 
L 302.00524 288.44913 
L 361.58226 223.286349 
L 421.15928 257.419235 
L 480.736301 260.522224 
L 540.313321 288.44913 
L 599.890341 297.758099 
" style="fill:none;stroke:#bcbd22;stroke-linecap:square;stroke-width:1.5;"/>
   </g>
   <g id="line2d_51">
    <path clip-path="url(#p791eb841c3)" d="M 63.697159 316.376037 
L 123.274179 272.934183 
L 182.851199 294.65511 
L 242.42822 282.243151 
L 302.00524 291.55212 
L 361.58226 226.389339 
L 421.15928 254.316245 
L 480.736301 245.007276 
L 540.313321 291.55212 
L 599.890341 294.65511 
" style="fill:none;stroke:#17becf;stroke-linecap:square;stroke-width:1.5;"/>
   </g>
   <g id="line2d_52">
    <path clip-path="url(#p791eb841c3)" d="M 63.697159 313.273047 
L 123.274179 276.037172 
L 182.851199 291.55212 
L 242.42822 285.346141 
L 302.00524 282.243151 
L 361.58226 213.97738 
L 421.15928 251.213255 
L 480.736301 241.904287 
L 540.313321 288.44913 
L 599.890341 291.55212 
" style="fill:none;stroke:#1f77b4;stroke-linecap:square;stroke-width:1.5;"/>
   </g>
   <g id="line2d_53">
    <path clip-path="url(#p791eb841c3)" d="M 63.697159 310.170058 
L 123.274179 260.522224 
L 182.851199 288.44913 
L 242.42822 288.44913 
L 302.00524 279.140162 
L 361.58226 201.565422 
L 421.15928 248.110266 
L 480.736301 238.801297 
L 540.313321 285.346141 
L 599.890341 294.65511 
" style="fill:none;stroke:#ff7f0e;stroke-linecap:square;stroke-width:1.5;"/>
   </g>
   <g id="line2d_54">
    <path clip-path="url(#p791eb841c3)" d="M 63.697159 307.067068 
L 123.274179 257.419235 
L 182.851199 272.934183 
L 242.42822 291.55212 
L 302.00524 276.037172 
L 361.58226 204.668411 
L 421.15928 251.213255 
L 480.736301 241.904287 
L 540.313321 282.243151 
L 599.890341 291.55212 
" style="fill:none;stroke:#2ca02c;stroke-linecap:square;stroke-width:1.5;"/>
   </g>
   <g id="line2d_55">
    <path clip-path="url(#p791eb841c3)" d="M 63.697159 303.964078 
L 123.274179 260.522224 
L 182.851199 269.831193 
L 242.42822 288.44913 
L 302.00524 272.934183 
L 361.58226 207.771401 
L 421.15928 254.316245 
L 480.736301 245.007276 
L 540.313321 279.140162 
L 599.890341 288.44913 
" style="fill:none;stroke:#d62728;stroke-linecap:square;stroke-width:1.5;"/>
   </g>
   <g id="line2d_56">
    <path clip-path="url(#p791eb841c3)" d="M 63.697159 300.861089 
L 123.274179 263.625214 
L 182.851199 272.934183 
L 242.42822 291.55212 
L 302.00524 276.037172 
L 361.58226 210.874391 
L 421.15928 257.419235 
L 480.736301 241.904287 
L 540.313321 276.037172 
L 599.890341 291.55212 
" style="fill:none;stroke:#9467bd;stroke-linecap:square;stroke-width:1.5;"/>
   </g>
   <g id="line2d_57">
    <path clip-path="url(#p791eb841c3)" d="M 63.697159 297.758099 
L 123.274179 266.728203 
L 182.851199 269.831193 
L 242.42822 276.037172 
L 302.00524 279.140162 
L 361.58226 207.771401 
L 421.15928 260.522224 
L 480.736301 238.801297 
L 540.313321 279.140162 
L 599.890341 294.65511 
" style="fill:none;stroke:#8c564b;stroke-linecap:square;stroke-width:1.5;"/>
   </g>
   <g id="line2d_58">
    <path clip-path="url(#p791eb841c3)" d="M 63.697159 294.65511 
L 123.274179 269.831193 
L 182.851199 266.728203 
L 242.42822 272.934183 
L 302.00524 276.037172 
L 361.58226 204.668411 
L 421.15928 257.419235 
L 480.736301 235.698307 
L 540.313321 263.625214 
L 599.890341 297.758099 
" style="fill:none;stroke:#e377c2;stroke-linecap:square;stroke-width:1.5;"/>
   </g>
   <g id="line2d_59">
    <path clip-path="url(#p791eb841c3)" d="M 63.697159 285.346141 
L 123.274179 266.728203 
L 182.851199 263.625214 
L 242.42822 269.831193 
L 302.00524 266.728203 
L 361.58226 192.256453 
L 421.15928 254.316245 
L 480.736301 238.801297 
L 540.313321 260.522224 
L 599.890341 285.346141 
" style="fill:none;stroke:#7f7f7f;stroke-linecap:square;stroke-width:1.5;"/>
   </g>
   <g id="line2d_60">
    <path clip-path="url(#p791eb841c3)" d="M 63.697159 282.243151 
L 123.274179 269.831193 
L 182.851199 260.522224 
L 242.42822 272.934183 
L 302.00524 263.625214 
L 361.58226 189.153464 
L 421.15928 251.213255 
L 480.736301 226.389339 
L 540.313321 257.419235 
L 599.890341 282.243151 
" style="fill:none;stroke:#bcbd22;stroke-linecap:square;stroke-width:1.5;"/>
   </g>
   <g id="line2d_61">
    <path clip-path="url(#p791eb841c3)" d="M 63.697159 279.140162 
L 123.274179 272.934183 
L 182.851199 257.419235 
L 242.42822 276.037172 
L 302.00524 248.110266 
L 361.58226 186.050474 
L 421.15928 248.110266 
L 480.736301 229.492328 
L 540.313321 260.522224 
L 599.890341 279.140162 
" style="fill:none;stroke:#17becf;stroke-linecap:square;stroke-width:1.5;"/>
   </g>
   <g id="line2d_62">
    <path clip-path="url(#p791eb841c3)" d="M 63.697159 276.037172 
L 123.274179 266.728203 
L 182.851199 254.316245 
L 242.42822 272.934183 
L 302.00524 245.007276 
L 361.58226 173.638516 
L 421.15928 245.007276 
L 480.736301 226.389339 
L 540.313321 257.419235 
L 599.890341 276.037172 
" style="fill:none;stroke:#1f77b4;stroke-linecap:square;stroke-width:1.5;"/>
   </g>
   <g id="line2d_63">
    <path clip-path="url(#p791eb841c3)" d="M 63.697159 260.522224 
L 123.274179 263.625214 
L 182.851199 257.419235 
L 242.42822 276.037172 
L 302.00524 248.110266 
L 361.58226 176.741505 
L 421.15928 241.904287 
L 480.736301 223.286349 
L 540.313321 260.522224 
L 599.890341 272.934183 
" style="fill:none;stroke:#ff7f0e;stroke-linecap:square;stroke-width:1.5;"/>
   </g>
   <g id="line2d_64">
    <path clip-path="url(#p791eb841c3)" d="M 63.697159 257.419235 
L 123.274179 254.316245 
L 182.851199 260.522224 
L 242.42822 272.934183 
L 302.00524 245.007276 
L 361.58226 179.844495 
L 421.15928 238.801297 
L 480.736301 220.183359 
L 540.313321 257.419235 
L 599.890341 269.831193 
" style="fill:none;stroke:#2ca02c;stroke-linecap:square;stroke-width:1.5;"/>
   </g>
   <g id="line2d_65">
    <path clip-path="url(#p791eb841c3)" d="M 63.697159 245.007276 
L 123.274179 251.213255 
L 182.851199 257.419235 
L 242.42822 276.037172 
L 302.00524 248.110266 
L 361.58226 182.947484 
L 421.15928 241.904287 
L 480.736301 217.08037 
L 540.313321 254.316245 
L 599.890341 266.728203 
" style="fill:none;stroke:#d62728;stroke-linecap:square;stroke-width:1.5;"/>
   </g>
   <g id="line2d_66">
    <path clip-path="url(#p791eb841c3)" d="M 63.697159 241.904287 
L 123.274179 245.007276 
L 182.851199 260.522224 
L 242.42822 260.522224 
L 302.00524 245.007276 
L 361.58226 179.844495 
L 421.15928 238.801297 
L 480.736301 213.97738 
L 540.313321 257.419235 
L 599.890341 263.625214 
" style="fill:none;stroke:#9467bd;stroke-linecap:square;stroke-width:1.5;"/>
   </g>
   <g id="line2d_67">
    <path clip-path="url(#p791eb841c3)" d="M 63.697159 245.007276 
L 123.274179 241.904287 
L 182.851199 241.904287 
L 242.42822 257.419235 
L 302.00524 248.110266 
L 361.58226 176.741505 
L 421.15928 235.698307 
L 480.736301 210.874391 
L 540.313321 254.316245 
L 599.890341 260.522224 
" style="fill:none;stroke:#8c564b;stroke-linecap:square;stroke-width:1.5;"/>
   </g>
   <g id="line2d_68">
    <path clip-path="url(#p791eb841c3)" d="M 63.697159 241.904287 
L 123.274179 238.801297 
L 182.851199 245.007276 
L 242.42822 260.522224 
L 302.00524 229.492328 
L 361.58226 170.535526 
L 421.15928 229.492328 
L 480.736301 207.771401 
L 540.313321 238.801297 
L 599.890341 257.419235 
" style="fill:none;stroke:#e377c2;stroke-linecap:square;stroke-width:1.5;"/>
   </g>
   <g id="line2d_69">
    <path clip-path="url(#p791eb841c3)" d="M 63.697159 238.801297 
L 123.274179 235.698307 
L 182.851199 241.904287 
L 242.42822 263.625214 
L 302.00524 232.595318 
L 361.58226 173.638516 
L 421.15928 232.595318 
L 480.736301 210.874391 
L 540.313321 235.698307 
L 599.890341 260.522224 
" style="fill:none;stroke:#7f7f7f;stroke-linecap:square;stroke-width:1.5;"/>
   </g>
   <g id="line2d_70">
    <path clip-path="url(#p791eb841c3)" d="M 63.697159 241.904287 
L 123.274179 238.801297 
L 182.851199 245.007276 
L 242.42822 266.728203 
L 302.00524 235.698307 
L 361.58226 176.741505 
L 421.15928 229.492328 
L 480.736301 213.97738 
L 540.313321 232.595318 
L 599.890341 257.419235 
" style="fill:none;stroke:#bcbd22;stroke-linecap:square;stroke-width:1.5;"/>
   </g>
   <g id="line2d_71">
    <path clip-path="url(#p791eb841c3)" d="M 63.697159 238.801297 
L 123.274179 241.904287 
L 182.851199 241.904287 
L 242.42822 269.831193 
L 302.00524 232.595318 
L 361.58226 173.638516 
L 421.15928 226.389339 
L 480.736301 217.08037 
L 540.313321 235.698307 
L 599.890341 254.316245 
" style="fill:none;stroke:#17becf;stroke-linecap:square;stroke-width:1.5;"/>
   </g>
   <g id="line2d_72">
    <path clip-path="url(#p791eb841c3)" d="M 63.697159 235.698307 
L 123.274179 238.801297 
L 182.851199 245.007276 
L 242.42822 266.728203 
L 302.00524 226.389339 
L 361.58226 170.535526 
L 421.15928 217.08037 
L 480.736301 213.97738 
L 540.313321 232.595318 
L 599.890341 251.213255 
" style="fill:none;stroke:#1f77b4;stroke-linecap:square;stroke-width:1.5;"/>
   </g>
   <g id="line2d_73">
    <path clip-path="url(#p791eb841c3)" d="M 63.697159 229.492328 
L 123.274179 235.698307 
L 182.851199 241.904287 
L 242.42822 263.625214 
L 302.00524 229.492328 
L 361.58226 164.329547 
L 421.15928 210.874391 
L 480.736301 210.874391 
L 540.313321 229.492328 
L 599.890341 248.110266 
" style="fill:none;stroke:#ff7f0e;stroke-linecap:square;stroke-width:1.5;"/>
   </g>
   <g id="line2d_74">
    <path clip-path="url(#p791eb841c3)" d="M 63.697159 226.389339 
L 123.274179 232.595318 
L 182.851199 229.492328 
L 242.42822 251.213255 
L 302.00524 232.595318 
L 361.58226 155.020578 
L 421.15928 207.771401 
L 480.736301 198.462432 
L 540.313321 226.389339 
L 599.890341 245.007276 
" style="fill:none;stroke:#2ca02c;stroke-linecap:square;stroke-width:1.5;"/>
   </g>
   <g id="line2d_75">
    <path clip-path="url(#p791eb841c3)" d="M 63.697159 223.286349 
L 123.274179 229.492328 
L 182.851199 217.08037 
L 242.42822 232.595318 
L 302.00524 235.698307 
L 361.58226 139.50563 
L 421.15928 210.874391 
L 480.736301 195.359443 
L 540.313321 229.492328 
L 599.890341 248.110266 
" style="fill:none;stroke:#d62728;stroke-linecap:square;stroke-width:1.5;"/>
   </g>
   <g id="line2d_76">
    <path clip-path="url(#p791eb841c3)" d="M 63.697159 226.389339 
L 123.274179 232.595318 
L 182.851199 210.874391 
L 242.42822 229.492328 
L 302.00524 232.595318 
L 361.58226 136.40264 
L 421.15928 213.97738 
L 480.736301 198.462432 
L 540.313321 226.389339 
L 599.890341 251.213255 
" style="fill:none;stroke:#9467bd;stroke-linecap:square;stroke-width:1.5;"/>
   </g>
   <g id="line2d_77">
    <path clip-path="url(#p791eb841c3)" d="M 63.697159 229.492328 
L 123.274179 229.492328 
L 182.851199 204.668411 
L 242.42822 226.389339 
L 302.00524 229.492328 
L 361.58226 139.50563 
L 421.15928 217.08037 
L 480.736301 195.359443 
L 540.313321 229.492328 
L 599.890341 232.595318 
" style="fill:none;stroke:#8c564b;stroke-linecap:square;stroke-width:1.5;"/>
   </g>
   <g id="line2d_78">
    <path clip-path="url(#p791eb841c3)" d="M 63.697159 226.389339 
L 123.274179 226.389339 
L 182.851199 207.771401 
L 242.42822 223.286349 
L 302.00524 226.389339 
L 361.58226 136.40264 
L 421.15928 220.183359 
L 480.736301 192.256453 
L 540.313321 226.389339 
L 599.890341 229.492328 
" style="fill:none;stroke:#e377c2;stroke-linecap:square;stroke-width:1.5;"/>
   </g>
   <g id="line2d_79">
    <path clip-path="url(#p791eb841c3)" d="M 63.697159 223.286349 
L 123.274179 223.286349 
L 182.851199 204.668411 
L 242.42822 220.183359 
L 302.00524 223.286349 
L 361.58226 133.299651 
L 421.15928 223.286349 
L 480.736301 195.359443 
L 540.313321 223.286349 
L 599.890341 226.389339 
" style="fill:none;stroke:#7f7f7f;stroke-linecap:square;stroke-width:1.5;"/>
   </g>
   <g id="line2d_80">
    <path clip-path="url(#p791eb841c3)" d="M 63.697159 226.389339 
L 123.274179 213.97738 
L 182.851199 198.462432 
L 242.42822 223.286349 
L 302.00524 210.874391 
L 361.58226 130.196661 
L 421.15928 220.183359 
L 480.736301 176.741505 
L 540.313321 226.389339 
L 599.890341 229.492328 
" style="fill:none;stroke:#bcbd22;stroke-linecap:square;stroke-width:1.5;"/>
   </g>
   <g id="line2d_81">
    <path clip-path="url(#p791eb841c3)" d="M 63.697159 229.492328 
L 123.274179 210.874391 
L 182.851199 201.565422 
L 242.42822 220.183359 
L 302.00524 195.359443 
L 361.58226 127.093672 
L 421.15928 223.286349 
L 480.736301 173.638516 
L 540.313321 229.492328 
L 599.890341 232.595318 
" style="fill:none;stroke:#17becf;stroke-linecap:square;stroke-width:1.5;"/>
   </g>
   <g id="line2d_82">
    <path clip-path="url(#p791eb841c3)" d="M 63.697159 226.389339 
L 123.274179 207.771401 
L 182.851199 182.947484 
L 242.42822 213.97738 
L 302.00524 192.256453 
L 361.58226 123.990682 
L 421.15928 220.183359 
L 480.736301 170.535526 
L 540.313321 232.595318 
L 599.890341 235.698307 
" style="fill:none;stroke:#1f77b4;stroke-linecap:square;stroke-width:1.5;"/>
   </g>
   <g id="line2d_83">
    <path clip-path="url(#p791eb841c3)" d="M 63.697159 223.286349 
L 123.274179 210.874391 
L 182.851199 179.844495 
L 242.42822 210.874391 
L 302.00524 189.153464 
L 361.58226 127.093672 
L 421.15928 213.97738 
L 480.736301 167.432536 
L 540.313321 229.492328 
L 599.890341 223.286349 
" style="fill:none;stroke:#ff7f0e;stroke-linecap:square;stroke-width:1.5;"/>
   </g>
   <g id="line2d_84">
    <path clip-path="url(#p791eb841c3)" d="M 63.697159 217.08037 
L 123.274179 207.771401 
L 182.851199 173.638516 
L 242.42822 207.771401 
L 302.00524 186.050474 
L 361.58226 123.990682 
L 421.15928 210.874391 
L 480.736301 170.535526 
L 540.313321 226.389339 
L 599.890341 220.183359 
" style="fill:none;stroke:#2ca02c;stroke-linecap:square;stroke-width:1.5;"/>
   </g>
   <g id="line2d_85">
    <path clip-path="url(#p791eb841c3)" d="M 63.697159 220.183359 
L 123.274179 210.874391 
L 182.851199 170.535526 
L 242.42822 204.668411 
L 302.00524 176.741505 
L 361.58226 120.887692 
L 421.15928 207.771401 
L 480.736301 167.432536 
L 540.313321 229.492328 
L 599.890341 207.771401 
" style="fill:none;stroke:#d62728;stroke-linecap:square;stroke-width:1.5;"/>
   </g>
   <g id="line2d_86">
    <path clip-path="url(#p791eb841c3)" d="M 63.697159 223.286349 
L 123.274179 207.771401 
L 182.851199 173.638516 
L 242.42822 207.771401 
L 302.00524 173.638516 
L 361.58226 102.269755 
L 421.15928 210.874391 
L 480.736301 164.329547 
L 540.313321 232.595318 
L 599.890341 210.874391 
" style="fill:none;stroke:#9467bd;stroke-linecap:square;stroke-width:1.5;"/>
   </g>
   <g id="line2d_87">
    <path clip-path="url(#p791eb841c3)" d="M 63.697159 220.183359 
L 123.274179 204.668411 
L 182.851199 170.535526 
L 242.42822 210.874391 
L 302.00524 170.535526 
L 361.58226 105.372745 
L 421.15928 207.771401 
L 480.736301 155.020578 
L 540.313321 235.698307 
L 599.890341 192.256453 
" style="fill:none;stroke:#8c564b;stroke-linecap:square;stroke-width:1.5;"/>
   </g>
   <g id="line2d_88">
    <path clip-path="url(#p791eb841c3)" d="M 63.697159 223.286349 
L 123.274179 201.565422 
L 182.851199 167.432536 
L 242.42822 207.771401 
L 302.00524 167.432536 
L 361.58226 89.857797 
L 421.15928 210.874391 
L 480.736301 158.123568 
L 540.313321 232.595318 
L 599.890341 189.153464 
" style="fill:none;stroke:#e377c2;stroke-linecap:square;stroke-width:1.5;"/>
   </g>
   <g id="line2d_89">
    <path clip-path="url(#p791eb841c3)" d="M 63.697159 220.183359 
L 123.274179 189.153464 
L 182.851199 164.329547 
L 242.42822 210.874391 
L 302.00524 164.329547 
L 361.58226 92.960786 
L 421.15928 213.97738 
L 480.736301 155.020578 
L 540.313321 220.183359 
L 599.890341 186.050474 
" style="fill:none;stroke:#7f7f7f;stroke-linecap:square;stroke-width:1.5;"/>
   </g>
   <g id="line2d_90">
    <path clip-path="url(#p791eb841c3)" d="M 63.697159 217.08037 
L 123.274179 192.256453 
L 182.851199 167.432536 
L 242.42822 207.771401 
L 302.00524 161.226557 
L 361.58226 80.548828 
L 421.15928 210.874391 
L 480.736301 158.123568 
L 540.313321 217.08037 
L 599.890341 173.638516 
" style="fill:none;stroke:#bcbd22;stroke-linecap:square;stroke-width:1.5;"/>
   </g>
   <g id="line2d_91">
    <path clip-path="url(#p791eb841c3)" d="M 63.697159 213.97738 
L 123.274179 195.359443 
L 182.851199 164.329547 
L 242.42822 204.668411 
L 302.00524 158.123568 
L 361.58226 83.651817 
L 421.15928 213.97738 
L 480.736301 161.226557 
L 540.313321 213.97738 
L 599.890341 170.535526 
" style="fill:none;stroke:#17becf;stroke-linecap:square;stroke-width:1.5;"/>
   </g>
   <g id="line2d_92">
    <path clip-path="url(#p791eb841c3)" d="M 63.697159 207.771401 
L 123.274179 192.256453 
L 182.851199 161.226557 
L 242.42822 201.565422 
L 302.00524 161.226557 
L 361.58226 71.239859 
L 421.15928 217.08037 
L 480.736301 164.329547 
L 540.313321 210.874391 
L 599.890341 173.638516 
" style="fill:none;stroke:#1f77b4;stroke-linecap:square;stroke-width:1.5;"/>
   </g>
   <g id="line2d_93">
    <path clip-path="url(#p791eb841c3)" d="M 63.697159 210.874391 
L 123.274179 189.153464 
L 182.851199 158.123568 
L 242.42822 204.668411 
L 302.00524 164.329547 
L 361.58226 74.342849 
L 421.15928 220.183359 
L 480.736301 161.226557 
L 540.313321 207.771401 
L 599.890341 176.741505 
" style="fill:none;stroke:#ff7f0e;stroke-linecap:square;stroke-width:1.5;"/>
   </g>
   <g id="line2d_94">
    <path clip-path="url(#p791eb841c3)" d="M 63.697159 207.771401 
L 123.274179 186.050474 
L 182.851199 151.917588 
L 242.42822 201.565422 
L 302.00524 161.226557 
L 361.58226 65.03388 
L 421.15928 217.08037 
L 480.736301 158.123568 
L 540.313321 204.668411 
L 599.890341 173.638516 
" style="fill:none;stroke:#2ca02c;stroke-linecap:square;stroke-width:1.5;"/>
   </g>
   <g id="line2d_95">
    <path clip-path="url(#p791eb841c3)" d="M 63.697159 204.668411 
L 123.274179 189.153464 
L 182.851199 155.020578 
L 242.42822 198.462432 
L 302.00524 158.123568 
L 361.58226 61.93089 
L 421.15928 220.183359 
L 480.736301 151.917588 
L 540.313321 207.771401 
L 599.890341 170.535526 
" style="fill:none;stroke:#d62728;stroke-linecap:square;stroke-width:1.5;"/>
   </g>
   <g id="line2d_96">
    <path clip-path="url(#p791eb841c3)" d="M 63.697159 201.565422 
L 123.274179 186.050474 
L 182.851199 158.123568 
L 242.42822 195.359443 
L 302.00524 161.226557 
L 361.58226 65.03388 
L 421.15928 223.286349 
L 480.736301 148.814599 
L 540.313321 204.668411 
L 599.890341 167.432536 
" style="fill:none;stroke:#9467bd;stroke-linecap:square;stroke-width:1.5;"/>
   </g>
   <g id="line2d_97">
    <path clip-path="url(#p791eb841c3)" d="M 63.697159 198.462432 
L 123.274179 189.153464 
L 182.851199 155.020578 
L 242.42822 198.462432 
L 302.00524 142.60862 
L 361.58226 61.93089 
L 421.15928 220.183359 
L 480.736301 145.711609 
L 540.313321 201.565422 
L 599.890341 164.329547 
" style="fill:none;stroke:#8c564b;stroke-linecap:square;stroke-width:1.5;"/>
   </g>
   <g id="line2d_98">
    <path clip-path="url(#p791eb841c3)" d="M 63.697159 195.359443 
L 123.274179 186.050474 
L 182.851199 136.40264 
L 242.42822 201.565422 
L 302.00524 145.711609 
L 361.58226 43.312953 
L 421.15928 217.08037 
L 480.736301 133.299651 
L 540.313321 204.668411 
L 599.890341 167.432536 
" style="fill:none;stroke:#e377c2;stroke-linecap:square;stroke-width:1.5;"/>
   </g>
   <g id="line2d_99">
    <path clip-path="url(#p791eb841c3)" d="M 63.697159 198.462432 
L 123.274179 179.844495 
L 182.851199 120.887692 
L 242.42822 198.462432 
L 302.00524 142.60862 
L 361.58226 46.415942 
L 421.15928 213.97738 
L 480.736301 130.196661 
L 540.313321 201.565422 
L 599.890341 148.814599 
" style="fill:none;stroke:#7f7f7f;stroke-linecap:square;stroke-width:1.5;"/>
   </g>
   <g id="line2d_100">
    <path clip-path="url(#p791eb841c3)" d="M 63.697159 201.565422 
L 123.274179 164.329547 
L 182.851199 123.990682 
L 242.42822 195.359443 
L 302.00524 139.50563 
L 361.58226 49.518932 
L 421.15928 207.771401 
L 480.736301 133.299651 
L 540.313321 186.050474 
L 599.890341 145.711609 
" style="fill:none;stroke:#bcbd22;stroke-linecap:square;stroke-width:1.5;"/>
   </g>
   <g id="line2d_101">
    <path clip-path="url(#p791eb841c3)" d="M 63.697159 198.462432 
L 123.274179 167.432536 
L 182.851199 127.093672 
L 242.42822 179.844495 
L 302.00524 142.60862 
L 361.58226 52.621921 
L 421.15928 204.668411 
L 480.736301 136.40264 
L 540.313321 182.947484 
L 599.890341 148.814599 
" style="fill:none;stroke:#17becf;stroke-linecap:square;stroke-width:1.5;"/>
   </g>
   <g id="line2d_102">
    <path clip-path="url(#p791eb841c3)" d="M 63.697159 201.565422 
L 123.274179 164.329547 
L 182.851199 114.681713 
L 242.42822 176.741505 
L 302.00524 145.711609 
L 361.58226 40.209963 
L 421.15928 201.565422 
L 480.736301 133.299651 
L 540.313321 186.050474 
L 599.890341 136.40264 
" style="fill:none;stroke:#1f77b4;stroke-linecap:square;stroke-width:1.5;"/>
   </g>
   <g id="line2d_103">
    <path clip-path="url(#p791eb841c3)" d="M 63.697159 198.462432 
L 123.274179 161.226557 
L 182.851199 111.578724 
L 242.42822 173.638516 
L 302.00524 142.60862 
L 361.58226 43.312953 
L 421.15928 204.668411 
L 480.736301 130.196661 
L 540.313321 189.153464 
L 599.890341 133.299651 
" style="fill:none;stroke:#ff7f0e;stroke-linecap:square;stroke-width:1.5;"/>
   </g>
   <g id="line2d_104">
    <path clip-path="url(#p791eb841c3)" d="M 63.697159 195.359443 
L 123.274179 158.123568 
L 182.851199 108.475734 
L 242.42822 158.123568 
L 302.00524 145.711609 
L 361.58226 46.415942 
L 421.15928 207.771401 
L 480.736301 133.299651 
L 540.313321 186.050474 
L 599.890341 136.40264 
" style="fill:none;stroke:#2ca02c;stroke-linecap:square;stroke-width:1.5;"/>
   </g>
   <g id="line2d_105">
    <path clip-path="url(#p791eb841c3)" d="M 63.697159 198.462432 
L 123.274179 155.020578 
L 182.851199 105.372745 
L 242.42822 161.226557 
L 302.00524 148.814599 
L 361.58226 43.312953 
L 421.15928 204.668411 
L 480.736301 136.40264 
L 540.313321 189.153464 
L 599.890341 133.299651 
" style="fill:none;stroke:#d62728;stroke-linecap:square;stroke-width:1.5;"/>
   </g>
   <g id="line2d_106">
    <path clip-path="url(#p791eb841c3)" d="M 63.697159 189.153464 
L 123.274179 151.917588 
L 182.851199 99.166765 
L 242.42822 158.123568 
L 302.00524 130.196661 
L 361.58226 40.209963 
L 421.15928 186.050474 
L 480.736301 133.299651 
L 540.313321 192.256453 
L 599.890341 136.40264 
" style="fill:none;stroke:#9467bd;stroke-linecap:square;stroke-width:1.5;"/>
   </g>
   <g id="line2d_107">
    <path clip-path="url(#p791eb841c3)" d="M 63.697159 186.050474 
L 123.274179 148.814599 
L 182.851199 102.269755 
L 242.42822 161.226557 
L 302.00524 133.299651 
L 361.58226 43.312953 
L 421.15928 189.153464 
L 480.736301 130.196661 
L 540.313321 195.359443 
L 599.890341 117.784703 
" style="fill:none;stroke:#8c564b;stroke-linecap:square;stroke-width:1.5;"/>
   </g>
   <g id="line2d_108">
    <path clip-path="url(#p791eb841c3)" d="M 63.697159 182.947484 
L 123.274179 151.917588 
L 182.851199 99.166765 
L 242.42822 158.123568 
L 302.00524 136.40264 
L 361.58226 40.209963 
L 421.15928 186.050474 
L 480.736301 127.093672 
L 540.313321 182.947484 
L 599.890341 99.166765 
" style="fill:none;stroke:#e377c2;stroke-linecap:square;stroke-width:1.5;"/>
   </g>
   <g id="line2d_109">
    <path clip-path="url(#p791eb841c3)" d="M 63.697159 179.844495 
L 123.274179 148.814599 
L 182.851199 102.269755 
L 242.42822 155.020578 
L 302.00524 133.299651 
L 361.58226 37.106974 
L 421.15928 182.947484 
L 480.736301 130.196661 
L 540.313321 179.844495 
L 599.890341 96.063776 
" style="fill:none;stroke:#7f7f7f;stroke-linecap:square;stroke-width:1.5;"/>
   </g>
   <g id="line2d_110">
    <path clip-path="url(#p791eb841c3)" d="M 63.697159 182.947484 
L 123.274179 145.711609 
L 182.851199 99.166765 
L 242.42822 151.917588 
L 302.00524 130.196661 
L 361.58226 34.003984 
L 421.15928 167.432536 
L 480.736301 133.299651 
L 540.313321 176.741505 
L 599.890341 99.166765 
" style="fill:none;stroke:#bcbd22;stroke-linecap:square;stroke-width:1.5;"/>
   </g>
   <g id="line2d_111">
    <path clip-path="url(#p791eb841c3)" d="M 63.697159 179.844495 
L 123.274179 142.60862 
L 182.851199 102.269755 
L 242.42822 148.814599 
L 302.00524 133.299651 
L 361.58226 30.900994 
L 421.15928 170.535526 
L 480.736301 130.196661 
L 540.313321 173.638516 
L 599.890341 96.063776 
" style="fill:none;stroke:#17becf;stroke-linecap:square;stroke-width:1.5;"/>
   </g>
   <g id="line2d_112">
    <path clip-path="url(#p791eb841c3)" d="M 63.697159 176.741505 
L 123.274179 136.40264 
L 182.851199 105.372745 
L 242.42822 151.917588 
L 302.00524 136.40264 
L 361.58226 34.003984 
L 421.15928 167.432536 
L 480.736301 127.093672 
L 540.313321 176.741505 
L 599.890341 92.960786 
" style="fill:none;stroke:#1f77b4;stroke-linecap:square;stroke-width:1.5;"/>
   </g>
   <g id="line2d_113">
    <path clip-path="url(#p791eb841c3)" d="M 63.697159 362.920881 
L 123.274179 362.920881 
L 182.851199 362.920881 
L 242.42822 362.920881 
L 302.00524 362.920881 
L 361.58226 362.920881 
L 421.15928 362.920881 
L 480.736301 362.920881 
L 540.313321 362.920881 
L 599.890341 362.920881 
" style="fill:none;stroke:#ff7f0e;stroke-linecap:square;stroke-width:1.5;"/>
   </g>
   <g id="line2d_114">
    <path clip-path="url(#p791eb841c3)" d="M 63.697159 359.817891 
L 123.274179 362.920881 
L 182.851199 359.817891 
L 242.42822 359.817891 
L 302.00524 359.817891 
L 361.58226 359.817891 
L 421.15928 353.611912 
L 480.736301 356.714901 
L 540.313321 362.920881 
L 599.890341 350.508922 
" style="fill:none;stroke:#2ca02c;stroke-linecap:square;stroke-width:1.5;"/>
   </g>
   <g id="line2d_115">
    <path clip-path="url(#p791eb841c3)" d="M 63.697159 356.714901 
L 123.274179 359.817891 
L 182.851199 344.302943 
L 242.42822 356.714901 
L 302.00524 356.714901 
L 361.58226 356.714901 
L 421.15928 350.508922 
L 480.736301 350.508922 
L 540.313321 359.817891 
L 599.890341 353.611912 
" style="fill:none;stroke:#d62728;stroke-linecap:square;stroke-width:1.5;"/>
   </g>
   <g id="line2d_116">
    <path clip-path="url(#p791eb841c3)" d="M 63.697159 353.611912 
L 123.274179 362.920881 
L 182.851199 347.405933 
L 242.42822 353.611912 
L 302.00524 341.199954 
L 361.58226 338.096964 
L 421.15928 347.405933 
L 480.736301 347.405933 
L 540.313321 356.714901 
L 599.890341 350.508922 
" style="fill:none;stroke:#9467bd;stroke-linecap:square;stroke-width:1.5;"/>
   </g>
   <g id="line2d_117">
    <path clip-path="url(#p791eb841c3)" d="M 63.697159 356.714901 
L 123.274179 359.817891 
L 182.851199 350.508922 
L 242.42822 341.199954 
L 302.00524 334.993974 
L 361.58226 334.993974 
L 421.15928 344.302943 
L 480.736301 344.302943 
L 540.313321 353.611912 
L 599.890341 347.405933 
" style="fill:none;stroke:#8c564b;stroke-linecap:square;stroke-width:1.5;"/>
   </g>
   <g id="line2d_118">
    <path clip-path="url(#p791eb841c3)" d="M 63.697159 347.405933 
L 123.274179 356.714901 
L 182.851199 353.611912 
L 242.42822 344.302943 
L 302.00524 322.582016 
L 361.58226 331.890985 
L 421.15928 328.787995 
L 480.736301 347.405933 
L 540.313321 350.508922 
L 599.890341 344.302943 
" style="fill:none;stroke:#e377c2;stroke-linecap:square;stroke-width:1.5;"/>
   </g>
   <g id="line2d_119">
    <path clip-path="url(#p791eb841c3)" d="M 63.697159 350.508922 
L 123.274179 353.611912 
L 182.851199 356.714901 
L 242.42822 347.405933 
L 302.00524 325.685006 
L 361.58226 334.993974 
L 421.15928 310.170058 
L 480.736301 344.302943 
L 540.313321 347.405933 
L 599.890341 341.199954 
" style="fill:none;stroke:#7f7f7f;stroke-linecap:square;stroke-width:1.5;"/>
   </g>
   <g id="line2d_120">
    <path clip-path="url(#p791eb841c3)" d="M 63.697159 344.302943 
L 123.274179 356.714901 
L 182.851199 359.817891 
L 242.42822 344.302943 
L 302.00524 310.170058 
L 361.58226 338.096964 
L 421.15928 300.861089 
L 480.736301 341.199954 
L 540.313321 350.508922 
L 599.890341 338.096964 
" style="fill:none;stroke:#bcbd22;stroke-linecap:square;stroke-width:1.5;"/>
   </g>
   <g id="line2d_121">
    <path clip-path="url(#p791eb841c3)" d="M 63.697159 341.199954 
L 123.274179 359.817891 
L 182.851199 362.920881 
L 242.42822 341.199954 
L 302.00524 307.067068 
L 361.58226 334.993974 
L 421.15928 291.55212 
L 480.736301 338.096964 
L 540.313321 353.611912 
L 599.890341 334.993974 
" style="fill:none;stroke:#17becf;stroke-linecap:square;stroke-width:1.5;"/>
   </g>
   <g id="line2d_122">
    <path clip-path="url(#p791eb841c3)" d="M 63.697159 322.582016 
L 123.274179 356.714901 
L 182.851199 359.817891 
L 242.42822 334.993974 
L 302.00524 303.964078 
L 361.58226 331.890985 
L 421.15928 294.65511 
L 480.736301 341.199954 
L 540.313321 356.714901 
L 599.890341 338.096964 
" style="fill:none;stroke:#1f77b4;stroke-linecap:square;stroke-width:1.5;"/>
   </g>
   <g id="line2d_123">
    <path clip-path="url(#p791eb841c3)" d="M 63.697159 325.685006 
L 123.274179 353.611912 
L 182.851199 362.920881 
L 242.42822 338.096964 
L 302.00524 307.067068 
L 361.58226 328.787995 
L 421.15928 291.55212 
L 480.736301 325.685006 
L 540.313321 353.611912 
L 599.890341 341.199954 
" style="fill:none;stroke:#ff7f0e;stroke-linecap:square;stroke-width:1.5;"/>
   </g>
   <g id="line2d_124">
    <path clip-path="url(#p791eb841c3)" d="M 63.697159 322.582016 
L 123.274179 350.508922 
L 182.851199 362.920881 
L 242.42822 341.199954 
L 302.00524 310.170058 
L 361.58226 325.685006 
L 421.15928 288.44913 
L 480.736301 328.787995 
L 540.313321 356.714901 
L 599.890341 325.685006 
" style="fill:none;stroke:#2ca02c;stroke-linecap:square;stroke-width:1.5;"/>
   </g>
   <g id="line2d_125">
    <path clip-path="url(#p791eb841c3)" d="M 63.697159 319.479026 
L 123.274179 353.611912 
L 182.851199 359.817891 
L 242.42822 338.096964 
L 302.00524 307.067068 
L 361.58226 322.582016 
L 421.15928 291.55212 
L 480.736301 325.685006 
L 540.313321 353.611912 
L 599.890341 322.582016 
" style="fill:none;stroke:#d62728;stroke-linecap:square;stroke-width:1.5;"/>
   </g>
   <g id="line2d_126">
    <path clip-path="url(#p791eb841c3)" d="M 63.697159 322.582016 
L 123.274179 356.714901 
L 182.851199 350.508922 
L 242.42822 328.787995 
L 302.00524 303.964078 
L 361.58226 319.479026 
L 421.15928 282.243151 
L 480.736301 322.582016 
L 540.313321 356.714901 
L 599.890341 325.685006 
" style="fill:none;stroke:#9467bd;stroke-linecap:square;stroke-width:1.5;"/>
   </g>
   <g id="line2d_127">
    <path clip-path="url(#p791eb841c3)" d="M 63.697159 325.685006 
L 123.274179 359.817891 
L 182.851199 353.611912 
L 242.42822 331.890985 
L 302.00524 300.861089 
L 361.58226 316.376037 
L 421.15928 285.346141 
L 480.736301 325.685006 
L 540.313321 359.817891 
L 599.890341 322.582016 
" style="fill:none;stroke:#8c564b;stroke-linecap:square;stroke-width:1.5;"/>
   </g>
   <g id="line2d_128">
    <path clip-path="url(#p791eb841c3)" d="M 63.697159 322.582016 
L 123.274179 353.611912 
L 182.851199 356.714901 
L 242.42822 328.787995 
L 302.00524 303.964078 
L 361.58226 300.861089 
L 421.15928 282.243151 
L 480.736301 313.273047 
L 540.313321 347.405933 
L 599.890341 319.479026 
" style="fill:none;stroke:#e377c2;stroke-linecap:square;stroke-width:1.5;"/>
   </g>
   <g id="line2d_129">
    <path clip-path="url(#p791eb841c3)" d="M 63.697159 325.685006 
L 123.274179 350.508922 
L 182.851199 353.611912 
L 242.42822 331.890985 
L 302.00524 307.067068 
L 361.58226 303.964078 
L 421.15928 279.140162 
L 480.736301 300.861089 
L 540.313321 341.199954 
L 599.890341 316.376037 
" style="fill:none;stroke:#7f7f7f;stroke-linecap:square;stroke-width:1.5;"/>
   </g>
   <g id="line2d_130">
    <path clip-path="url(#p791eb841c3)" d="M 63.697159 322.582016 
L 123.274179 347.405933 
L 182.851199 350.508922 
L 242.42822 313.273047 
L 302.00524 303.964078 
L 361.58226 307.067068 
L 421.15928 276.037172 
L 480.736301 282.243151 
L 540.313321 325.685006 
L 599.890341 313.273047 
" style="fill:none;stroke:#bcbd22;stroke-linecap:square;stroke-width:1.5;"/>
   </g>
   <g id="line2d_131">
    <path clip-path="url(#p791eb841c3)" d="M 63.697159 319.479026 
L 123.274179 350.508922 
L 182.851199 347.405933 
L 242.42822 310.170058 
L 302.00524 300.861089 
L 361.58226 310.170058 
L 421.15928 272.934183 
L 480.736301 279.140162 
L 540.313321 328.787995 
L 599.890341 307.067068 
" style="fill:none;stroke:#17becf;stroke-linecap:square;stroke-width:1.5;"/>
   </g>
   <g id="line2d_132">
    <path clip-path="url(#p791eb841c3)" d="M 63.697159 316.376037 
L 123.274179 353.611912 
L 182.851199 350.508922 
L 242.42822 307.067068 
L 302.00524 297.758099 
L 361.58226 307.067068 
L 421.15928 276.037172 
L 480.736301 282.243151 
L 540.313321 310.170058 
L 599.890341 310.170058 
" style="fill:none;stroke:#1f77b4;stroke-linecap:square;stroke-width:1.5;"/>
   </g>
   <g id="line2d_133">
    <path clip-path="url(#p791eb841c3)" d="M 63.697159 313.273047 
L 123.274179 356.714901 
L 182.851199 347.405933 
L 242.42822 303.964078 
L 302.00524 294.65511 
L 361.58226 303.964078 
L 421.15928 272.934183 
L 480.736301 279.140162 
L 540.313321 307.067068 
L 599.890341 307.067068 
" style="fill:none;stroke:#ff7f0e;stroke-linecap:square;stroke-width:1.5;"/>
   </g>
   <g id="line2d_134">
    <path clip-path="url(#p791eb841c3)" d="M 63.697159 310.170058 
L 123.274179 353.611912 
L 182.851199 344.302943 
L 242.42822 300.861089 
L 302.00524 297.758099 
L 361.58226 300.861089 
L 421.15928 269.831193 
L 480.736301 276.037172 
L 540.313321 310.170058 
L 599.890341 303.964078 
" style="fill:none;stroke:#2ca02c;stroke-linecap:square;stroke-width:1.5;"/>
   </g>
   <g id="line2d_135">
    <path clip-path="url(#p791eb841c3)" d="M 63.697159 307.067068 
L 123.274179 350.508922 
L 182.851199 341.199954 
L 242.42822 303.964078 
L 302.00524 300.861089 
L 361.58226 303.964078 
L 421.15928 251.213255 
L 480.736301 272.934183 
L 540.313321 307.067068 
L 599.890341 291.55212 
" style="fill:none;stroke:#d62728;stroke-linecap:square;stroke-width:1.5;"/>
   </g>
   <g id="line2d_136">
    <path clip-path="url(#p791eb841c3)" d="M 63.697159 303.964078 
L 123.274179 347.405933 
L 182.851199 338.096964 
L 242.42822 307.067068 
L 302.00524 297.758099 
L 361.58226 291.55212 
L 421.15928 254.316245 
L 480.736301 276.037172 
L 540.313321 303.964078 
L 599.890341 288.44913 
" style="fill:none;stroke:#9467bd;stroke-linecap:square;stroke-width:1.5;"/>
   </g>
   <g id="line2d_137">
    <path clip-path="url(#p791eb841c3)" d="M 63.697159 300.861089 
L 123.274179 350.508922 
L 182.851199 334.993974 
L 242.42822 303.964078 
L 302.00524 294.65511 
L 361.58226 272.934183 
L 421.15928 251.213255 
L 480.736301 263.625214 
L 540.313321 300.861089 
L 599.890341 285.346141 
" style="fill:none;stroke:#8c564b;stroke-linecap:square;stroke-width:1.5;"/>
   </g>
   <g id="line2d_138">
    <path clip-path="url(#p791eb841c3)" d="M 63.697159 297.758099 
L 123.274179 353.611912 
L 182.851199 331.890985 
L 242.42822 294.65511 
L 302.00524 291.55212 
L 361.58226 269.831193 
L 421.15928 248.110266 
L 480.736301 260.522224 
L 540.313321 297.758099 
L 599.890341 288.44913 
" style="fill:none;stroke:#e377c2;stroke-linecap:square;stroke-width:1.5;"/>
   </g>
   <g id="line2d_139">
    <path clip-path="url(#p791eb841c3)" d="M 63.697159 294.65511 
L 123.274179 350.508922 
L 182.851199 328.787995 
L 242.42822 297.758099 
L 302.00524 288.44913 
L 361.58226 254.316245 
L 421.15928 245.007276 
L 480.736301 248.110266 
L 540.313321 288.44913 
L 599.890341 291.55212 
" style="fill:none;stroke:#7f7f7f;stroke-linecap:square;stroke-width:1.5;"/>
   </g>
   <g id="line2d_140">
    <path clip-path="url(#p791eb841c3)" d="M 63.697159 291.55212 
L 123.274179 341.199954 
L 182.851199 325.685006 
L 242.42822 294.65511 
L 302.00524 269.831193 
L 361.58226 251.213255 
L 421.15928 241.904287 
L 480.736301 251.213255 
L 540.313321 285.346141 
L 599.890341 294.65511 
" style="fill:none;stroke:#bcbd22;stroke-linecap:square;stroke-width:1.5;"/>
   </g>
   <g id="line2d_141">
    <path clip-path="url(#p791eb841c3)" d="M 63.697159 288.44913 
L 123.274179 325.685006 
L 182.851199 316.376037 
L 242.42822 291.55212 
L 302.00524 263.625214 
L 361.58226 254.316245 
L 421.15928 238.801297 
L 480.736301 248.110266 
L 540.313321 282.243151 
L 599.890341 291.55212 
" style="fill:none;stroke:#17becf;stroke-linecap:square;stroke-width:1.5;"/>
   </g>
   <g id="line2d_142">
    <path clip-path="url(#p791eb841c3)" d="M 63.697159 285.346141 
L 123.274179 316.376037 
L 182.851199 297.758099 
L 242.42822 288.44913 
L 302.00524 260.522224 
L 361.58226 251.213255 
L 421.15928 235.698307 
L 480.736301 245.007276 
L 540.313321 279.140162 
L 599.890341 294.65511 
" style="fill:none;stroke:#1f77b4;stroke-linecap:square;stroke-width:1.5;"/>
   </g>
   <g id="line2d_143">
    <path clip-path="url(#p791eb841c3)" d="M 63.697159 282.243151 
L 123.274179 313.273047 
L 182.851199 294.65511 
L 242.42822 285.346141 
L 302.00524 245.007276 
L 361.58226 232.595318 
L 421.15928 232.595318 
L 480.736301 241.904287 
L 540.313321 269.831193 
L 599.890341 297.758099 
" style="fill:none;stroke:#ff7f0e;stroke-linecap:square;stroke-width:1.5;"/>
   </g>
   <g id="line2d_144">
    <path clip-path="url(#p791eb841c3)" d="M 63.697159 285.346141 
L 123.274179 310.170058 
L 182.851199 291.55212 
L 242.42822 282.243151 
L 302.00524 241.904287 
L 361.58226 235.698307 
L 421.15928 229.492328 
L 480.736301 238.801297 
L 540.313321 272.934183 
L 599.890341 294.65511 
" style="fill:none;stroke:#2ca02c;stroke-linecap:square;stroke-width:1.5;"/>
   </g>
   <g id="line2d_145">
    <path clip-path="url(#p791eb841c3)" d="M 63.697159 282.243151 
L 123.274179 291.55212 
L 182.851199 288.44913 
L 242.42822 269.831193 
L 302.00524 245.007276 
L 361.58226 232.595318 
L 421.15928 226.389339 
L 480.736301 235.698307 
L 540.313321 269.831193 
L 599.890341 282.243151 
" style="fill:none;stroke:#d62728;stroke-linecap:square;stroke-width:1.5;"/>
   </g>
   <g id="line2d_146">
    <path clip-path="url(#p791eb841c3)" d="M 63.697159 279.140162 
L 123.274179 288.44913 
L 182.851199 285.346141 
L 242.42822 272.934183 
L 302.00524 248.110266 
L 361.58226 235.698307 
L 421.15928 207.771401 
L 480.736301 232.595318 
L 540.313321 272.934183 
L 599.890341 279.140162 
" style="fill:none;stroke:#9467bd;stroke-linecap:square;stroke-width:1.5;"/>
   </g>
   <g id="line2d_147">
    <path clip-path="url(#p791eb841c3)" d="M 63.697159 276.037172 
L 123.274179 285.346141 
L 182.851199 282.243151 
L 242.42822 269.831193 
L 302.00524 245.007276 
L 361.58226 232.595318 
L 421.15928 189.153464 
L 480.736301 229.492328 
L 540.313321 276.037172 
L 599.890341 282.243151 
" style="fill:none;stroke:#8c564b;stroke-linecap:square;stroke-width:1.5;"/>
   </g>
   <g id="line2d_148">
    <path clip-path="url(#p791eb841c3)" d="M 63.697159 279.140162 
L 123.274179 282.243151 
L 182.851199 285.346141 
L 242.42822 272.934183 
L 302.00524 241.904287 
L 361.58226 235.698307 
L 421.15928 182.947484 
L 480.736301 232.595318 
L 540.313321 263.625214 
L 599.890341 279.140162 
" style="fill:none;stroke:#e377c2;stroke-linecap:square;stroke-width:1.5;"/>
   </g>
   <g id="line2d_149">
    <path clip-path="url(#p791eb841c3)" d="M 63.697159 282.243151 
L 123.274179 285.346141 
L 182.851199 288.44913 
L 242.42822 269.831193 
L 302.00524 226.389339 
L 361.58226 232.595318 
L 421.15928 186.050474 
L 480.736301 235.698307 
L 540.313321 266.728203 
L 599.890341 276.037172 
" style="fill:none;stroke:#7f7f7f;stroke-linecap:square;stroke-width:1.5;"/>
   </g>
   <g id="line2d_150">
    <path clip-path="url(#p791eb841c3)" d="M 63.697159 285.346141 
L 123.274179 279.140162 
L 182.851199 291.55212 
L 242.42822 266.728203 
L 302.00524 229.492328 
L 361.58226 235.698307 
L 421.15928 176.741505 
L 480.736301 232.595318 
L 540.313321 263.625214 
L 599.890341 263.625214 
" style="fill:none;stroke:#bcbd22;stroke-linecap:square;stroke-width:1.5;"/>
   </g>
   <g id="line2d_151">
    <path clip-path="url(#p791eb841c3)" d="M 63.697159 282.243151 
L 123.274179 263.625214 
L 182.851199 288.44913 
L 242.42822 263.625214 
L 302.00524 226.389339 
L 361.58226 232.595318 
L 421.15928 167.432536 
L 480.736301 235.698307 
L 540.313321 260.522224 
L 599.890341 260.522224 
" style="fill:none;stroke:#17becf;stroke-linecap:square;stroke-width:1.5;"/>
   </g>
   <g id="line2d_152">
    <path clip-path="url(#p791eb841c3)" d="M 63.697159 285.346141 
L 123.274179 260.522224 
L 182.851199 285.346141 
L 242.42822 260.522224 
L 302.00524 223.286349 
L 361.58226 217.08037 
L 421.15928 164.329547 
L 480.736301 232.595318 
L 540.313321 241.904287 
L 599.890341 257.419235 
" style="fill:none;stroke:#1f77b4;stroke-linecap:square;stroke-width:1.5;"/>
   </g>
   <g id="line2d_153">
    <path clip-path="url(#p791eb841c3)" d="M 63.697159 272.934183 
L 123.274179 257.419235 
L 182.851199 282.243151 
L 242.42822 257.419235 
L 302.00524 217.08037 
L 361.58226 213.97738 
L 421.15928 167.432536 
L 480.736301 235.698307 
L 540.313321 245.007276 
L 599.890341 254.316245 
" style="fill:none;stroke:#ff7f0e;stroke-linecap:square;stroke-width:1.5;"/>
   </g>
   <g id="line2d_154">
    <path clip-path="url(#p791eb841c3)" d="M 63.697159 276.037172 
L 123.274179 254.316245 
L 182.851199 279.140162 
L 242.42822 254.316245 
L 302.00524 213.97738 
L 361.58226 217.08037 
L 421.15928 170.535526 
L 480.736301 232.595318 
L 540.313321 241.904287 
L 599.890341 251.213255 
" style="fill:none;stroke:#2ca02c;stroke-linecap:square;stroke-width:1.5;"/>
   </g>
   <g id="line2d_155">
    <path clip-path="url(#p791eb841c3)" d="M 63.697159 279.140162 
L 123.274179 251.213255 
L 182.851199 272.934183 
L 242.42822 251.213255 
L 302.00524 217.08037 
L 361.58226 213.97738 
L 421.15928 151.917588 
L 480.736301 229.492328 
L 540.313321 238.801297 
L 599.890341 254.316245 
" style="fill:none;stroke:#d62728;stroke-linecap:square;stroke-width:1.5;"/>
   </g>
   <g id="line2d_156">
    <path clip-path="url(#p791eb841c3)" d="M 63.697159 276.037172 
L 123.274179 248.110266 
L 182.851199 269.831193 
L 242.42822 254.316245 
L 302.00524 213.97738 
L 361.58226 210.874391 
L 421.15928 148.814599 
L 480.736301 213.97738 
L 540.313321 235.698307 
L 599.890341 251.213255 
" style="fill:none;stroke:#9467bd;stroke-linecap:square;stroke-width:1.5;"/>
   </g>
   <g id="line2d_157">
    <path clip-path="url(#p791eb841c3)" d="M 63.697159 269.831193 
L 123.274179 245.007276 
L 182.851199 266.728203 
L 242.42822 251.213255 
L 302.00524 210.874391 
L 361.58226 207.771401 
L 421.15928 139.50563 
L 480.736301 198.462432 
L 540.313321 232.595318 
L 599.890341 248.110266 
" style="fill:none;stroke:#8c564b;stroke-linecap:square;stroke-width:1.5;"/>
   </g>
   <g id="line2d_158">
    <path clip-path="url(#p791eb841c3)" d="M 63.697159 266.728203 
L 123.274179 248.110266 
L 182.851199 263.625214 
L 242.42822 248.110266 
L 302.00524 207.771401 
L 361.58226 204.668411 
L 421.15928 136.40264 
L 480.736301 201.565422 
L 540.313321 235.698307 
L 599.890341 245.007276 
" style="fill:none;stroke:#e377c2;stroke-linecap:square;stroke-width:1.5;"/>
   </g>
   <g id="line2d_159">
    <path clip-path="url(#p791eb841c3)" d="M 63.697159 251.213255 
L 123.274179 245.007276 
L 182.851199 257.419235 
L 242.42822 245.007276 
L 302.00524 210.874391 
L 361.58226 207.771401 
L 421.15928 133.299651 
L 480.736301 204.668411 
L 540.313321 232.595318 
L 599.890341 241.904287 
" style="fill:none;stroke:#7f7f7f;stroke-linecap:square;stroke-width:1.5;"/>
   </g>
   <g id="line2d_160">
    <path clip-path="url(#p791eb841c3)" d="M 63.697159 254.316245 
L 123.274179 241.904287 
L 182.851199 245.007276 
L 242.42822 241.904287 
L 302.00524 207.771401 
L 361.58226 204.668411 
L 421.15928 130.196661 
L 480.736301 201.565422 
L 540.313321 226.389339 
L 599.890341 245.007276 
" style="fill:none;stroke:#bcbd22;stroke-linecap:square;stroke-width:1.5;"/>
   </g>
   <g id="line2d_161">
    <path clip-path="url(#p791eb841c3)" d="M 63.697159 251.213255 
L 123.274179 238.801297 
L 182.851199 248.110266 
L 242.42822 238.801297 
L 302.00524 210.874391 
L 361.58226 201.565422 
L 421.15928 127.093672 
L 480.736301 198.462432 
L 540.313321 223.286349 
L 599.890341 248.110266 
" style="fill:none;stroke:#17becf;stroke-linecap:square;stroke-width:1.5;"/>
   </g>
   <g id="line2d_162">
    <path clip-path="url(#p791eb841c3)" d="M 63.697159 248.110266 
L 123.274179 235.698307 
L 182.851199 251.213255 
L 242.42822 241.904287 
L 302.00524 213.97738 
L 361.58226 198.462432 
L 421.15928 123.990682 
L 480.736301 195.359443 
L 540.313321 220.183359 
L 599.890341 241.904287 
" style="fill:none;stroke:#1f77b4;stroke-linecap:square;stroke-width:1.5;"/>
   </g>
   <g id="line2d_163">
    <path clip-path="url(#p791eb841c3)" d="M 63.697159 235.698307 
L 123.274179 232.595318 
L 182.851199 254.316245 
L 242.42822 232.595318 
L 302.00524 217.08037 
L 361.58226 201.565422 
L 421.15928 120.887692 
L 480.736301 192.256453 
L 540.313321 223.286349 
L 599.890341 238.801297 
" style="fill:none;stroke:#ff7f0e;stroke-linecap:square;stroke-width:1.5;"/>
   </g>
   <g id="line2d_164">
    <path clip-path="url(#p791eb841c3)" d="M 63.697159 238.801297 
L 123.274179 226.389339 
L 182.851199 257.419235 
L 242.42822 229.492328 
L 302.00524 213.97738 
L 361.58226 198.462432 
L 421.15928 117.784703 
L 480.736301 195.359443 
L 540.313321 220.183359 
L 599.890341 241.904287 
" style="fill:none;stroke:#2ca02c;stroke-linecap:square;stroke-width:1.5;"/>
   </g>
   <g id="line2d_165">
    <path clip-path="url(#p791eb841c3)" d="M 63.697159 235.698307 
L 123.274179 213.97738 
L 182.851199 254.316245 
L 242.42822 226.389339 
L 302.00524 217.08037 
L 361.58226 189.153464 
L 421.15928 120.887692 
L 480.736301 192.256453 
L 540.313321 217.08037 
L 599.890341 238.801297 
" style="fill:none;stroke:#d62728;stroke-linecap:square;stroke-width:1.5;"/>
   </g>
   <g id="line2d_166">
    <path clip-path="url(#p791eb841c3)" d="M 63.697159 232.595318 
L 123.274179 210.874391 
L 182.851199 251.213255 
L 242.42822 229.492328 
L 302.00524 220.183359 
L 361.58226 192.256453 
L 421.15928 123.990682 
L 480.736301 195.359443 
L 540.313321 220.183359 
L 599.890341 235.698307 
" style="fill:none;stroke:#9467bd;stroke-linecap:square;stroke-width:1.5;"/>
   </g>
   <g id="line2d_167">
    <path clip-path="url(#p791eb841c3)" d="M 63.697159 235.698307 
L 123.274179 207.771401 
L 182.851199 248.110266 
L 242.42822 226.389339 
L 302.00524 217.08037 
L 361.58226 189.153464 
L 421.15928 120.887692 
L 480.736301 198.462432 
L 540.313321 217.08037 
L 599.890341 229.492328 
" style="fill:none;stroke:#8c564b;stroke-linecap:square;stroke-width:1.5;"/>
   </g>
   <g id="line2d_168">
    <path clip-path="url(#p791eb841c3)" d="M 63.697159 238.801297 
L 123.274179 204.668411 
L 182.851199 251.213255 
L 242.42822 229.492328 
L 302.00524 220.183359 
L 361.58226 186.050474 
L 421.15928 123.990682 
L 480.736301 195.359443 
L 540.313321 213.97738 
L 599.890341 226.389339 
" style="fill:none;stroke:#e377c2;stroke-linecap:square;stroke-width:1.5;"/>
   </g>
   <g id="line2d_169">
    <path clip-path="url(#p791eb841c3)" d="M 63.697159 235.698307 
L 123.274179 201.565422 
L 182.851199 254.316245 
L 242.42822 226.389339 
L 302.00524 217.08037 
L 361.58226 182.947484 
L 421.15928 120.887692 
L 480.736301 198.462432 
L 540.313321 210.874391 
L 599.890341 229.492328 
" style="fill:none;stroke:#7f7f7f;stroke-linecap:square;stroke-width:1.5;"/>
   </g>
   <g id="line2d_170">
    <path clip-path="url(#p791eb841c3)" d="M 63.697159 232.595318 
L 123.274179 189.153464 
L 182.851199 257.419235 
L 242.42822 229.492328 
L 302.00524 201.565422 
L 361.58226 179.844495 
L 421.15928 123.990682 
L 480.736301 195.359443 
L 540.313321 207.771401 
L 599.890341 226.389339 
" style="fill:none;stroke:#bcbd22;stroke-linecap:square;stroke-width:1.5;"/>
   </g>
   <g id="line2d_171">
    <path clip-path="url(#p791eb841c3)" d="M 63.697159 229.492328 
L 123.274179 173.638516 
L 182.851199 260.522224 
L 242.42822 226.389339 
L 302.00524 198.462432 
L 361.58226 170.535526 
L 421.15928 120.887692 
L 480.736301 198.462432 
L 540.313321 189.153464 
L 599.890341 229.492328 
" style="fill:none;stroke:#17becf;stroke-linecap:square;stroke-width:1.5;"/>
   </g>
   <g id="line2d_172">
    <path clip-path="url(#p791eb841c3)" d="M 63.697159 232.595318 
L 123.274179 176.741505 
L 182.851199 263.625214 
L 242.42822 229.492328 
L 302.00524 195.359443 
L 361.58226 173.638516 
L 421.15928 123.990682 
L 480.736301 195.359443 
L 540.313321 186.050474 
L 599.890341 226.389339 
" style="fill:none;stroke:#1f77b4;stroke-linecap:square;stroke-width:1.5;"/>
   </g>
   <g id="line2d_173">
    <path clip-path="url(#p791eb841c3)" d="M 63.697159 235.698307 
L 123.274179 179.844495 
L 182.851199 266.728203 
L 242.42822 232.595318 
L 302.00524 192.256453 
L 361.58226 176.741505 
L 421.15928 127.093672 
L 480.736301 186.050474 
L 540.313321 182.947484 
L 599.890341 229.492328 
" style="fill:none;stroke:#ff7f0e;stroke-linecap:square;stroke-width:1.5;"/>
   </g>
   <g id="line2d_174">
    <path clip-path="url(#p791eb841c3)" d="M 63.697159 238.801297 
L 123.274179 182.947484 
L 182.851199 263.625214 
L 242.42822 229.492328 
L 302.00524 189.153464 
L 361.58226 158.123568 
L 421.15928 123.990682 
L 480.736301 182.947484 
L 540.313321 179.844495 
L 599.890341 226.389339 
" style="fill:none;stroke:#2ca02c;stroke-linecap:square;stroke-width:1.5;"/>
   </g>
   <g id="line2d_175">
    <path clip-path="url(#p791eb841c3)" d="M 63.697159 235.698307 
L 123.274179 186.050474 
L 182.851199 251.213255 
L 242.42822 226.389339 
L 302.00524 192.256453 
L 361.58226 155.020578 
L 421.15928 120.887692 
L 480.736301 186.050474 
L 540.313321 176.741505 
L 599.890341 223.286349 
" style="fill:none;stroke:#d62728;stroke-linecap:square;stroke-width:1.5;"/>
   </g>
   <g id="line2d_176">
    <path clip-path="url(#p791eb841c3)" d="M 63.697159 238.801297 
L 123.274179 176.741505 
L 182.851199 238.801297 
L 242.42822 223.286349 
L 302.00524 189.153464 
L 361.58226 148.814599 
L 421.15928 117.784703 
L 480.736301 182.947484 
L 540.313321 173.638516 
L 599.890341 210.874391 
" style="fill:none;stroke:#9467bd;stroke-linecap:square;stroke-width:1.5;"/>
   </g>
   <g id="line2d_177">
    <path clip-path="url(#p791eb841c3)" d="M 63.697159 241.904287 
L 123.274179 173.638516 
L 182.851199 235.698307 
L 242.42822 220.183359 
L 302.00524 192.256453 
L 361.58226 139.50563 
L 421.15928 120.887692 
L 480.736301 167.432536 
L 540.313321 176.741505 
L 599.890341 207.771401 
" style="fill:none;stroke:#8c564b;stroke-linecap:square;stroke-width:1.5;"/>
   </g>
   <g id="line2d_178">
    <path clip-path="url(#p791eb841c3)" d="M 63.697159 238.801297 
L 123.274179 170.535526 
L 182.851199 232.595318 
L 242.42822 217.08037 
L 302.00524 186.050474 
L 361.58226 136.40264 
L 421.15928 117.784703 
L 480.736301 164.329547 
L 540.313321 179.844495 
L 599.890341 210.874391 
" style="fill:none;stroke:#e377c2;stroke-linecap:square;stroke-width:1.5;"/>
   </g>
   <g id="line2d_179">
    <path clip-path="url(#p791eb841c3)" d="M 63.697159 241.904287 
L 123.274179 167.432536 
L 182.851199 235.698307 
L 242.42822 220.183359 
L 302.00524 182.947484 
L 361.58226 127.093672 
L 421.15928 120.887692 
L 480.736301 161.226557 
L 540.313321 176.741505 
L 599.890341 213.97738 
" style="fill:none;stroke:#7f7f7f;stroke-linecap:square;stroke-width:1.5;"/>
   </g>
   <g id="line2d_180">
    <path clip-path="url(#p791eb841c3)" d="M 63.697159 245.007276 
L 123.274179 170.535526 
L 182.851199 238.801297 
L 242.42822 223.286349 
L 302.00524 186.050474 
L 361.58226 123.990682 
L 421.15928 105.372745 
L 480.736301 142.60862 
L 540.313321 179.844495 
L 599.890341 217.08037 
" style="fill:none;stroke:#bcbd22;stroke-linecap:square;stroke-width:1.5;"/>
   </g>
   <g id="line2d_181">
    <path clip-path="url(#p791eb841c3)" d="M 63.697159 248.110266 
L 123.274179 173.638516 
L 182.851199 235.698307 
L 242.42822 226.389339 
L 302.00524 182.947484 
L 361.58226 120.887692 
L 421.15928 108.475734 
L 480.736301 123.990682 
L 540.313321 176.741505 
L 599.890341 213.97738 
" style="fill:none;stroke:#17becf;stroke-linecap:square;stroke-width:1.5;"/>
   </g>
   <g id="line2d_182">
    <path clip-path="url(#p791eb841c3)" d="M 63.697159 245.007276 
L 123.274179 164.329547 
L 182.851199 232.595318 
L 242.42822 223.286349 
L 302.00524 186.050474 
L 361.58226 117.784703 
L 421.15928 111.578724 
L 480.736301 127.093672 
L 540.313321 173.638516 
L 599.890341 217.08037 
" style="fill:none;stroke:#1f77b4;stroke-linecap:square;stroke-width:1.5;"/>
   </g>
   <g id="line2d_183">
    <path clip-path="url(#p791eb841c3)" d="M 63.697159 241.904287 
L 123.274179 161.226557 
L 182.851199 229.492328 
L 242.42822 220.183359 
L 302.00524 189.153464 
L 361.58226 114.681713 
L 421.15928 108.475734 
L 480.736301 123.990682 
L 540.313321 170.535526 
L 599.890341 220.183359 
" style="fill:none;stroke:#ff7f0e;stroke-linecap:square;stroke-width:1.5;"/>
   </g>
   <g id="line2d_184">
    <path clip-path="url(#p791eb841c3)" d="M 63.697159 245.007276 
L 123.274179 164.329547 
L 182.851199 210.874391 
L 242.42822 223.286349 
L 302.00524 186.050474 
L 361.58226 111.578724 
L 421.15928 96.063776 
L 480.736301 120.887692 
L 540.313321 173.638516 
L 599.890341 223.286349 
" style="fill:none;stroke:#2ca02c;stroke-linecap:square;stroke-width:1.5;"/>
   </g>
   <g id="line2d_185">
    <path clip-path="url(#p791eb841c3)" d="M 63.697159 248.110266 
L 123.274179 167.432536 
L 182.851199 207.771401 
L 242.42822 220.183359 
L 302.00524 189.153464 
L 361.58226 108.475734 
L 421.15928 92.960786 
L 480.736301 123.990682 
L 540.313321 170.535526 
L 599.890341 220.183359 
" style="fill:none;stroke:#d62728;stroke-linecap:square;stroke-width:1.5;"/>
   </g>
   <g id="line2d_186">
    <path clip-path="url(#p791eb841c3)" d="M 63.697159 251.213255 
L 123.274179 170.535526 
L 182.851199 210.874391 
L 242.42822 223.286349 
L 302.00524 170.535526 
L 361.58226 111.578724 
L 421.15928 89.857797 
L 480.736301 127.093672 
L 540.313321 173.638516 
L 599.890341 223.286349 
" style="fill:none;stroke:#9467bd;stroke-linecap:square;stroke-width:1.5;"/>
   </g>
   <g id="line2d_187">
    <path clip-path="url(#p791eb841c3)" d="M 63.697159 248.110266 
L 123.274179 167.432536 
L 182.851199 213.97738 
L 242.42822 220.183359 
L 302.00524 167.432536 
L 361.58226 108.475734 
L 421.15928 92.960786 
L 480.736301 123.990682 
L 540.313321 155.020578 
L 599.890341 220.183359 
" style="fill:none;stroke:#8c564b;stroke-linecap:square;stroke-width:1.5;"/>
   </g>
   <g id="line2d_188">
    <path clip-path="url(#p791eb841c3)" d="M 63.697159 245.007276 
L 123.274179 164.329547 
L 182.851199 210.874391 
L 242.42822 217.08037 
L 302.00524 170.535526 
L 361.58226 105.372745 
L 421.15928 89.857797 
L 480.736301 120.887692 
L 540.313321 151.917588 
L 599.890341 223.286349 
" style="fill:none;stroke:#e377c2;stroke-linecap:square;stroke-width:1.5;"/>
   </g>
   <g id="line2d_189">
    <path clip-path="url(#p791eb841c3)" d="M 63.697159 241.904287 
L 123.274179 161.226557 
L 182.851199 213.97738 
L 242.42822 220.183359 
L 302.00524 167.432536 
L 361.58226 108.475734 
L 421.15928 92.960786 
L 480.736301 123.990682 
L 540.313321 155.020578 
L 599.890341 220.183359 
" style="fill:none;stroke:#7f7f7f;stroke-linecap:square;stroke-width:1.5;"/>
   </g>
   <g id="line2d_190">
    <path clip-path="url(#p791eb841c3)" d="M 63.697159 245.007276 
L 123.274179 158.123568 
L 182.851199 210.874391 
L 242.42822 217.08037 
L 302.00524 164.329547 
L 361.58226 105.372745 
L 421.15928 89.857797 
L 480.736301 105.372745 
L 540.313321 158.123568 
L 599.890341 210.874391 
" style="fill:none;stroke:#bcbd22;stroke-linecap:square;stroke-width:1.5;"/>
   </g>
   <g id="line2d_191">
    <path clip-path="url(#p791eb841c3)" d="M 63.697159 248.110266 
L 123.274179 161.226557 
L 182.851199 213.97738 
L 242.42822 220.183359 
L 302.00524 161.226557 
L 361.58226 108.475734 
L 421.15928 92.960786 
L 480.736301 102.269755 
L 540.313321 155.020578 
L 599.890341 207.771401 
" style="fill:none;stroke:#17becf;stroke-linecap:square;stroke-width:1.5;"/>
   </g>
   <g id="line2d_192">
    <path clip-path="url(#p791eb841c3)" d="M 63.697159 245.007276 
L 123.274179 158.123568 
L 182.851199 210.874391 
L 242.42822 223.286349 
L 302.00524 164.329547 
L 361.58226 111.578724 
L 421.15928 96.063776 
L 480.736301 99.166765 
L 540.313321 158.123568 
L 599.890341 204.668411 
" style="fill:none;stroke:#1f77b4;stroke-linecap:square;stroke-width:1.5;"/>
   </g>
   <g id="line2d_193">
    <path clip-path="url(#p791eb841c3)" d="M 63.697159 241.904287 
L 123.274179 161.226557 
L 182.851199 207.771401 
L 242.42822 220.183359 
L 302.00524 158.123568 
L 361.58226 108.475734 
L 421.15928 99.166765 
L 480.736301 96.063776 
L 540.313321 155.020578 
L 599.890341 201.565422 
" style="fill:none;stroke:#ff7f0e;stroke-linecap:square;stroke-width:1.5;"/>
   </g>
   <g id="line2d_194">
    <path clip-path="url(#p791eb841c3)" d="M 63.697159 238.801297 
L 123.274179 158.123568 
L 182.851199 210.874391 
L 242.42822 217.08037 
L 302.00524 155.020578 
L 361.58226 99.166765 
L 421.15928 96.063776 
L 480.736301 99.166765 
L 540.313321 151.917588 
L 599.890341 198.462432 
" style="fill:none;stroke:#2ca02c;stroke-linecap:square;stroke-width:1.5;"/>
   </g>
   <g id="line2d_195">
    <path clip-path="url(#p791eb841c3)" d="M 63.697159 235.698307 
L 123.274179 155.020578 
L 182.851199 207.771401 
L 242.42822 201.565422 
L 302.00524 142.60862 
L 361.58226 102.269755 
L 421.15928 92.960786 
L 480.736301 89.857797 
L 540.313321 148.814599 
L 599.890341 201.565422 
" style="fill:none;stroke:#d62728;stroke-linecap:square;stroke-width:1.5;"/>
   </g>
   <g id="line2d_196">
    <path clip-path="url(#p791eb841c3)" d="M 63.697159 238.801297 
L 123.274179 158.123568 
L 182.851199 210.874391 
L 242.42822 204.668411 
L 302.00524 139.50563 
L 361.58226 105.372745 
L 421.15928 89.857797 
L 480.736301 92.960786 
L 540.313321 145.711609 
L 599.890341 198.462432 
" style="fill:none;stroke:#9467bd;stroke-linecap:square;stroke-width:1.5;"/>
   </g>
   <g id="line2d_197">
    <path clip-path="url(#p791eb841c3)" d="M 63.697159 235.698307 
L 123.274179 155.020578 
L 182.851199 213.97738 
L 242.42822 201.565422 
L 302.00524 136.40264 
L 361.58226 102.269755 
L 421.15928 86.754807 
L 480.736301 96.063776 
L 540.313321 148.814599 
L 599.890341 195.359443 
" style="fill:none;stroke:#8c564b;stroke-linecap:square;stroke-width:1.5;"/>
   </g>
   <g id="line2d_198">
    <path clip-path="url(#p791eb841c3)" d="M 63.697159 238.801297 
L 123.274179 151.917588 
L 182.851199 210.874391 
L 242.42822 198.462432 
L 302.00524 139.50563 
L 361.58226 99.166765 
L 421.15928 89.857797 
L 480.736301 92.960786 
L 540.313321 151.917588 
L 599.890341 186.050474 
" style="fill:none;stroke:#e377c2;stroke-linecap:square;stroke-width:1.5;"/>
   </g>
   <g id="line2d_199">
    <path clip-path="url(#p791eb841c3)" d="M 63.697159 235.698307 
L 123.274179 148.814599 
L 182.851199 207.771401 
L 242.42822 201.565422 
L 302.00524 142.60862 
L 361.58226 102.269755 
L 421.15928 86.754807 
L 480.736301 89.857797 
L 540.313321 148.814599 
L 599.890341 189.153464 
" style="fill:none;stroke:#7f7f7f;stroke-linecap:square;stroke-width:1.5;"/>
   </g>
   <g id="line2d_200">
    <path clip-path="url(#p791eb841c3)" d="M 63.697159 232.595318 
L 123.274179 145.711609 
L 182.851199 210.874391 
L 242.42822 198.462432 
L 302.00524 139.50563 
L 361.58226 99.166765 
L 421.15928 89.857797 
L 480.736301 92.960786 
L 540.313321 151.917588 
L 599.890341 192.256453 
" style="fill:none;stroke:#bcbd22;stroke-linecap:square;stroke-width:1.5;"/>
   </g>
   <g id="line2d_201">
    <path clip-path="url(#p791eb841c3)" d="M 63.697159 229.492328 
L 123.274179 142.60862 
L 182.851199 207.771401 
L 242.42822 195.359443 
L 302.00524 136.40264 
L 361.58226 80.548828 
L 421.15928 86.754807 
L 480.736301 74.342849 
L 540.313321 155.020578 
L 599.890341 179.844495 
" style="fill:none;stroke:#17becf;stroke-linecap:square;stroke-width:1.5;"/>
   </g>
   <g id="line2d_202">
    <path clip-path="url(#p791eb841c3)" d="M 63.697159 226.389339 
L 123.274179 139.50563 
L 182.851199 210.874391 
L 242.42822 176.741505 
L 302.00524 133.299651 
L 361.58226 83.651817 
L 421.15928 83.651817 
L 480.736301 58.827901 
L 540.313321 151.917588 
L 599.890341 167.432536 
" style="fill:none;stroke:#1f77b4;stroke-linecap:square;stroke-width:1.5;"/>
   </g>
   <g id="line2d_203">
    <path clip-path="url(#p791eb841c3)" d="M 63.697159 223.286349 
L 123.274179 136.40264 
L 182.851199 207.771401 
L 242.42822 173.638516 
L 302.00524 130.196661 
L 361.58226 80.548828 
L 421.15928 86.754807 
L 480.736301 61.93089 
L 540.313321 148.814599 
L 599.890341 164.329547 
" style="fill:none;stroke:#ff7f0e;stroke-linecap:square;stroke-width:1.5;"/>
   </g>
   <g id="line2d_204">
    <path clip-path="url(#p791eb841c3)" d="M 63.697159 207.771401 
L 123.274179 139.50563 
L 182.851199 198.462432 
L 242.42822 176.741505 
L 302.00524 120.887692 
L 361.58226 83.651817 
L 421.15928 83.651817 
L 480.736301 58.827901 
L 540.313321 151.917588 
L 599.890341 161.226557 
" style="fill:none;stroke:#2ca02c;stroke-linecap:square;stroke-width:1.5;"/>
   </g>
   <g id="line2d_205">
    <path clip-path="url(#p791eb841c3)" d="M 63.697159 192.256453 
L 123.274179 142.60862 
L 182.851199 195.359443 
L 242.42822 179.844495 
L 302.00524 123.990682 
L 361.58226 80.548828 
L 421.15928 86.754807 
L 480.736301 61.93089 
L 540.313321 155.020578 
L 599.890341 145.711609 
" style="fill:none;stroke:#d62728;stroke-linecap:square;stroke-width:1.5;"/>
   </g>
   <g id="line2d_206">
    <path clip-path="url(#p791eb841c3)" d="M 63.697159 195.359443 
L 123.274179 139.50563 
L 182.851199 192.256453 
L 242.42822 176.741505 
L 302.00524 127.093672 
L 361.58226 77.445838 
L 421.15928 83.651817 
L 480.736301 58.827901 
L 540.313321 151.917588 
L 599.890341 142.60862 
" style="fill:none;stroke:#9467bd;stroke-linecap:square;stroke-width:1.5;"/>
   </g>
   <g id="line2d_207">
    <path clip-path="url(#p791eb841c3)" d="M 63.697159 192.256453 
L 123.274179 136.40264 
L 182.851199 189.153464 
L 242.42822 164.329547 
L 302.00524 123.990682 
L 361.58226 80.548828 
L 421.15928 86.754807 
L 480.736301 55.724911 
L 540.313321 155.020578 
L 599.890341 145.711609 
" style="fill:none;stroke:#8c564b;stroke-linecap:square;stroke-width:1.5;"/>
   </g>
   <g id="line2d_208">
    <path clip-path="url(#p791eb841c3)" d="M 63.697159 189.153464 
L 123.274179 127.093672 
L 182.851199 186.050474 
L 242.42822 167.432536 
L 302.00524 120.887692 
L 361.58226 83.651817 
L 421.15928 89.857797 
L 480.736301 52.621921 
L 540.313321 158.123568 
L 599.890341 148.814599 
" style="fill:none;stroke:#e377c2;stroke-linecap:square;stroke-width:1.5;"/>
   </g>
   <g id="line2d_209">
    <path clip-path="url(#p791eb841c3)" d="M 63.697159 192.256453 
L 123.274179 123.990682 
L 182.851199 189.153464 
L 242.42822 170.535526 
L 302.00524 123.990682 
L 361.58226 86.754807 
L 421.15928 86.754807 
L 480.736301 49.518932 
L 540.313321 155.020578 
L 599.890341 145.711609 
" style="fill:none;stroke:#7f7f7f;stroke-linecap:square;stroke-width:1.5;"/>
   </g>
   <g id="line2d_210">
    <path clip-path="url(#p791eb841c3)" d="M 63.697159 189.153464 
L 123.274179 127.093672 
L 182.851199 186.050474 
L 242.42822 173.638516 
L 302.00524 120.887692 
L 361.58226 80.548828 
L 421.15928 83.651817 
L 480.736301 46.415942 
L 540.313321 151.917588 
L 599.890341 142.60862 
" style="fill:none;stroke:#bcbd22;stroke-linecap:square;stroke-width:1.5;"/>
   </g>
   <g id="line2d_211">
    <path clip-path="url(#p791eb841c3)" d="M 63.697159 170.535526 
L 123.274179 130.196661 
L 182.851199 182.947484 
L 242.42822 176.741505 
L 302.00524 117.784703 
L 361.58226 83.651817 
L 421.15928 80.548828 
L 480.736301 43.312953 
L 540.313321 148.814599 
L 599.890341 145.711609 
" style="fill:none;stroke:#17becf;stroke-linecap:square;stroke-width:1.5;"/>
   </g>
   <g id="line2d_212">
    <path clip-path="url(#p791eb841c3)" d="M 63.697159 173.638516 
L 123.274179 127.093672 
L 182.851199 167.432536 
L 242.42822 179.844495 
L 302.00524 120.887692 
L 361.58226 68.136869 
L 421.15928 77.445838 
L 480.736301 46.415942 
L 540.313321 151.917588 
L 599.890341 136.40264 
" style="fill:none;stroke:#1f77b4;stroke-linecap:square;stroke-width:1.5;"/>
   </g>
   <g id="line2d_213">
    <path clip-path="url(#p791eb841c3)" d="M 63.697159 170.535526 
L 123.274179 123.990682 
L 182.851199 170.535526 
L 242.42822 182.947484 
L 302.00524 105.372745 
L 361.58226 65.03388 
L 421.15928 80.548828 
L 480.736301 40.209963 
L 540.313321 148.814599 
L 599.890341 133.299651 
" style="fill:none;stroke:#ff7f0e;stroke-linecap:square;stroke-width:1.5;"/>
   </g>
   <g id="patch_3">
    <path d="M 36.8875 379.521875 
L 36.8875 14.3 
" style="fill:none;stroke:#000000;stroke-linecap:square;stroke-linejoin:miter;stroke-width:0.8;"/>
   </g>
   <g id="patch_4">
    <path d="M 626.7 379.521875 
L 626.7 14.3 
" style="fill:none;stroke:#000000;stroke-linecap:square;stroke-linejoin:miter;stroke-width:0.8;"/>
   </g>
   <g id="patch_5">
    <path d="M 36.8875 379.521875 
L 626.7 379.521875 
" style="fill:none;stroke:#000000;stroke-linecap:square;stroke-linejoin:miter;stroke-width:0.8;"/>
   </g>
   <g id="patch_6">
    <path d="M 36.8875 14.3 
L 626.7 14.3 
" style="fill:none;stroke:#000000;stroke-linecap:square;stroke-linejoin:miter;stroke-width:0.8;"/>
   </g>
  </g>
 </g>
 <defs>
  <clipPath id="p791eb841c3">
   <rect height="365.221875" width="589.8125" x="36.8875" y="14.3"/>
  </clipPath>
 </defs>
</svg>
