<?xml version="1.0" encoding="utf-8" standalone="no"?>
<!DOCTYPE svg PUBLIC "-//W3C//DTD SVG 1.1//EN"
  "http://www.w3.org/Graphics/SVG/1.1/DTD/svg11.dtd">
<!-- Created with matplotlib (http://matplotlib.org/) -->
<svg height="407pt" version="1.1" viewBox="0 0 641 407" width="641pt" xmlns="http://www.w3.org/2000/svg" xmlns:xlink="http://www.w3.org/1999/xlink">
 <defs>
  <style type="text/css">
*{stroke-linecap:butt;stroke-linejoin:round;}
  </style>
 </defs>
 <g id="figure_1">
  <g id="patch_1">
   <path d="M 0 407 
L 641 407 
L 641 0 
L 0 0 
z
" style="fill:#ffffff;"/>
  </g>
  <g id="axes_1">
   <g id="patch_2">
    <path d="M 36.8875 379.521875 
L 626.7 379.521875 
L 626.7 14.3 
L 36.8875 14.3 
z
" style="fill:#ffffff;"/>
   </g>
   <g id="matplotlib.axis_1">
    <g id="xtick_1">
     <g id="line2d_1">
      <defs>
       <path d="M 0 0 
L 0 3.5 
" id="m46d699d40f" style="stroke:#000000;stroke-width:0.8;"/>
      </defs>
      <g>
       <use style="stroke:#000000;stroke-width:0.8;" x="63.697159" xlink:href="#m46d699d40f" y="379.521875"/>
      </g>
     </g>
     <g id="text_1">
      <!-- 0 -->
      <defs>
       <path d="M 31.78125 66.40625 
Q 24.171875 66.40625 20.328125 58.90625 
Q 16.5 51.421875 16.5 36.375 
Q 16.5 21.390625 20.328125 13.890625 
Q 24.171875 6.390625 31.78125 6.390625 
Q 39.453125 6.390625 43.28125 13.890625 
Q 47.125 21.390625 47.125 36.375 
Q 47.125 51.421875 43.28125 58.90625 
Q 39.453125 66.40625 31.78125 66.40625 
z
M 31.78125 74.21875 
Q 44.046875 74.21875 50.515625 64.515625 
Q 56.984375 54.828125 56.984375 36.375 
Q 56.984375 17.96875 50.515625 8.265625 
Q 44.046875 -1.421875 31.78125 -1.421875 
Q 19.53125 -1.421875 13.0625 8.265625 
Q 6.59375 17.96875 6.59375 36.375 
Q 6.59375 54.828125 13.0625 64.515625 
Q 19.53125 74.21875 31.78125 74.21875 
z
" id="DejaVuSans-30"/>
      </defs>
      <g transform="translate(60.515909 394.120313)scale(0.1 -0.1)">
       <use xlink:href="#DejaVuSans-30"/>
      </g>
     </g>
    </g>
    <g id="xtick_2">
     <g id="line2d_2">
      <g>
       <use style="stroke:#000000;stroke-width:0.8;" x="170.935795" xlink:href="#m46d699d40f" y="379.521875"/>
      </g>
     </g>
     <g id="text_2">
      <!-- 20 -->
      <defs>
       <path d="M 19.1875 8.296875 
L 53.609375 8.296875 
L 53.609375 0 
L 7.328125 0 
L 7.328125 8.296875 
Q 12.9375 14.109375 22.625 23.890625 
Q 32.328125 33.6875 34.8125 36.53125 
Q 39.546875 41.84375 41.421875 45.53125 
Q 43.3125 49.21875 43.3125 52.78125 
Q 43.3125 58.59375 39.234375 62.25 
Q 35.15625 65.921875 28.609375 65.921875 
Q 23.96875 65.921875 18.8125 64.3125 
Q 13.671875 62.703125 7.8125 59.421875 
L 7.8125 69.390625 
Q 13.765625 71.78125 18.9375 73 
Q 24.125 74.21875 28.421875 74.21875 
Q 39.75 74.21875 46.484375 68.546875 
Q 53.21875 62.890625 53.21875 53.421875 
Q 53.21875 48.921875 51.53125 44.890625 
Q 49.859375 40.875 45.40625 35.40625 
Q 44.1875 33.984375 37.640625 27.21875 
Q 31.109375 20.453125 19.1875 8.296875 
z
" id="DejaVuSans-32"/>
      </defs>
      <g transform="translate(164.573295 394.120313)scale(0.1 -0.1)">
       <use xlink:href="#DejaVuSans-32"/>
       <use x="63.623047" xlink:href="#DejaVuSans-30"/>
      </g>
     </g>
    </g>
    <g id="xtick_3">
     <g id="line2d_3">
      <g>
       <use style="stroke:#000000;stroke-width:0.8;" x="278.174432" xlink:href="#m46d699d40f" y="379.521875"/>
      </g>
     </g>
     <g id="text_3">
      <!-- 40 -->
      <defs>
       <path d="M 37.796875 64.3125 
L 12.890625 25.390625 
L 37.796875 25.390625 
z
M 35.203125 72.90625 
L 47.609375 72.90625 
L 47.609375 25.390625 
L 58.015625 25.390625 
L 58.015625 17.1875 
L 47.609375 17.1875 
L 47.609375 0 
L 37.796875 0 
L 37.796875 17.1875 
L 4.890625 17.1875 
L 4.890625 26.703125 
z
" id="DejaVuSans-34"/>
      </defs>
      <g transform="translate(271.811932 394.120313)scale(0.1 -0.1)">
       <use xlink:href="#DejaVuSans-34"/>
       <use x="63.623047" xlink:href="#DejaVuSans-30"/>
      </g>
     </g>
    </g>
    <g id="xtick_4">
     <g id="line2d_4">
      <g>
       <use style="stroke:#000000;stroke-width:0.8;" x="385.413068" xlink:href="#m46d699d40f" y="379.521875"/>
      </g>
     </g>
     <g id="text_4">
      <!-- 60 -->
      <defs>
       <path d="M 33.015625 40.375 
Q 26.375 40.375 22.484375 35.828125 
Q 18.609375 31.296875 18.609375 23.390625 
Q 18.609375 15.53125 22.484375 10.953125 
Q 26.375 6.390625 33.015625 6.390625 
Q 39.65625 6.390625 43.53125 10.953125 
Q 47.40625 15.53125 47.40625 23.390625 
Q 47.40625 31.296875 43.53125 35.828125 
Q 39.65625 40.375 33.015625 40.375 
z
M 52.59375 71.296875 
L 52.59375 62.3125 
Q 48.875 64.0625 45.09375 64.984375 
Q 41.3125 65.921875 37.59375 65.921875 
Q 27.828125 65.921875 22.671875 59.328125 
Q 17.53125 52.734375 16.796875 39.40625 
Q 19.671875 43.65625 24.015625 45.921875 
Q 28.375 48.1875 33.59375 48.1875 
Q 44.578125 48.1875 50.953125 41.515625 
Q 57.328125 34.859375 57.328125 23.390625 
Q 57.328125 12.15625 50.6875 5.359375 
Q 44.046875 -1.421875 33.015625 -1.421875 
Q 20.359375 -1.421875 13.671875 8.265625 
Q 6.984375 17.96875 6.984375 36.375 
Q 6.984375 53.65625 15.1875 63.9375 
Q 23.390625 74.21875 37.203125 74.21875 
Q 40.921875 74.21875 44.703125 73.484375 
Q 48.484375 72.75 52.59375 71.296875 
z
" id="DejaVuSans-36"/>
      </defs>
      <g transform="translate(379.050568 394.120313)scale(0.1 -0.1)">
       <use xlink:href="#DejaVuSans-36"/>
       <use x="63.623047" xlink:href="#DejaVuSans-30"/>
      </g>
     </g>
    </g>
    <g id="xtick_5">
     <g id="line2d_5">
      <g>
       <use style="stroke:#000000;stroke-width:0.8;" x="492.651705" xlink:href="#m46d699d40f" y="379.521875"/>
      </g>
     </g>
     <g id="text_5">
      <!-- 80 -->
      <defs>
       <path d="M 31.78125 34.625 
Q 24.75 34.625 20.71875 30.859375 
Q 16.703125 27.09375 16.703125 20.515625 
Q 16.703125 13.921875 20.71875 10.15625 
Q 24.75 6.390625 31.78125 6.390625 
Q 38.8125 6.390625 42.859375 10.171875 
Q 46.921875 13.96875 46.921875 20.515625 
Q 46.921875 27.09375 42.890625 30.859375 
Q 38.875 34.625 31.78125 34.625 
z
M 21.921875 38.8125 
Q 15.578125 40.375 12.03125 44.71875 
Q 8.5 49.078125 8.5 55.328125 
Q 8.5 64.0625 14.71875 69.140625 
Q 20.953125 74.21875 31.78125 74.21875 
Q 42.671875 74.21875 48.875 69.140625 
Q 55.078125 64.0625 55.078125 55.328125 
Q 55.078125 49.078125 51.53125 44.71875 
Q 48 40.375 41.703125 38.8125 
Q 48.828125 37.15625 52.796875 32.3125 
Q 56.78125 27.484375 56.78125 20.515625 
Q 56.78125 9.90625 50.3125 4.234375 
Q 43.84375 -1.421875 31.78125 -1.421875 
Q 19.734375 -1.421875 13.25 4.234375 
Q 6.78125 9.90625 6.78125 20.515625 
Q 6.78125 27.484375 10.78125 32.3125 
Q 14.796875 37.15625 21.921875 38.8125 
z
M 18.3125 54.390625 
Q 18.3125 48.734375 21.84375 45.5625 
Q 25.390625 42.390625 31.78125 42.390625 
Q 38.140625 42.390625 41.71875 45.5625 
Q 45.3125 48.734375 45.3125 54.390625 
Q 45.3125 60.0625 41.71875 63.234375 
Q 38.140625 66.40625 31.78125 66.40625 
Q 25.390625 66.40625 21.84375 63.234375 
Q 18.3125 60.0625 18.3125 54.390625 
z
" id="DejaVuSans-38"/>
      </defs>
      <g transform="translate(486.289205 394.120313)scale(0.1 -0.1)">
       <use xlink:href="#DejaVuSans-38"/>
       <use x="63.623047" xlink:href="#DejaVuSans-30"/>
      </g>
     </g>
    </g>
    <g id="xtick_6">
     <g id="line2d_6">
      <g>
       <use style="stroke:#000000;stroke-width:0.8;" x="599.890341" xlink:href="#m46d699d40f" y="379.521875"/>
      </g>
     </g>
     <g id="text_6">
      <!-- 100 -->
      <defs>
       <path d="M 12.40625 8.296875 
L 28.515625 8.296875 
L 28.515625 63.921875 
L 10.984375 60.40625 
L 10.984375 69.390625 
L 28.421875 72.90625 
L 38.28125 72.90625 
L 38.28125 8.296875 
L 54.390625 8.296875 
L 54.390625 0 
L 12.40625 0 
z
" id="DejaVuSans-31"/>
      </defs>
      <g transform="translate(590.346591 394.120313)scale(0.1 -0.1)">
       <use xlink:href="#DejaVuSans-31"/>
       <use x="63.623047" xlink:href="#DejaVuSans-30"/>
       <use x="127.246094" xlink:href="#DejaVuSans-30"/>
      </g>
     </g>
    </g>
   </g>
   <g id="matplotlib.axis_2">
    <g id="ytick_1">
     <g id="line2d_7">
      <defs>
       <path d="M 0 0 
L -3.5 0 
" id="m10fdd08b2b" style="stroke:#000000;stroke-width:0.8;"/>
      </defs>
      <g>
       <use style="stroke:#000000;stroke-width:0.8;" x="36.8875" xlink:href="#m10fdd08b2b" y="362.920881"/>
      </g>
     </g>
     <g id="text_7">
      <!-- 0 -->
      <g transform="translate(23.525 366.720099)scale(0.1 -0.1)">
       <use xlink:href="#DejaVuSans-30"/>
      </g>
     </g>
    </g>
    <g id="ytick_2">
     <g id="line2d_8">
      <g>
       <use style="stroke:#000000;stroke-width:0.8;" x="36.8875" xlink:href="#m10fdd08b2b" y="299.070903"/>
      </g>
     </g>
     <g id="text_8">
      <!-- 20 -->
      <g transform="translate(17.1625 302.870121)scale(0.1 -0.1)">
       <use xlink:href="#DejaVuSans-32"/>
       <use x="63.623047" xlink:href="#DejaVuSans-30"/>
      </g>
     </g>
    </g>
    <g id="ytick_3">
     <g id="line2d_9">
      <g>
       <use style="stroke:#000000;stroke-width:0.8;" x="36.8875" xlink:href="#m10fdd08b2b" y="235.220924"/>
      </g>
     </g>
     <g id="text_9">
      <!-- 40 -->
      <g transform="translate(17.1625 239.020143)scale(0.1 -0.1)">
       <use xlink:href="#DejaVuSans-34"/>
       <use x="63.623047" xlink:href="#DejaVuSans-30"/>
      </g>
     </g>
    </g>
    <g id="ytick_4">
     <g id="line2d_10">
      <g>
       <use style="stroke:#000000;stroke-width:0.8;" x="36.8875" xlink:href="#m10fdd08b2b" y="171.370946"/>
      </g>
     </g>
     <g id="text_10">
      <!-- 60 -->
      <g transform="translate(17.1625 175.170165)scale(0.1 -0.1)">
       <use xlink:href="#DejaVuSans-36"/>
       <use x="63.623047" xlink:href="#DejaVuSans-30"/>
      </g>
     </g>
    </g>
    <g id="ytick_5">
     <g id="line2d_11">
      <g>
       <use style="stroke:#000000;stroke-width:0.8;" x="36.8875" xlink:href="#m10fdd08b2b" y="107.520968"/>
      </g>
     </g>
     <g id="text_11">
      <!-- 80 -->
      <g transform="translate(17.1625 111.320187)scale(0.1 -0.1)">
       <use xlink:href="#DejaVuSans-38"/>
       <use x="63.623047" xlink:href="#DejaVuSans-30"/>
      </g>
     </g>
    </g>
    <g id="ytick_6">
     <g id="line2d_12">
      <g>
       <use style="stroke:#000000;stroke-width:0.8;" x="36.8875" xlink:href="#m10fdd08b2b" y="43.67099"/>
      </g>
     </g>
     <g id="text_12">
      <!-- 100 -->
      <g transform="translate(10.8 47.470209)scale(0.1 -0.1)">
       <use xlink:href="#DejaVuSans-31"/>
       <use x="63.623047" xlink:href="#DejaVuSans-30"/>
       <use x="127.246094" xlink:href="#DejaVuSans-30"/>
      </g>
     </g>
    </g>
   </g>
   <g id="line2d_13">
    <path clip-path="url(#pcf5f3ac580)" d="M 63.697159 362.920881 
L 69.059091 359.728382 
L 74.421023 356.535883 
L 79.782955 353.343384 
L 85.144886 356.535883 
L 90.506818 346.958386 
L 95.86875 350.150885 
L 101.230682 343.765887 
L 106.592614 340.573388 
L 111.954545 321.418395 
L 117.316477 324.610894 
L 122.678409 321.418395 
L 128.040341 318.225896 
L 133.402273 321.418395 
L 138.764205 324.610894 
L 144.126136 321.418395 
L 149.488068 324.610894 
L 154.85 321.418395 
L 160.211932 318.225896 
L 165.573864 315.033397 
L 170.935795 311.840898 
L 176.297727 308.648399 
L 181.659659 305.4559 
L 187.021591 302.263401 
L 192.383523 299.070903 
L 197.745455 295.878404 
L 203.107386 292.685905 
L 208.469318 289.493406 
L 213.83125 286.300907 
L 219.193182 283.108408 
L 224.555114 279.915909 
L 229.917045 283.108408 
L 235.278977 279.915909 
L 240.640909 276.72341 
L 246.002841 273.530911 
L 251.364773 276.72341 
L 256.726705 279.915909 
L 262.088636 283.108408 
L 267.450568 279.915909 
L 272.8125 283.108408 
L 278.174432 270.338412 
L 283.536364 273.530911 
L 288.898295 276.72341 
L 294.260227 273.530911 
L 299.622159 267.145913 
L 304.984091 263.953415 
L 310.346023 247.99092 
L 315.707955 251.183419 
L 321.069886 247.99092 
L 326.431818 244.798421 
L 331.79375 232.028425 
L 337.155682 235.220924 
L 342.517614 232.028425 
L 347.879545 228.835927 
L 353.241477 232.028425 
L 358.603409 235.220924 
L 363.965341 232.028425 
L 369.327273 228.835927 
L 374.689205 225.643428 
L 380.051136 228.835927 
L 385.413068 232.028425 
L 390.775 235.220924 
L 396.136932 232.028425 
L 401.498864 235.220924 
L 406.860795 238.413423 
L 412.222727 235.220924 
L 417.584659 238.413423 
L 422.946591 241.605922 
L 428.308523 244.798421 
L 433.670455 241.605922 
L 439.032386 238.413423 
L 444.394318 241.605922 
L 449.75625 244.798421 
L 455.118182 247.99092 
L 460.480114 244.798421 
L 465.842045 241.605922 
L 471.203977 238.413423 
L 476.565909 241.605922 
L 481.927841 244.798421 
L 487.289773 241.605922 
L 492.651705 238.413423 
L 498.013636 235.220924 
L 503.375568 232.028425 
L 508.7375 235.220924 
L 514.099432 232.028425 
L 519.461364 235.220924 
L 524.823295 232.028425 
L 530.185227 228.835927 
L 535.547159 225.643428 
L 540.909091 222.450929 
L 546.271023 219.25843 
L 551.632955 203.295935 
L 556.994886 187.333441 
L 562.356818 190.52594 
L 567.71875 187.333441 
L 573.080682 184.140942 
L 578.442614 187.333441 
L 583.804545 184.140942 
L 589.166477 164.985948 
L 594.528409 168.178447 
L 599.890341 164.985948 
" style="fill:none;stroke:#1f77b4;stroke-linecap:square;stroke-width:1.5;"/>
   </g>
   <g id="line2d_14">
    <path clip-path="url(#pcf5f3ac580)" d="M 63.697159 362.920881 
L 69.059091 362.920881 
L 74.421023 359.728382 
L 79.782955 362.920881 
L 85.144886 359.728382 
L 90.506818 356.535883 
L 95.86875 353.343384 
L 101.230682 356.535883 
L 106.592614 359.728382 
L 111.954545 356.535883 
L 117.316477 353.343384 
L 122.678409 350.150885 
L 128.040341 353.343384 
L 133.402273 356.535883 
L 138.764205 359.728382 
L 144.126136 353.343384 
L 149.488068 350.150885 
L 154.85 346.958386 
L 160.211932 350.150885 
L 165.573864 353.343384 
L 170.935795 356.535883 
L 176.297727 353.343384 
L 181.659659 350.150885 
L 187.021591 346.958386 
L 192.383523 350.150885 
L 197.745455 353.343384 
L 203.107386 350.150885 
L 208.469318 340.573388 
L 213.83125 324.610894 
L 219.193182 315.033397 
L 224.555114 311.840898 
L 229.917045 308.648399 
L 235.278977 289.493406 
L 240.640909 286.300907 
L 246.002841 283.108408 
L 251.364773 279.915909 
L 256.726705 283.108408 
L 262.088636 276.72341 
L 267.450568 260.760916 
L 272.8125 257.568417 
L 278.174432 254.375918 
L 283.536364 251.183419 
L 288.898295 247.99092 
L 294.260227 244.798421 
L 299.622159 241.605922 
L 304.984091 244.798421 
L 310.346023 241.605922 
L 315.707955 238.413423 
L 321.069886 235.220924 
L 326.431818 232.028425 
L 331.79375 228.835927 
L 337.155682 222.450929 
L 342.517614 209.680933 
L 347.879545 206.488434 
L 353.241477 203.295935 
L 358.603409 200.103436 
L 363.965341 196.910938 
L 369.327273 184.140942 
L 374.689205 168.178447 
L 380.051136 171.370946 
L 385.413068 174.563445 
L 390.775 177.755944 
L 396.136932 180.948443 
L 401.498864 171.370946 
L 406.860795 168.178447 
L 412.222727 164.985948 
L 417.584659 161.79345 
L 422.946591 164.985948 
L 428.308523 168.178447 
L 433.670455 158.600951 
L 439.032386 155.408452 
L 444.394318 158.600951 
L 449.75625 161.79345 
L 455.118182 164.985948 
L 460.480114 161.79345 
L 465.842045 158.600951 
L 471.203977 155.408452 
L 476.565909 152.215953 
L 481.927841 155.408452 
L 487.289773 152.215953 
L 492.651705 155.408452 
L 498.013636 152.215953 
L 503.375568 149.023454 
L 508.7375 152.215953 
L 514.099432 149.023454 
L 519.461364 145.830955 
L 524.823295 142.638456 
L 530.185227 139.445957 
L 535.547159 136.253458 
L 540.909091 133.060959 
L 546.271023 129.86846 
L 551.632955 133.060959 
L 556.994886 136.253458 
L 562.356818 133.060959 
L 567.71875 129.86846 
L 573.080682 120.290964 
L 578.442614 117.098465 
L 583.804545 120.290964 
L 589.166477 123.483463 
L 594.528409 120.290964 
L 599.890341 117.098465 
" style="fill:none;stroke:#ff7f0e;stroke-linecap:square;stroke-width:1.5;"/>
   </g>
   <g id="line2d_15">
    <path clip-path="url(#pcf5f3ac580)" d="M 63.697159 362.920881 
L 69.059091 359.728382 
L 74.421023 343.765887 
L 79.782955 346.958386 
L 85.144886 350.150885 
L 90.506818 353.343384 
L 95.86875 356.535883 
L 101.230682 359.728382 
L 106.592614 362.920881 
L 111.954545 359.728382 
L 117.316477 362.920881 
L 122.678409 362.920881 
L 128.040341 359.728382 
L 133.402273 350.150885 
L 138.764205 353.343384 
L 144.126136 356.535883 
L 149.488068 353.343384 
L 154.85 350.150885 
L 160.211932 346.958386 
L 165.573864 350.150885 
L 170.935795 346.958386 
L 176.297727 343.765887 
L 181.659659 340.573388 
L 187.021591 337.380889 
L 192.383523 334.188391 
L 197.745455 330.995892 
L 203.107386 327.803393 
L 208.469318 324.610894 
L 213.83125 315.033397 
L 219.193182 295.878404 
L 224.555114 292.685905 
L 229.917045 289.493406 
L 235.278977 286.300907 
L 240.640909 283.108408 
L 246.002841 279.915909 
L 251.364773 283.108408 
L 256.726705 286.300907 
L 262.088636 289.493406 
L 267.450568 286.300907 
L 272.8125 283.108408 
L 278.174432 279.915909 
L 283.536364 276.72341 
L 288.898295 270.338412 
L 294.260227 267.145913 
L 299.622159 263.953415 
L 304.984091 260.760916 
L 310.346023 254.375918 
L 315.707955 241.605922 
L 321.069886 244.798421 
L 326.431818 247.99092 
L 331.79375 251.183419 
L 337.155682 254.375918 
L 342.517614 251.183419 
L 347.879545 247.99092 
L 353.241477 244.798421 
L 358.603409 247.99092 
L 363.965341 251.183419 
L 369.327273 254.375918 
L 374.689205 257.568417 
L 380.051136 260.760916 
L 385.413068 263.953415 
L 390.775 260.760916 
L 396.136932 247.99092 
L 401.498864 235.220924 
L 406.860795 232.028425 
L 412.222727 228.835927 
L 417.584659 232.028425 
L 422.946591 235.220924 
L 428.308523 232.028425 
L 433.670455 228.835927 
L 439.032386 225.643428 
L 444.394318 206.488434 
L 449.75625 203.295935 
L 455.118182 206.488434 
L 460.480114 209.680933 
L 465.842045 206.488434 
L 471.203977 209.680933 
L 476.565909 206.488434 
L 481.927841 209.680933 
L 487.289773 206.488434 
L 492.651705 203.295935 
L 498.013636 206.488434 
L 503.375568 203.295935 
L 508.7375 206.488434 
L 514.099432 209.680933 
L 519.461364 206.488434 
L 524.823295 203.295935 
L 530.185227 206.488434 
L 535.547159 203.295935 
L 540.909091 206.488434 
L 546.271023 203.295935 
L 551.632955 193.718439 
L 556.994886 190.52594 
L 562.356818 187.333441 
L 567.71875 184.140942 
L 573.080682 180.948443 
L 578.442614 184.140942 
L 583.804545 180.948443 
L 589.166477 177.755944 
L 594.528409 161.79345 
L 599.890341 164.985948 
" style="fill:none;stroke:#2ca02c;stroke-linecap:square;stroke-width:1.5;"/>
   </g>
   <g id="line2d_16">
    <path clip-path="url(#pcf5f3ac580)" d="M 63.697159 362.920881 
L 69.059091 359.728382 
L 74.421023 356.535883 
L 79.782955 353.343384 
L 85.144886 340.573388 
L 90.506818 343.765887 
L 95.86875 346.958386 
L 101.230682 343.765887 
L 106.592614 340.573388 
L 111.954545 334.188391 
L 117.316477 337.380889 
L 122.678409 340.573388 
L 128.040341 337.380889 
L 133.402273 327.803393 
L 138.764205 330.995892 
L 144.126136 327.803393 
L 149.488068 330.995892 
L 154.85 311.840898 
L 160.211932 308.648399 
L 165.573864 305.4559 
L 170.935795 302.263401 
L 176.297727 299.070903 
L 181.659659 302.263401 
L 187.021591 305.4559 
L 192.383523 302.263401 
L 197.745455 292.685905 
L 203.107386 295.878404 
L 208.469318 292.685905 
L 213.83125 289.493406 
L 219.193182 286.300907 
L 224.555114 283.108408 
L 229.917045 279.915909 
L 235.278977 267.145913 
L 240.640909 270.338412 
L 246.002841 267.145913 
L 251.364773 270.338412 
L 256.726705 267.145913 
L 262.088636 263.953415 
L 267.450568 260.760916 
L 272.8125 257.568417 
L 278.174432 254.375918 
L 283.536364 251.183419 
L 288.898295 247.99092 
L 294.260227 251.183419 
L 299.622159 247.99092 
L 304.984091 244.798421 
L 310.346023 241.605922 
L 315.707955 238.413423 
L 321.069886 235.220924 
L 326.431818 238.413423 
L 331.79375 228.835927 
L 337.155682 225.643428 
L 342.517614 222.450929 
L 347.879545 225.643428 
L 353.241477 222.450929 
L 358.603409 225.643428 
L 363.965341 222.450929 
L 369.327273 225.643428 
L 374.689205 222.450929 
L 380.051136 225.643428 
L 385.413068 228.835927 
L 390.775 225.643428 
L 396.136932 222.450929 
L 401.498864 219.25843 
L 406.860795 216.065931 
L 412.222727 212.873432 
L 417.584659 216.065931 
L 422.946591 219.25843 
L 428.308523 222.450929 
L 433.670455 219.25843 
L 439.032386 216.065931 
L 444.394318 219.25843 
L 449.75625 216.065931 
L 455.118182 219.25843 
L 460.480114 216.065931 
L 465.842045 212.873432 
L 471.203977 216.065931 
L 476.565909 212.873432 
L 481.927841 216.065931 
L 487.289773 219.25843 
L 492.651705 216.065931 
L 498.013636 212.873432 
L 503.375568 196.910938 
L 508.7375 200.103436 
L 514.099432 196.910938 
L 519.461364 193.718439 
L 524.823295 196.910938 
L 530.185227 193.718439 
L 535.547159 190.52594 
L 540.909091 171.370946 
L 546.271023 168.178447 
L 551.632955 171.370946 
L 556.994886 174.563445 
L 562.356818 171.370946 
L 567.71875 158.600951 
L 573.080682 161.79345 
L 578.442614 164.985948 
L 583.804545 168.178447 
L 589.166477 171.370946 
L 594.528409 174.563445 
L 599.890341 177.755944 
" style="fill:none;stroke:#d62728;stroke-linecap:square;stroke-width:1.5;"/>
   </g>
   <g id="line2d_17">
    <path clip-path="url(#pcf5f3ac580)" d="M 63.697159 362.920881 
L 69.059091 359.728382 
L 74.421023 356.535883 
L 79.782955 340.573388 
L 85.144886 334.188391 
L 90.506818 321.418395 
L 95.86875 324.610894 
L 101.230682 308.648399 
L 106.592614 305.4559 
L 111.954545 302.263401 
L 117.316477 305.4559 
L 122.678409 308.648399 
L 128.040341 305.4559 
L 133.402273 302.263401 
L 138.764205 299.070903 
L 144.126136 302.263401 
L 149.488068 305.4559 
L 154.85 302.263401 
L 160.211932 299.070903 
L 165.573864 295.878404 
L 170.935795 292.685905 
L 176.297727 295.878404 
L 181.659659 299.070903 
L 187.021591 295.878404 
L 192.383523 292.685905 
L 197.745455 289.493406 
L 203.107386 286.300907 
L 208.469318 267.145913 
L 213.83125 260.760916 
L 219.193182 257.568417 
L 224.555114 241.605922 
L 229.917045 238.413423 
L 235.278977 241.605922 
L 240.640909 244.798421 
L 246.002841 241.605922 
L 251.364773 238.413423 
L 256.726705 222.450929 
L 262.088636 225.643428 
L 267.450568 222.450929 
L 272.8125 219.25843 
L 278.174432 212.873432 
L 283.536364 209.680933 
L 288.898295 212.873432 
L 294.260227 209.680933 
L 299.622159 206.488434 
L 304.984091 203.295935 
L 310.346023 206.488434 
L 315.707955 203.295935 
L 321.069886 206.488434 
L 326.431818 209.680933 
L 331.79375 212.873432 
L 337.155682 209.680933 
L 342.517614 212.873432 
L 347.879545 216.065931 
L 353.241477 212.873432 
L 358.603409 216.065931 
L 363.965341 212.873432 
L 369.327273 196.910938 
L 374.689205 193.718439 
L 380.051136 190.52594 
L 385.413068 187.333441 
L 390.775 184.140942 
L 396.136932 187.333441 
L 401.498864 184.140942 
L 406.860795 187.333441 
L 412.222727 180.948443 
L 417.584659 177.755944 
L 422.946591 180.948443 
L 428.308523 177.755944 
L 433.670455 180.948443 
L 439.032386 184.140942 
L 444.394318 180.948443 
L 449.75625 184.140942 
L 455.118182 164.985948 
L 460.480114 161.79345 
L 465.842045 164.985948 
L 471.203977 161.79345 
L 476.565909 158.600951 
L 481.927841 155.408452 
L 487.289773 158.600951 
L 492.651705 152.215953 
L 498.013636 149.023454 
L 503.375568 136.253458 
L 508.7375 133.060959 
L 514.099432 129.86846 
L 519.461364 133.060959 
L 524.823295 136.253458 
L 530.185227 133.060959 
L 535.547159 129.86846 
L 540.909091 126.675962 
L 546.271023 123.483463 
L 551.632955 113.905966 
L 556.994886 117.098465 
L 562.356818 120.290964 
L 567.71875 117.098465 
L 573.080682 113.905966 
L 578.442614 117.098465 
L 583.804545 113.905966 
L 589.166477 110.713467 
L 594.528409 113.905966 
L 599.890341 97.943471 
" style="fill:none;stroke:#9467bd;stroke-linecap:square;stroke-width:1.5;"/>
   </g>
   <g id="line2d_18">
    <path clip-path="url(#pcf5f3ac580)" d="M 63.697159 362.920881 
L 69.059091 359.728382 
L 74.421023 356.535883 
L 79.782955 337.380889 
L 85.144886 334.188391 
L 90.506818 330.995892 
L 95.86875 334.188391 
L 101.230682 337.380889 
L 106.592614 334.188391 
L 111.954545 330.995892 
L 117.316477 327.803393 
L 122.678409 324.610894 
L 128.040341 321.418395 
L 133.402273 318.225896 
L 138.764205 315.033397 
L 144.126136 299.070903 
L 149.488068 302.263401 
L 154.85 305.4559 
L 160.211932 308.648399 
L 165.573864 305.4559 
L 170.935795 302.263401 
L 176.297727 299.070903 
L 181.659659 302.263401 
L 187.021591 289.493406 
L 192.383523 270.338412 
L 197.745455 267.145913 
L 203.107386 251.183419 
L 208.469318 247.99092 
L 213.83125 251.183419 
L 219.193182 247.99092 
L 224.555114 228.835927 
L 229.917045 232.028425 
L 235.278977 228.835927 
L 240.640909 232.028425 
L 246.002841 228.835927 
L 251.364773 232.028425 
L 256.726705 228.835927 
L 262.088636 232.028425 
L 267.450568 228.835927 
L 272.8125 212.873432 
L 278.174432 209.680933 
L 283.536364 212.873432 
L 288.898295 209.680933 
L 294.260227 206.488434 
L 299.622159 203.295935 
L 304.984091 200.103436 
L 310.346023 203.295935 
L 315.707955 200.103436 
L 321.069886 196.910938 
L 326.431818 193.718439 
L 331.79375 196.910938 
L 337.155682 193.718439 
L 342.517614 184.140942 
L 347.879545 187.333441 
L 353.241477 184.140942 
L 358.603409 180.948443 
L 363.965341 177.755944 
L 369.327273 174.563445 
L 374.689205 164.985948 
L 380.051136 168.178447 
L 385.413068 171.370946 
L 390.775 152.215953 
L 396.136932 149.023454 
L 401.498864 142.638456 
L 406.860795 133.060959 
L 412.222727 129.86846 
L 417.584659 120.290964 
L 422.946591 117.098465 
L 428.308523 113.905966 
L 433.670455 110.713467 
L 439.032386 107.520968 
L 444.394318 104.328469 
L 449.75625 101.13597 
L 455.118182 104.328469 
L 460.480114 101.13597 
L 465.842045 97.943471 
L 471.203977 101.13597 
L 476.565909 97.943471 
L 481.927841 101.13597 
L 487.289773 104.328469 
L 492.651705 101.13597 
L 498.013636 91.558474 
L 503.375568 94.750972 
L 508.7375 97.943471 
L 514.099432 94.750972 
L 519.461364 91.558474 
L 524.823295 94.750972 
L 530.185227 91.558474 
L 535.547159 72.40348 
L 540.909091 75.595979 
L 546.271023 72.40348 
L 551.632955 75.595979 
L 556.994886 72.40348 
L 562.356818 69.210981 
L 567.71875 72.40348 
L 573.080682 75.595979 
L 578.442614 78.788478 
L 583.804545 72.40348 
L 589.166477 75.595979 
L 594.528409 59.633484 
L 599.890341 56.440986 
" style="fill:none;stroke:#8c564b;stroke-linecap:square;stroke-width:1.5;"/>
   </g>
   <g id="line2d_19">
    <path clip-path="url(#pcf5f3ac580)" d="M 63.697159 362.920881 
L 69.059091 353.343384 
L 74.421023 350.150885 
L 79.782955 346.958386 
L 85.144886 343.765887 
L 90.506818 327.803393 
L 95.86875 308.648399 
L 101.230682 299.070903 
L 106.592614 289.493406 
L 111.954545 292.685905 
L 117.316477 289.493406 
L 122.678409 286.300907 
L 128.040341 289.493406 
L 133.402273 279.915909 
L 138.764205 283.108408 
L 144.126136 279.915909 
L 149.488068 276.72341 
L 154.85 273.530911 
L 160.211932 270.338412 
L 165.573864 273.530911 
L 170.935795 270.338412 
L 176.297727 267.145913 
L 181.659659 247.99092 
L 187.021591 251.183419 
L 192.383523 247.99092 
L 197.745455 244.798421 
L 203.107386 241.605922 
L 208.469318 238.413423 
L 213.83125 235.220924 
L 219.193182 232.028425 
L 224.555114 228.835927 
L 229.917045 225.643428 
L 235.278977 222.450929 
L 240.640909 203.295935 
L 246.002841 184.140942 
L 251.364773 177.755944 
L 256.726705 180.948443 
L 262.088636 171.370946 
L 267.450568 161.79345 
L 272.8125 158.600951 
L 278.174432 161.79345 
L 283.536364 164.985948 
L 288.898295 145.830955 
L 294.260227 142.638456 
L 299.622159 133.060959 
L 304.984091 129.86846 
L 310.346023 126.675962 
L 315.707955 123.483463 
L 321.069886 120.290964 
L 326.431818 117.098465 
L 331.79375 113.905966 
L 337.155682 110.713467 
L 342.517614 113.905966 
L 347.879545 117.098465 
L 353.241477 113.905966 
L 358.603409 117.098465 
L 363.965341 113.905966 
L 369.327273 117.098465 
L 374.689205 113.905966 
L 380.051136 117.098465 
L 385.413068 120.290964 
L 390.775 117.098465 
L 396.136932 113.905966 
L 401.498864 110.713467 
L 406.860795 113.905966 
L 412.222727 110.713467 
L 417.584659 113.905966 
L 422.946591 97.943471 
L 428.308523 101.13597 
L 433.670455 104.328469 
L 439.032386 101.13597 
L 444.394318 88.365975 
L 449.75625 85.173476 
L 455.118182 81.980977 
L 460.480114 85.173476 
L 465.842045 81.980977 
L 471.203977 85.173476 
L 476.565909 81.980977 
L 481.927841 85.173476 
L 487.289773 88.365975 
L 492.651705 91.558474 
L 498.013636 88.365975 
L 503.375568 85.173476 
L 508.7375 81.980977 
L 514.099432 78.788478 
L 519.461364 81.980977 
L 524.823295 78.788478 
L 530.185227 81.980977 
L 535.547159 78.788478 
L 540.909091 75.595979 
L 546.271023 78.788478 
L 551.632955 75.595979 
L 556.994886 78.788478 
L 562.356818 75.595979 
L 567.71875 78.788478 
L 573.080682 81.980977 
L 578.442614 78.788478 
L 583.804545 75.595979 
L 589.166477 72.40348 
L 594.528409 69.210981 
L 599.890341 72.40348 
" style="fill:none;stroke:#e377c2;stroke-linecap:square;stroke-width:1.5;"/>
   </g>
   <g id="line2d_20">
    <path clip-path="url(#pcf5f3ac580)" d="M 63.697159 362.920881 
L 69.059091 356.535883 
L 74.421023 350.150885 
L 79.782955 346.958386 
L 85.144886 343.765887 
L 90.506818 346.958386 
L 95.86875 343.765887 
L 101.230682 340.573388 
L 106.592614 337.380889 
L 111.954545 340.573388 
L 117.316477 324.610894 
L 122.678409 327.803393 
L 128.040341 324.610894 
L 133.402273 321.418395 
L 138.764205 324.610894 
L 144.126136 311.840898 
L 149.488068 299.070903 
L 154.85 279.915909 
L 160.211932 276.72341 
L 165.573864 279.915909 
L 170.935795 276.72341 
L 176.297727 273.530911 
L 181.659659 270.338412 
L 187.021591 273.530911 
L 192.383523 260.760916 
L 197.745455 257.568417 
L 203.107386 244.798421 
L 208.469318 247.99092 
L 213.83125 244.798421 
L 219.193182 241.605922 
L 224.555114 238.413423 
L 229.917045 235.220924 
L 235.278977 232.028425 
L 240.640909 228.835927 
L 246.002841 225.643428 
L 251.364773 228.835927 
L 256.726705 232.028425 
L 262.088636 228.835927 
L 267.450568 232.028425 
L 272.8125 228.835927 
L 278.174432 232.028425 
L 283.536364 228.835927 
L 288.898295 225.643428 
L 294.260227 209.680933 
L 299.622159 193.718439 
L 304.984091 196.910938 
L 310.346023 200.103436 
L 315.707955 196.910938 
L 321.069886 193.718439 
L 326.431818 190.52594 
L 331.79375 187.333441 
L 337.155682 190.52594 
L 342.517614 187.333441 
L 347.879545 190.52594 
L 353.241477 193.718439 
L 358.603409 190.52594 
L 363.965341 193.718439 
L 369.327273 190.52594 
L 374.689205 193.718439 
L 380.051136 190.52594 
L 385.413068 180.948443 
L 390.775 177.755944 
L 396.136932 180.948443 
L 401.498864 177.755944 
L 406.860795 161.79345 
L 412.222727 158.600951 
L 417.584659 155.408452 
L 422.946591 136.253458 
L 428.308523 117.098465 
L 433.670455 120.290964 
L 439.032386 117.098465 
L 444.394318 113.905966 
L 449.75625 117.098465 
L 455.118182 120.290964 
L 460.480114 117.098465 
L 465.842045 113.905966 
L 471.203977 117.098465 
L 476.565909 97.943471 
L 481.927841 94.750972 
L 487.289773 91.558474 
L 492.651705 88.365975 
L 498.013636 91.558474 
L 503.375568 81.980977 
L 508.7375 85.173476 
L 514.099432 88.365975 
L 519.461364 85.173476 
L 524.823295 81.980977 
L 530.185227 85.173476 
L 535.547159 66.018482 
L 540.909091 50.055988 
L 546.271023 53.248487 
L 551.632955 50.055988 
L 556.994886 53.248487 
L 562.356818 50.055988 
L 567.71875 46.863489 
L 573.080682 43.67099 
L 578.442614 40.478491 
L 583.804545 37.285992 
L 589.166477 34.093493 
L 594.528409 37.285992 
L 599.890341 30.900994 
" style="fill:none;stroke:#7f7f7f;stroke-linecap:square;stroke-width:1.5;"/>
   </g>
   <g id="line2d_21">
    <path clip-path="url(#pcf5f3ac580)" d="M 63.697159 362.920881 
L 69.059091 362.920881 
L 74.421023 359.728382 
L 79.782955 356.535883 
L 85.144886 353.343384 
L 90.506818 350.150885 
L 95.86875 346.958386 
L 101.230682 350.150885 
L 106.592614 353.343384 
L 111.954545 356.535883 
L 117.316477 353.343384 
L 122.678409 356.535883 
L 128.040341 353.343384 
L 133.402273 356.535883 
L 138.764205 359.728382 
L 144.126136 346.958386 
L 149.488068 340.573388 
L 154.85 324.610894 
L 160.211932 327.803393 
L 165.573864 308.648399 
L 170.935795 305.4559 
L 176.297727 308.648399 
L 181.659659 305.4559 
L 187.021591 302.263401 
L 192.383523 299.070903 
L 197.745455 295.878404 
L 203.107386 286.300907 
L 208.469318 283.108408 
L 213.83125 279.915909 
L 219.193182 276.72341 
L 224.555114 267.145913 
L 229.917045 270.338412 
L 235.278977 267.145913 
L 240.640909 270.338412 
L 246.002841 273.530911 
L 251.364773 260.760916 
L 256.726705 263.953415 
L 262.088636 260.760916 
L 267.450568 257.568417 
L 272.8125 238.413423 
L 278.174432 241.605922 
L 283.536364 238.413423 
L 288.898295 235.220924 
L 294.260227 232.028425 
L 299.622159 228.835927 
L 304.984091 232.028425 
L 310.346023 228.835927 
L 315.707955 222.450929 
L 321.069886 219.25843 
L 326.431818 216.065931 
L 331.79375 219.25843 
L 337.155682 216.065931 
L 342.517614 212.873432 
L 347.879545 216.065931 
L 353.241477 212.873432 
L 358.603409 209.680933 
L 363.965341 206.488434 
L 369.327273 203.295935 
L 374.689205 184.140942 
L 380.051136 180.948443 
L 385.413068 177.755944 
L 390.775 174.563445 
L 396.136932 171.370946 
L 401.498864 168.178447 
L 406.860795 171.370946 
L 412.222727 174.563445 
L 417.584659 171.370946 
L 422.946591 174.563445 
L 428.308523 171.370946 
L 433.670455 168.178447 
L 439.032386 164.985948 
L 444.394318 168.178447 
L 449.75625 164.985948 
L 455.118182 168.178447 
L 460.480114 149.023454 
L 465.842045 145.830955 
L 471.203977 149.023454 
L 476.565909 152.215953 
L 481.927841 149.023454 
L 487.289773 152.215953 
L 492.651705 149.023454 
L 498.013636 145.830955 
L 503.375568 142.638456 
L 508.7375 139.445957 
L 514.099432 142.638456 
L 519.461364 145.830955 
L 524.823295 142.638456 
L 530.185227 145.830955 
L 535.547159 149.023454 
L 540.909091 145.830955 
L 546.271023 142.638456 
L 551.632955 145.830955 
L 556.994886 149.023454 
L 562.356818 145.830955 
L 567.71875 149.023454 
L 573.080682 152.215953 
L 578.442614 149.023454 
L 583.804545 145.830955 
L 589.166477 142.638456 
L 594.528409 145.830955 
L 599.890341 142.638456 
" style="fill:none;stroke:#bcbd22;stroke-linecap:square;stroke-width:1.5;"/>
   </g>
   <g id="line2d_22">
    <path clip-path="url(#pcf5f3ac580)" d="M 63.697159 362.920881 
L 69.059091 350.150885 
L 74.421023 353.343384 
L 79.782955 350.150885 
L 85.144886 346.958386 
L 90.506818 343.765887 
L 95.86875 340.573388 
L 101.230682 337.380889 
L 106.592614 334.188391 
L 111.954545 337.380889 
L 117.316477 340.573388 
L 122.678409 324.610894 
L 128.040341 321.418395 
L 133.402273 324.610894 
L 138.764205 321.418395 
L 144.126136 318.225896 
L 149.488068 315.033397 
L 154.85 311.840898 
L 160.211932 305.4559 
L 165.573864 308.648399 
L 170.935795 305.4559 
L 176.297727 302.263401 
L 181.659659 289.493406 
L 187.021591 286.300907 
L 192.383523 283.108408 
L 197.745455 286.300907 
L 203.107386 289.493406 
L 208.469318 292.685905 
L 213.83125 289.493406 
L 219.193182 292.685905 
L 224.555114 295.878404 
L 229.917045 292.685905 
L 235.278977 279.915909 
L 240.640909 276.72341 
L 246.002841 279.915909 
L 251.364773 276.72341 
L 256.726705 273.530911 
L 262.088636 260.760916 
L 267.450568 257.568417 
L 272.8125 254.375918 
L 278.174432 251.183419 
L 283.536364 247.99092 
L 288.898295 251.183419 
L 294.260227 247.99092 
L 299.622159 244.798421 
L 304.984091 241.605922 
L 310.346023 238.413423 
L 315.707955 241.605922 
L 321.069886 244.798421 
L 326.431818 238.413423 
L 331.79375 235.220924 
L 337.155682 238.413423 
L 342.517614 235.220924 
L 347.879545 232.028425 
L 353.241477 225.643428 
L 358.603409 222.450929 
L 363.965341 225.643428 
L 369.327273 222.450929 
L 374.689205 225.643428 
L 380.051136 222.450929 
L 385.413068 225.643428 
L 390.775 222.450929 
L 396.136932 219.25843 
L 401.498864 206.488434 
L 406.860795 203.295935 
L 412.222727 206.488434 
L 417.584659 209.680933 
L 422.946591 212.873432 
L 428.308523 209.680933 
L 433.670455 212.873432 
L 439.032386 216.065931 
L 444.394318 219.25843 
L 449.75625 216.065931 
L 455.118182 219.25843 
L 460.480114 216.065931 
L 465.842045 219.25843 
L 471.203977 216.065931 
L 476.565909 206.488434 
L 481.927841 203.295935 
L 487.289773 200.103436 
L 492.651705 196.910938 
L 498.013636 193.718439 
L 503.375568 196.910938 
L 508.7375 193.718439 
L 514.099432 190.52594 
L 519.461364 180.948443 
L 524.823295 184.140942 
L 530.185227 187.333441 
L 535.547159 174.563445 
L 540.909091 161.79345 
L 546.271023 158.600951 
L 551.632955 155.408452 
L 556.994886 139.445957 
L 562.356818 136.253458 
L 567.71875 139.445957 
L 573.080682 142.638456 
L 578.442614 139.445957 
L 583.804545 136.253458 
L 589.166477 139.445957 
L 594.528409 129.86846 
L 599.890341 126.675962 
" style="fill:none;stroke:#17becf;stroke-linecap:square;stroke-width:1.5;"/>
   </g>
   <g id="patch_3">
    <path d="M 36.8875 379.521875 
L 36.8875 14.3 
" style="fill:none;stroke:#000000;stroke-linecap:square;stroke-linejoin:miter;stroke-width:0.8;"/>
   </g>
   <g id="patch_4">
    <path d="M 626.7 379.521875 
L 626.7 14.3 
" style="fill:none;stroke:#000000;stroke-linecap:square;stroke-linejoin:miter;stroke-width:0.8;"/>
   </g>
   <g id="patch_5">
    <path d="M 36.8875 379.521875 
L 626.7 379.521875 
" style="fill:none;stroke:#000000;stroke-linecap:square;stroke-linejoin:miter;stroke-width:0.8;"/>
   </g>
   <g id="patch_6">
    <path d="M 36.8875 14.3 
L 626.7 14.3 
" style="fill:none;stroke:#000000;stroke-linecap:square;stroke-linejoin:miter;stroke-width:0.8;"/>
   </g>
  </g>
 </g>
 <defs>
  <clipPath id="pcf5f3ac580">
   <rect height="365.221875" width="589.8125" x="36.8875" y="14.3"/>
  </clipPath>
 </defs>
</svg>
