<?xml version="1.0" encoding="utf-8" standalone="no"?>
<!DOCTYPE svg PUBLIC "-//W3C//DTD SVG 1.1//EN"
  "http://www.w3.org/Graphics/SVG/1.1/DTD/svg11.dtd">
<!-- Created with matplotlib (http://matplotlib.org/) -->
<svg height="407pt" version="1.1" viewBox="0 0 641 407" width="641pt" xmlns="http://www.w3.org/2000/svg" xmlns:xlink="http://www.w3.org/1999/xlink">
 <defs>
  <style type="text/css">
*{stroke-linecap:butt;stroke-linejoin:round;}
  </style>
 </defs>
 <g id="figure_1">
  <g id="patch_1">
   <path d="M 0 407 
L 641 407 
L 641 0 
L 0 0 
z
" style="fill:#ffffff;"/>
  </g>
  <g id="axes_1">
   <g id="patch_2">
    <path d="M 30.525 379.521875 
L 626.7 379.521875 
L 626.7 14.3 
L 30.525 14.3 
z
" style="fill:#ffffff;"/>
   </g>
   <g id="PathCollection_1">
    <defs>
     <path d="M 0 3 
C 0.795609 3 1.55874 2.683901 2.12132 2.12132 
C 2.683901 1.55874 3 0.795609 3 0 
C 3 -0.795609 2.683901 -1.55874 2.12132 -2.12132 
C 1.55874 -2.683901 0.795609 -3 0 -3 
C -0.795609 -3 -1.55874 -2.683901 -2.12132 -2.12132 
C -2.683901 -1.55874 -3 -0.795609 -3 0 
C -3 0.795609 -2.683901 1.55874 -2.12132 2.12132 
C -1.55874 2.683901 -0.795609 3 0 3 
z
" id="m63222d7f5b" style="stroke:#1f77b4;"/>
    </defs>
    <g clip-path="url(#p140ab0334b)">
     <use style="fill:#1f77b4;stroke:#1f77b4;" x="189.018217" xlink:href="#m63222d7f5b" y="330.317263"/>
     <use style="fill:#1f77b4;stroke:#1f77b4;" x="378.046895" xlink:href="#m63222d7f5b" y="78.674949"/>
     <use style="fill:#1f77b4;stroke:#1f77b4;" x="382.974333" xlink:href="#m63222d7f5b" y="110.497916"/>
     <use style="fill:#1f77b4;stroke:#1f77b4;" x="355.746842" xlink:href="#m63222d7f5b" y="338.786403"/>
     <use style="fill:#1f77b4;stroke:#1f77b4;" x="458.244651" xlink:href="#m63222d7f5b" y="87.190411"/>
     <use style="fill:#1f77b4;stroke:#1f77b4;" x="561.941024" xlink:href="#m63222d7f5b" y="41.524993"/>
     <use style="fill:#1f77b4;stroke:#1f77b4;" x="566.956345" xlink:href="#m63222d7f5b" y="52.379698"/>
     <use style="fill:#1f77b4;stroke:#1f77b4;" x="546.802849" xlink:href="#m63222d7f5b" y="84.758525"/>
     <use style="fill:#1f77b4;stroke:#1f77b4;" x="226.255098" xlink:href="#m63222d7f5b" y="174.10525"/>
     <use style="fill:#1f77b4;stroke:#1f77b4;" x="559.659886" xlink:href="#m63222d7f5b" y="55.375164"/>
     <use style="fill:#1f77b4;stroke:#1f77b4;" x="229.950988" xlink:href="#m63222d7f5b" y="230.725735"/>
     <use style="fill:#1f77b4;stroke:#1f77b4;" x="331.976031" xlink:href="#m63222d7f5b" y="162.586602"/>
     <use style="fill:#1f77b4;stroke:#1f77b4;" x="401.742276" xlink:href="#m63222d7f5b" y="90.803499"/>
     <use style="fill:#1f77b4;stroke:#1f77b4;" x="456.515246" xlink:href="#m63222d7f5b" y="277.047376"/>
     <use style="fill:#1f77b4;stroke:#1f77b4;" x="422.329009" xlink:href="#m63222d7f5b" y="109.810812"/>
     <use style="fill:#1f77b4;stroke:#1f77b4;" x="439.478812" xlink:href="#m63222d7f5b" y="105.062844"/>
     <use style="fill:#1f77b4;stroke:#1f77b4;" x="212.259173" xlink:href="#m63222d7f5b" y="264.949708"/>
     <use style="fill:#1f77b4;stroke:#1f77b4;" x="103.439933" xlink:href="#m63222d7f5b" y="285.91025"/>
     <use style="fill:#1f77b4;stroke:#1f77b4;" x="248.066128" xlink:href="#m63222d7f5b" y="207.603516"/>
     <use style="fill:#1f77b4;stroke:#1f77b4;" x="266.401995" xlink:href="#m63222d7f5b" y="279.348018"/>
     <use style="fill:#1f77b4;stroke:#1f77b4;" x="567.512986" xlink:href="#m63222d7f5b" y="46.018192"/>
     <use style="fill:#1f77b4;stroke:#1f77b4;" x="155.294756" xlink:href="#m63222d7f5b" y="323.268654"/>
     <use style="fill:#1f77b4;stroke:#1f77b4;" x="247.471425" xlink:href="#m63222d7f5b" y="277.641837"/>
     <use style="fill:#1f77b4;stroke:#1f77b4;" x="461.407377" xlink:href="#m63222d7f5b" y="62.230767"/>
     <use style="fill:#1f77b4;stroke:#1f77b4;" x="359.218726" xlink:href="#m63222d7f5b" y="105.402536"/>
     <use style="fill:#1f77b4;stroke:#1f77b4;" x="395.374847" xlink:href="#m63222d7f5b" y="105.958396"/>
     <use style="fill:#1f77b4;stroke:#1f77b4;" x="190.252568" xlink:href="#m63222d7f5b" y="165.690152"/>
     <use style="fill:#1f77b4;stroke:#1f77b4;" x="57.626143" xlink:href="#m63222d7f5b" y="309.982063"/>
     <use style="fill:#1f77b4;stroke:#1f77b4;" x="326.654158" xlink:href="#m63222d7f5b" y="241.58044"/>
     <use style="fill:#1f77b4;stroke:#1f77b4;" x="428.808319" xlink:href="#m63222d7f5b" y="60.462824"/>
     <use style="fill:#1f77b4;stroke:#1f77b4;" x="237.203414" xlink:href="#m63222d7f5b" y="295.576033"/>
     <use style="fill:#1f77b4;stroke:#1f77b4;" x="472.315368" xlink:href="#m63222d7f5b" y="83.886134"/>
     <use style="fill:#1f77b4;stroke:#1f77b4;" x="420.961982" xlink:href="#m63222d7f5b" y="64.392443"/>
     <use style="fill:#1f77b4;stroke:#1f77b4;" x="518.959908" xlink:href="#m63222d7f5b" y="78.188572"/>
     <use style="fill:#1f77b4;stroke:#1f77b4;" x="564.471291" xlink:href="#m63222d7f5b" y="63.936947"/>
     <use style="fill:#1f77b4;stroke:#1f77b4;" x="268.450696" xlink:href="#m63222d7f5b" y="245.679905"/>
     <use style="fill:#1f77b4;stroke:#1f77b4;" x="379.592086" xlink:href="#m63222d7f5b" y="111.007454"/>
     <use style="fill:#1f77b4;stroke:#1f77b4;" x="393.365163" xlink:href="#m63222d7f5b" y="89.70722"/>
     <use style="fill:#1f77b4;stroke:#1f77b4;" x="371.581006" xlink:href="#m63222d7f5b" y="117.93254"/>
     <use style="fill:#1f77b4;stroke:#1f77b4;" x="374.30381" xlink:href="#m63222d7f5b" y="113.763592"/>
     <use style="fill:#1f77b4;stroke:#1f77b4;" x="452.996581" xlink:href="#m63222d7f5b" y="270.477424"/>
     <use style="fill:#1f77b4;stroke:#1f77b4;" x="145.248602" xlink:href="#m63222d7f5b" y="220.596737"/>
     <use style="fill:#1f77b4;stroke:#1f77b4;" x="153.01629" xlink:href="#m63222d7f5b" y="259.916089"/>
     <use style="fill:#1f77b4;stroke:#1f77b4;" x="558.141434" xlink:href="#m63222d7f5b" y="56.363359"/>
     <use style="fill:#1f77b4;stroke:#1f77b4;" x="549.142735" xlink:href="#m63222d7f5b" y="45.987311"/>
     <use style="fill:#1f77b4;stroke:#1f77b4;" x="461.683762" xlink:href="#m63222d7f5b" y="230.671693"/>
     <use style="fill:#1f77b4;stroke:#1f77b4;" x="161.999747" xlink:href="#m63222d7f5b" y="209.726591"/>
     <use style="fill:#1f77b4;stroke:#1f77b4;" x="554.823441" xlink:href="#m63222d7f5b" y="55.645373"/>
     <use style="fill:#1f77b4;stroke:#1f77b4;" x="221.356573" xlink:href="#m63222d7f5b" y="205.295155"/>
     <use style="fill:#1f77b4;stroke:#1f77b4;" x="538.560089" xlink:href="#m63222d7f5b" y="55.050912"/>
     <use style="fill:#1f77b4;stroke:#1f77b4;" x="363.899578" xlink:href="#m63222d7f5b" y="126.262715"/>
     <use style="fill:#1f77b4;stroke:#1f77b4;" x="185.533874" xlink:href="#m63222d7f5b" y="236.292053"/>
     <use style="fill:#1f77b4;stroke:#1f77b4;" x="134.588354" xlink:href="#m63222d7f5b" y="310.553363"/>
     <use style="fill:#1f77b4;stroke:#1f77b4;" x="210.927363" xlink:href="#m63222d7f5b" y="198.39323"/>
     <use style="fill:#1f77b4;stroke:#1f77b4;" x="324.2" xlink:href="#m63222d7f5b" y="126.733651"/>
     <use style="fill:#1f77b4;stroke:#1f77b4;" x="576.889604" xlink:href="#m63222d7f5b" y="34.013167"/>
     <use style="fill:#1f77b4;stroke:#1f77b4;" x="494.130156" xlink:href="#m63222d7f5b" y="102.491993"/>
     <use style="fill:#1f77b4;stroke:#1f77b4;" x="567.113453" xlink:href="#m63222d7f5b" y="37.49501"/>
     <use style="fill:#1f77b4;stroke:#1f77b4;" x="285.547325" xlink:href="#m63222d7f5b" y="169.195156"/>
     <use style="fill:#1f77b4;stroke:#1f77b4;" x="323.973354" xlink:href="#m63222d7f5b" y="123.244088"/>
     <use style="fill:#1f77b4;stroke:#1f77b4;" x="448.166861" xlink:href="#m63222d7f5b" y="120.819922"/>
     <use style="fill:#1f77b4;stroke:#1f77b4;" x="348.380827" xlink:href="#m63222d7f5b" y="208.977725"/>
     <use style="fill:#1f77b4;stroke:#1f77b4;" x="579.364502" xlink:href="#m63222d7f5b" y="59.667636"/>
     <use style="fill:#1f77b4;stroke:#1f77b4;" x="530.610553" xlink:href="#m63222d7f5b" y="45.307927"/>
     <use style="fill:#1f77b4;stroke:#1f77b4;" x="542.406194" xlink:href="#m63222d7f5b" y="46.844261"/>
     <use style="fill:#1f77b4;stroke:#1f77b4;" x="399.965288" xlink:href="#m63222d7f5b" y="108.444324"/>
     <use style="fill:#1f77b4;stroke:#1f77b4;" x="553.137508" xlink:href="#m63222d7f5b" y="30.963659"/>
     <use style="fill:#1f77b4;stroke:#1f77b4;" x="349.507162" xlink:href="#m63222d7f5b" y="108.691372"/>
     <use style="fill:#1f77b4;stroke:#1f77b4;" x="231.533187" xlink:href="#m63222d7f5b" y="250.937411"/>
     <use style="fill:#1f77b4;stroke:#1f77b4;" x="240.425239" xlink:href="#m63222d7f5b" y="149.130165"/>
     <use style="fill:#1f77b4;stroke:#1f77b4;" x="521.292427" xlink:href="#m63222d7f5b" y="61.690347"/>
     <use style="fill:#1f77b4;stroke:#1f77b4;" x="595.162936" xlink:href="#m63222d7f5b" y="69.68083"/>
     <use style="fill:#1f77b4;stroke:#1f77b4;" x="437.304209" xlink:href="#m63222d7f5b" y="112.875761"/>
     <use style="fill:#1f77b4;stroke:#1f77b4;" x="238.854973" xlink:href="#m63222d7f5b" y="339.859521"/>
     <use style="fill:#1f77b4;stroke:#1f77b4;" x="99.584064" xlink:href="#m63222d7f5b" y="316.034757"/>
     <use style="fill:#1f77b4;stroke:#1f77b4;" x="452.161895" xlink:href="#m63222d7f5b" y="97.751745"/>
     <use style="fill:#1f77b4;stroke:#1f77b4;" x="196.293452" xlink:href="#m63222d7f5b" y="209.765193"/>
     <use style="fill:#1f77b4;stroke:#1f77b4;" x="162.912993" xlink:href="#m63222d7f5b" y="295.76904"/>
     <use style="fill:#1f77b4;stroke:#1f77b4;" x="455.526915" xlink:href="#m63222d7f5b" y="95.520586"/>
     <use style="fill:#1f77b4;stroke:#1f77b4;" x="196.074084" xlink:href="#m63222d7f5b" y="248.181274"/>
     <use style="fill:#1f77b4;stroke:#1f77b4;" x="253.384087" xlink:href="#m63222d7f5b" y="173.317782"/>
     <use style="fill:#1f77b4;stroke:#1f77b4;" x="442.149613" xlink:href="#m63222d7f5b" y="106.63778"/>
     <use style="fill:#1f77b4;stroke:#1f77b4;" x="451.466159" xlink:href="#m63222d7f5b" y="80.435171"/>
     <use style="fill:#1f77b4;stroke:#1f77b4;" x="309.926803" xlink:href="#m63222d7f5b" y="152.94398"/>
     <use style="fill:#1f77b4;stroke:#1f77b4;" x="424.477258" xlink:href="#m63222d7f5b" y="93.189063"/>
     <use style="fill:#1f77b4;stroke:#1f77b4;" x="331.922321" xlink:href="#m63222d7f5b" y="119.275867"/>
     <use style="fill:#1f77b4;stroke:#1f77b4;" x="171.420661" xlink:href="#m63222d7f5b" y="343.796861"/>
     <use style="fill:#1f77b4;stroke:#1f77b4;" x="185.683117" xlink:href="#m63222d7f5b" y="189.491755"/>
     <use style="fill:#1f77b4;stroke:#1f77b4;" x="356.047976" xlink:href="#m63222d7f5b" y="260.232621"/>
     <use style="fill:#1f77b4;stroke:#1f77b4;" x="200.857398" xlink:href="#m63222d7f5b" y="176.243765"/>
     <use style="fill:#1f77b4;stroke:#1f77b4;" x="568.88279" xlink:href="#m63222d7f5b" y="52.896956"/>
     <use style="fill:#1f77b4;stroke:#1f77b4;" x="529.214833" xlink:href="#m63222d7f5b" y="49.484595"/>
     <use style="fill:#1f77b4;stroke:#1f77b4;" x="297.51114" xlink:href="#m63222d7f5b" y="105.881193"/>
     <use style="fill:#1f77b4;stroke:#1f77b4;" x="141.649172" xlink:href="#m63222d7f5b" y="229.652617"/>
     <use style="fill:#1f77b4;stroke:#1f77b4;" x="264.951573" xlink:href="#m63222d7f5b" y="306.917114"/>
     <use style="fill:#1f77b4;stroke:#1f77b4;" x="599.601124" xlink:href="#m63222d7f5b" y="49.546357"/>
     <use style="fill:#1f77b4;stroke:#1f77b4;" x="516.563485" xlink:href="#m63222d7f5b" y="84.719923"/>
     <use style="fill:#1f77b4;stroke:#1f77b4;" x="291.908394" xlink:href="#m63222d7f5b" y="163.134741"/>
     <use style="fill:#1f77b4;stroke:#1f77b4;" x="430.573456" xlink:href="#m63222d7f5b" y="85.515111"/>
     <use style="fill:#1f77b4;stroke:#1f77b4;" x="341.159546" xlink:href="#m63222d7f5b" y="114.736346"/>
     <use style="fill:#1f77b4;stroke:#1f77b4;" x="401.215622" xlink:href="#m63222d7f5b" y="117.291757"/>
     <use style="fill:#1f77b4;stroke:#1f77b4;" x="313.0792" xlink:href="#m63222d7f5b" y="115.230444"/>
     <use style="fill:#1f77b4;stroke:#1f77b4;" x="477.689869" xlink:href="#m63222d7f5b" y="85.314384"/>
     <use style="fill:#1f77b4;stroke:#1f77b4;" x="507.732472" xlink:href="#m63222d7f5b" y="65.743491"/>
     <use style="fill:#1f77b4;stroke:#1f77b4;" x="501.528597" xlink:href="#m63222d7f5b" y="60.740754"/>
     <use style="fill:#1f77b4;stroke:#1f77b4;" x="404.840399" xlink:href="#m63222d7f5b" y="78.528264"/>
     <use style="fill:#1f77b4;stroke:#1f77b4;" x="440.721968" xlink:href="#m63222d7f5b" y="109.146868"/>
     <use style="fill:#1f77b4;stroke:#1f77b4;" x="176.308979" xlink:href="#m63222d7f5b" y="311.680523"/>
     <use style="fill:#1f77b4;stroke:#1f77b4;" x="240.777251" xlink:href="#m63222d7f5b" y="162.787329"/>
     <use style="fill:#1f77b4;stroke:#1f77b4;" x="513.416356" xlink:href="#m63222d7f5b" y="106.823066"/>
     <use style="fill:#1f77b4;stroke:#1f77b4;" x="247.986344" xlink:href="#m63222d7f5b" y="181.825523"/>
     <use style="fill:#1f77b4;stroke:#1f77b4;" x="430.331613" xlink:href="#m63222d7f5b" y="97.365731"/>
     <use style="fill:#1f77b4;stroke:#1f77b4;" x="176.242573" xlink:href="#m63222d7f5b" y="340.044808"/>
     <use style="fill:#1f77b4;stroke:#1f77b4;" x="594.800068" xlink:href="#m63222d7f5b" y="51.275698"/>
     <use style="fill:#1f77b4;stroke:#1f77b4;" x="497.947918" xlink:href="#m63222d7f5b" y="92.26263"/>
     <use style="fill:#1f77b4;stroke:#1f77b4;" x="531.60986" xlink:href="#m63222d7f5b" y="67.071378"/>
     <use style="fill:#1f77b4;stroke:#1f77b4;" x="183.685077" xlink:href="#m63222d7f5b" y="296.880759"/>
     <use style="fill:#1f77b4;stroke:#1f77b4;" x="424.655286" xlink:href="#m63222d7f5b" y="287.770836"/>
     <use style="fill:#1f77b4;stroke:#1f77b4;" x="543.322497" xlink:href="#m63222d7f5b" y="43.794753"/>
     <use style="fill:#1f77b4;stroke:#1f77b4;" x="335.949223" xlink:href="#m63222d7f5b" y="109.76449"/>
     <use style="fill:#1f77b4;stroke:#1f77b4;" x="291.765684" xlink:href="#m63222d7f5b" y="216.613075"/>
     <use style="fill:#1f77b4;stroke:#1f77b4;" x="349.36864" xlink:href="#m63222d7f5b" y="362.858216"/>
     <use style="fill:#1f77b4;stroke:#1f77b4;" x="560.177564" xlink:href="#m63222d7f5b" y="44.234809"/>
     <use style="fill:#1f77b4;stroke:#1f77b4;" x="570.877776" xlink:href="#m63222d7f5b" y="37.927346"/>
     <use style="fill:#1f77b4;stroke:#1f77b4;" x="341.452691" xlink:href="#m63222d7f5b" y="96.277173"/>
     <use style="fill:#1f77b4;stroke:#1f77b4;" x="542.948746" xlink:href="#m63222d7f5b" y="63.411968"/>
     <use style="fill:#1f77b4;stroke:#1f77b4;" x="202.391497" xlink:href="#m63222d7f5b" y="263.235807"/>
     <use style="fill:#1f77b4;stroke:#1f77b4;" x="401.912094" xlink:href="#m63222d7f5b" y="123.506577"/>
     <use style="fill:#1f77b4;stroke:#1f77b4;" x="178.691401" xlink:href="#m63222d7f5b" y="217.663033"/>
     <use style="fill:#1f77b4;stroke:#1f77b4;" x="494.127628" xlink:href="#m63222d7f5b" y="129.659635"/>
     <use style="fill:#1f77b4;stroke:#1f77b4;" x="396.656105" xlink:href="#m63222d7f5b" y="97.975633"/>
     <use style="fill:#1f77b4;stroke:#1f77b4;" x="415.072755" xlink:href="#m63222d7f5b" y="114.54334"/>
     <use style="fill:#1f77b4;stroke:#1f77b4;" x="197.449536" xlink:href="#m63222d7f5b" y="270.763074"/>
     <use style="fill:#1f77b4;stroke:#1f77b4;" x="558.12939" xlink:href="#m63222d7f5b" y="55.498688"/>
     <use style="fill:#1f77b4;stroke:#1f77b4;" x="585.059242" xlink:href="#m63222d7f5b" y="64.631772"/>
     <use style="fill:#1f77b4;stroke:#1f77b4;" x="438.797557" xlink:href="#m63222d7f5b" y="78.97604"/>
     <use style="fill:#1f77b4;stroke:#1f77b4;" x="446.440901" xlink:href="#m63222d7f5b" y="99.334401"/>
     <use style="fill:#1f77b4;stroke:#1f77b4;" x="285.092691" xlink:href="#m63222d7f5b" y="95.458824"/>
     <use style="fill:#1f77b4;stroke:#1f77b4;" x="307.51962" xlink:href="#m63222d7f5b" y="101.84349"/>
     <use style="fill:#1f77b4;stroke:#1f77b4;" x="277.965416" xlink:href="#m63222d7f5b" y="184.635703"/>
     <use style="fill:#1f77b4;stroke:#1f77b4;" x="216.815482" xlink:href="#m63222d7f5b" y="341.465338"/>
     <use style="fill:#1f77b4;stroke:#1f77b4;" x="112.662951" xlink:href="#m63222d7f5b" y="332.949877"/>
    </g>
   </g>
   <g id="matplotlib.axis_1">
    <g id="xtick_1">
     <g id="line2d_1">
      <defs>
       <path d="M 0 0 
L 0 3.5 
" id="m7646331281" style="stroke:#000000;stroke-width:0.8;"/>
      </defs>
      <g>
       <use style="stroke:#000000;stroke-width:0.8;" x="191.71179" xlink:href="#m7646331281" y="379.521875"/>
      </g>
     </g>
     <g id="text_1">
      <!-- $\mathdefault{10^{3}}$ -->
      <defs>
       <path d="M 12.40625 8.296875 
L 28.515625 8.296875 
L 28.515625 63.921875 
L 10.984375 60.40625 
L 10.984375 69.390625 
L 28.421875 72.90625 
L 38.28125 72.90625 
L 38.28125 8.296875 
L 54.390625 8.296875 
L 54.390625 0 
L 12.40625 0 
z
" id="DejaVuSans-31"/>
       <path d="M 31.78125 66.40625 
Q 24.171875 66.40625 20.328125 58.90625 
Q 16.5 51.421875 16.5 36.375 
Q 16.5 21.390625 20.328125 13.890625 
Q 24.171875 6.390625 31.78125 6.390625 
Q 39.453125 6.390625 43.28125 13.890625 
Q 47.125 21.390625 47.125 36.375 
Q 47.125 51.421875 43.28125 58.90625 
Q 39.453125 66.40625 31.78125 66.40625 
z
M 31.78125 74.21875 
Q 44.046875 74.21875 50.515625 64.515625 
Q 56.984375 54.828125 56.984375 36.375 
Q 56.984375 17.96875 50.515625 8.265625 
Q 44.046875 -1.421875 31.78125 -1.421875 
Q 19.53125 -1.421875 13.0625 8.265625 
Q 6.59375 17.96875 6.59375 36.375 
Q 6.59375 54.828125 13.0625 64.515625 
Q 19.53125 74.21875 31.78125 74.21875 
z
" id="DejaVuSans-30"/>
       <path d="M 40.578125 39.3125 
Q 47.65625 37.796875 51.625 33 
Q 55.609375 28.21875 55.609375 21.1875 
Q 55.609375 10.40625 48.1875 4.484375 
Q 40.765625 -1.421875 27.09375 -1.421875 
Q 22.515625 -1.421875 17.65625 -0.515625 
Q 12.796875 0.390625 7.625 2.203125 
L 7.625 11.71875 
Q 11.71875 9.328125 16.59375 8.109375 
Q 21.484375 6.890625 26.8125 6.890625 
Q 36.078125 6.890625 40.9375 10.546875 
Q 45.796875 14.203125 45.796875 21.1875 
Q 45.796875 27.640625 41.28125 31.265625 
Q 36.765625 34.90625 28.71875 34.90625 
L 20.21875 34.90625 
L 20.21875 43.015625 
L 29.109375 43.015625 
Q 36.375 43.015625 40.234375 45.921875 
Q 44.09375 48.828125 44.09375 54.296875 
Q 44.09375 59.90625 40.109375 62.90625 
Q 36.140625 65.921875 28.71875 65.921875 
Q 24.65625 65.921875 20.015625 65.03125 
Q 15.375 64.15625 9.8125 62.3125 
L 9.8125 71.09375 
Q 15.4375 72.65625 20.34375 73.4375 
Q 25.25 74.21875 29.59375 74.21875 
Q 40.828125 74.21875 47.359375 69.109375 
Q 53.90625 64.015625 53.90625 55.328125 
Q 53.90625 49.265625 50.4375 45.09375 
Q 46.96875 40.921875 40.578125 39.3125 
z
" id="DejaVuSans-33"/>
      </defs>
      <g transform="translate(182.91179 394.120313)scale(0.1 -0.1)">
       <use transform="translate(0 0.765625)" xlink:href="#DejaVuSans-31"/>
       <use transform="translate(63.623047 0.765625)" xlink:href="#DejaVuSans-30"/>
       <use transform="translate(128.203125 39.046875)scale(0.7)" xlink:href="#DejaVuSans-33"/>
      </g>
     </g>
    </g>
    <g id="xtick_2">
     <g id="line2d_2">
      <g>
       <use style="stroke:#000000;stroke-width:0.8;" x="432.588886" xlink:href="#m7646331281" y="379.521875"/>
      </g>
     </g>
     <g id="text_2">
      <!-- $\mathdefault{10^{4}}$ -->
      <defs>
       <path d="M 37.796875 64.3125 
L 12.890625 25.390625 
L 37.796875 25.390625 
z
M 35.203125 72.90625 
L 47.609375 72.90625 
L 47.609375 25.390625 
L 58.015625 25.390625 
L 58.015625 17.1875 
L 47.609375 17.1875 
L 47.609375 0 
L 37.796875 0 
L 37.796875 17.1875 
L 4.890625 17.1875 
L 4.890625 26.703125 
z
" id="DejaVuSans-34"/>
      </defs>
      <g transform="translate(423.788886 394.120313)scale(0.1 -0.1)">
       <use transform="translate(0 0.684375)" xlink:href="#DejaVuSans-31"/>
       <use transform="translate(63.623047 0.684375)" xlink:href="#DejaVuSans-30"/>
       <use transform="translate(128.203125 38.965625)scale(0.7)" xlink:href="#DejaVuSans-34"/>
      </g>
     </g>
    </g>
    <g id="xtick_3">
     <g id="line2d_3">
      <defs>
       <path d="M 0 0 
L 0 2 
" id="m647392d9d4" style="stroke:#000000;stroke-width:0.6;"/>
      </defs>
      <g>
       <use style="stroke:#000000;stroke-width:0.6;" x="65.762277" xlink:href="#m647392d9d4" y="379.521875"/>
      </g>
     </g>
    </g>
    <g id="xtick_4">
     <g id="line2d_4">
      <g>
       <use style="stroke:#000000;stroke-width:0.6;" x="95.857157" xlink:href="#m647392d9d4" y="379.521875"/>
      </g>
     </g>
    </g>
    <g id="xtick_5">
     <g id="line2d_5">
      <g>
       <use style="stroke:#000000;stroke-width:0.6;" x="119.200559" xlink:href="#m647392d9d4" y="379.521875"/>
      </g>
     </g>
    </g>
    <g id="xtick_6">
     <g id="line2d_6">
      <g>
       <use style="stroke:#000000;stroke-width:0.6;" x="138.273508" xlink:href="#m647392d9d4" y="379.521875"/>
      </g>
     </g>
    </g>
    <g id="xtick_7">
     <g id="line2d_7">
      <g>
       <use style="stroke:#000000;stroke-width:0.6;" x="154.399456" xlink:href="#m647392d9d4" y="379.521875"/>
      </g>
     </g>
    </g>
    <g id="xtick_8">
     <g id="line2d_8">
      <g>
       <use style="stroke:#000000;stroke-width:0.6;" x="168.368388" xlink:href="#m647392d9d4" y="379.521875"/>
      </g>
     </g>
    </g>
    <g id="xtick_9">
     <g id="line2d_9">
      <g>
       <use style="stroke:#000000;stroke-width:0.6;" x="180.689859" xlink:href="#m647392d9d4" y="379.521875"/>
      </g>
     </g>
    </g>
    <g id="xtick_10">
     <g id="line2d_10">
      <g>
       <use style="stroke:#000000;stroke-width:0.6;" x="264.223021" xlink:href="#m647392d9d4" y="379.521875"/>
      </g>
     </g>
    </g>
    <g id="xtick_11">
     <g id="line2d_11">
      <g>
       <use style="stroke:#000000;stroke-width:0.6;" x="306.639372" xlink:href="#m647392d9d4" y="379.521875"/>
      </g>
     </g>
    </g>
    <g id="xtick_12">
     <g id="line2d_12">
      <g>
       <use style="stroke:#000000;stroke-width:0.6;" x="336.734252" xlink:href="#m647392d9d4" y="379.521875"/>
      </g>
     </g>
    </g>
    <g id="xtick_13">
     <g id="line2d_13">
      <g>
       <use style="stroke:#000000;stroke-width:0.6;" x="360.077655" xlink:href="#m647392d9d4" y="379.521875"/>
      </g>
     </g>
    </g>
    <g id="xtick_14">
     <g id="line2d_14">
      <g>
       <use style="stroke:#000000;stroke-width:0.6;" x="379.150604" xlink:href="#m647392d9d4" y="379.521875"/>
      </g>
     </g>
    </g>
    <g id="xtick_15">
     <g id="line2d_15">
      <g>
       <use style="stroke:#000000;stroke-width:0.6;" x="395.276552" xlink:href="#m647392d9d4" y="379.521875"/>
      </g>
     </g>
    </g>
    <g id="xtick_16">
     <g id="line2d_16">
      <g>
       <use style="stroke:#000000;stroke-width:0.6;" x="409.245484" xlink:href="#m647392d9d4" y="379.521875"/>
      </g>
     </g>
    </g>
    <g id="xtick_17">
     <g id="line2d_17">
      <g>
       <use style="stroke:#000000;stroke-width:0.6;" x="421.566955" xlink:href="#m647392d9d4" y="379.521875"/>
      </g>
     </g>
    </g>
    <g id="xtick_18">
     <g id="line2d_18">
      <g>
       <use style="stroke:#000000;stroke-width:0.6;" x="505.100117" xlink:href="#m647392d9d4" y="379.521875"/>
      </g>
     </g>
    </g>
    <g id="xtick_19">
     <g id="line2d_19">
      <g>
       <use style="stroke:#000000;stroke-width:0.6;" x="547.516468" xlink:href="#m647392d9d4" y="379.521875"/>
      </g>
     </g>
    </g>
    <g id="xtick_20">
     <g id="line2d_20">
      <g>
       <use style="stroke:#000000;stroke-width:0.6;" x="577.611348" xlink:href="#m647392d9d4" y="379.521875"/>
      </g>
     </g>
    </g>
    <g id="xtick_21">
     <g id="line2d_21">
      <g>
       <use style="stroke:#000000;stroke-width:0.6;" x="600.954751" xlink:href="#m647392d9d4" y="379.521875"/>
      </g>
     </g>
    </g>
    <g id="xtick_22">
     <g id="line2d_22">
      <g>
       <use style="stroke:#000000;stroke-width:0.6;" x="620.027699" xlink:href="#m647392d9d4" y="379.521875"/>
      </g>
     </g>
    </g>
   </g>
   <g id="matplotlib.axis_2">
    <g id="ytick_1">
     <g id="line2d_23">
      <defs>
       <path d="M 0 0 
L -3.5 0 
" id="m24a7264b81" style="stroke:#000000;stroke-width:0.8;"/>
      </defs>
      <g>
       <use style="stroke:#000000;stroke-width:0.8;" x="30.525" xlink:href="#m24a7264b81" y="359.87047"/>
      </g>
     </g>
     <g id="text_3">
      <!-- 40 -->
      <g transform="translate(10.8 363.669689)scale(0.1 -0.1)">
       <use xlink:href="#DejaVuSans-34"/>
       <use x="63.623047" xlink:href="#DejaVuSans-30"/>
      </g>
     </g>
    </g>
    <g id="ytick_2">
     <g id="line2d_24">
      <g>
       <use style="stroke:#000000;stroke-width:0.8;" x="30.525" xlink:href="#m24a7264b81" y="282.667735"/>
      </g>
     </g>
     <g id="text_4">
      <!-- 50 -->
      <defs>
       <path d="M 10.796875 72.90625 
L 49.515625 72.90625 
L 49.515625 64.59375 
L 19.828125 64.59375 
L 19.828125 46.734375 
Q 21.96875 47.46875 24.109375 47.828125 
Q 26.265625 48.1875 28.421875 48.1875 
Q 40.625 48.1875 47.75 41.5 
Q 54.890625 34.8125 54.890625 23.390625 
Q 54.890625 11.625 47.5625 5.09375 
Q 40.234375 -1.421875 26.90625 -1.421875 
Q 22.3125 -1.421875 17.546875 -0.640625 
Q 12.796875 0.140625 7.71875 1.703125 
L 7.71875 11.625 
Q 12.109375 9.234375 16.796875 8.0625 
Q 21.484375 6.890625 26.703125 6.890625 
Q 35.15625 6.890625 40.078125 11.328125 
Q 45.015625 15.765625 45.015625 23.390625 
Q 45.015625 31 40.078125 35.4375 
Q 35.15625 39.890625 26.703125 39.890625 
Q 22.75 39.890625 18.8125 39.015625 
Q 14.890625 38.140625 10.796875 36.28125 
z
" id="DejaVuSans-35"/>
      </defs>
      <g transform="translate(10.8 286.466954)scale(0.1 -0.1)">
       <use xlink:href="#DejaVuSans-35"/>
       <use x="63.623047" xlink:href="#DejaVuSans-30"/>
      </g>
     </g>
    </g>
    <g id="ytick_3">
     <g id="line2d_25">
      <g>
       <use style="stroke:#000000;stroke-width:0.8;" x="30.525" xlink:href="#m24a7264b81" y="205.465001"/>
      </g>
     </g>
     <g id="text_5">
      <!-- 60 -->
      <defs>
       <path d="M 33.015625 40.375 
Q 26.375 40.375 22.484375 35.828125 
Q 18.609375 31.296875 18.609375 23.390625 
Q 18.609375 15.53125 22.484375 10.953125 
Q 26.375 6.390625 33.015625 6.390625 
Q 39.65625 6.390625 43.53125 10.953125 
Q 47.40625 15.53125 47.40625 23.390625 
Q 47.40625 31.296875 43.53125 35.828125 
Q 39.65625 40.375 33.015625 40.375 
z
M 52.59375 71.296875 
L 52.59375 62.3125 
Q 48.875 64.0625 45.09375 64.984375 
Q 41.3125 65.921875 37.59375 65.921875 
Q 27.828125 65.921875 22.671875 59.328125 
Q 17.53125 52.734375 16.796875 39.40625 
Q 19.671875 43.65625 24.015625 45.921875 
Q 28.375 48.1875 33.59375 48.1875 
Q 44.578125 48.1875 50.953125 41.515625 
Q 57.328125 34.859375 57.328125 23.390625 
Q 57.328125 12.15625 50.6875 5.359375 
Q 44.046875 -1.421875 33.015625 -1.421875 
Q 20.359375 -1.421875 13.671875 8.265625 
Q 6.984375 17.96875 6.984375 36.375 
Q 6.984375 53.65625 15.1875 63.9375 
Q 23.390625 74.21875 37.203125 74.21875 
Q 40.921875 74.21875 44.703125 73.484375 
Q 48.484375 72.75 52.59375 71.296875 
z
" id="DejaVuSans-36"/>
      </defs>
      <g transform="translate(10.8 209.264219)scale(0.1 -0.1)">
       <use xlink:href="#DejaVuSans-36"/>
       <use x="63.623047" xlink:href="#DejaVuSans-30"/>
      </g>
     </g>
    </g>
    <g id="ytick_4">
     <g id="line2d_26">
      <g>
       <use style="stroke:#000000;stroke-width:0.8;" x="30.525" xlink:href="#m24a7264b81" y="128.262266"/>
      </g>
     </g>
     <g id="text_6">
      <!-- 70 -->
      <defs>
       <path d="M 8.203125 72.90625 
L 55.078125 72.90625 
L 55.078125 68.703125 
L 28.609375 0 
L 18.3125 0 
L 43.21875 64.59375 
L 8.203125 64.59375 
z
" id="DejaVuSans-37"/>
      </defs>
      <g transform="translate(10.8 132.061484)scale(0.1 -0.1)">
       <use xlink:href="#DejaVuSans-37"/>
       <use x="63.623047" xlink:href="#DejaVuSans-30"/>
      </g>
     </g>
    </g>
    <g id="ytick_5">
     <g id="line2d_27">
      <g>
       <use style="stroke:#000000;stroke-width:0.8;" x="30.525" xlink:href="#m24a7264b81" y="51.059531"/>
      </g>
     </g>
     <g id="text_7">
      <!-- 80 -->
      <defs>
       <path d="M 31.78125 34.625 
Q 24.75 34.625 20.71875 30.859375 
Q 16.703125 27.09375 16.703125 20.515625 
Q 16.703125 13.921875 20.71875 10.15625 
Q 24.75 6.390625 31.78125 6.390625 
Q 38.8125 6.390625 42.859375 10.171875 
Q 46.921875 13.96875 46.921875 20.515625 
Q 46.921875 27.09375 42.890625 30.859375 
Q 38.875 34.625 31.78125 34.625 
z
M 21.921875 38.8125 
Q 15.578125 40.375 12.03125 44.71875 
Q 8.5 49.078125 8.5 55.328125 
Q 8.5 64.0625 14.71875 69.140625 
Q 20.953125 74.21875 31.78125 74.21875 
Q 42.671875 74.21875 48.875 69.140625 
Q 55.078125 64.0625 55.078125 55.328125 
Q 55.078125 49.078125 51.53125 44.71875 
Q 48 40.375 41.703125 38.8125 
Q 48.828125 37.15625 52.796875 32.3125 
Q 56.78125 27.484375 56.78125 20.515625 
Q 56.78125 9.90625 50.3125 4.234375 
Q 43.84375 -1.421875 31.78125 -1.421875 
Q 19.734375 -1.421875 13.25 4.234375 
Q 6.78125 9.90625 6.78125 20.515625 
Q 6.78125 27.484375 10.78125 32.3125 
Q 14.796875 37.15625 21.921875 38.8125 
z
M 18.3125 54.390625 
Q 18.3125 48.734375 21.84375 45.5625 
Q 25.390625 42.390625 31.78125 42.390625 
Q 38.140625 42.390625 41.71875 45.5625 
Q 45.3125 48.734375 45.3125 54.390625 
Q 45.3125 60.0625 41.71875 63.234375 
Q 38.140625 66.40625 31.78125 66.40625 
Q 25.390625 66.40625 21.84375 63.234375 
Q 18.3125 60.0625 18.3125 54.390625 
z
" id="DejaVuSans-38"/>
      </defs>
      <g transform="translate(10.8 54.85875)scale(0.1 -0.1)">
       <use xlink:href="#DejaVuSans-38"/>
       <use x="63.623047" xlink:href="#DejaVuSans-30"/>
      </g>
     </g>
    </g>
   </g>
   <g id="patch_3">
    <path d="M 30.525 379.521875 
L 30.525 14.3 
" style="fill:none;stroke:#000000;stroke-linecap:square;stroke-linejoin:miter;stroke-width:0.8;"/>
   </g>
   <g id="patch_4">
    <path d="M 626.7 379.521875 
L 626.7 14.3 
" style="fill:none;stroke:#000000;stroke-linecap:square;stroke-linejoin:miter;stroke-width:0.8;"/>
   </g>
   <g id="patch_5">
    <path d="M 30.525 379.521875 
L 626.7 379.521875 
" style="fill:none;stroke:#000000;stroke-linecap:square;stroke-linejoin:miter;stroke-width:0.8;"/>
   </g>
   <g id="patch_6">
    <path d="M 30.525 14.3 
L 626.7 14.3 
" style="fill:none;stroke:#000000;stroke-linecap:square;stroke-linejoin:miter;stroke-width:0.8;"/>
   </g>
  </g>
 </g>
 <defs>
  <clipPath id="p140ab0334b">
   <rect height="365.221875" width="596.175" x="30.525" y="14.3"/>
  </clipPath>
 </defs>
</svg>
