<?xml version="1.0" encoding="utf-8" standalone="no"?>
<!DOCTYPE svg PUBLIC "-//W3C//DTD SVG 1.1//EN"
  "http://www.w3.org/Graphics/SVG/1.1/DTD/svg11.dtd">
<!-- Created with matplotlib (http://matplotlib.org/) -->
<svg height="407pt" version="1.1" viewBox="0 0 641 407" width="641pt" xmlns="http://www.w3.org/2000/svg" xmlns:xlink="http://www.w3.org/1999/xlink">
 <defs>
  <style type="text/css">
*{stroke-linecap:butt;stroke-linejoin:round;}
  </style>
 </defs>
 <g id="figure_1">
  <g id="patch_1">
   <path d="M 0 407 
L 641 407 
L 641 0 
L 0 0 
z
" style="fill:#ffffff;"/>
  </g>
  <g id="axes_1">
   <g id="patch_2">
    <path d="M 30.525 379.521875 
L 626.7 379.521875 
L 626.7 14.3 
L 30.525 14.3 
z
" style="fill:#ffffff;"/>
   </g>
   <g id="PathCollection_1">
    <defs>
     <path d="M 0 3 
C 0.795609 3 1.55874 2.683901 2.12132 2.12132 
C 2.683901 1.55874 3 0.795609 3 0 
C 3 -0.795609 2.683901 -1.55874 2.12132 -2.12132 
C 1.55874 -2.683901 0.795609 -3 0 -3 
C -0.795609 -3 -1.55874 -2.683901 -2.12132 -2.12132 
C -2.683901 -1.55874 -3 -0.795609 -3 0 
C -3 0.795609 -2.683901 1.55874 -2.12132 2.12132 
C -1.55874 2.683901 -0.795609 3 0 3 
z
" id="m5fb7c3a363" style="stroke:#1f77b4;"/>
    </defs>
    <g clip-path="url(#pb13911c282)">
     <use style="fill:#1f77b4;stroke:#1f77b4;" x="70.652898" xlink:href="#m5fb7c3a363" y="330.317263"/>
     <use style="fill:#1f77b4;stroke:#1f77b4;" x="59.024333" xlink:href="#m5fb7c3a363" y="78.674949"/>
     <use style="fill:#1f77b4;stroke:#1f77b4;" x="71.246174" xlink:href="#m5fb7c3a363" y="110.497916"/>
     <use style="fill:#1f77b4;stroke:#1f77b4;" x="62.649839" xlink:href="#m5fb7c3a363" y="338.786403"/>
     <use style="fill:#1f77b4;stroke:#1f77b4;" x="74.110714" xlink:href="#m5fb7c3a363" y="87.190411"/>
     <use style="fill:#1f77b4;stroke:#1f77b4;" x="65.943929" xlink:href="#m5fb7c3a363" y="41.524993"/>
     <use style="fill:#1f77b4;stroke:#1f77b4;" x="60.914892" xlink:href="#m5fb7c3a363" y="52.379698"/>
     <use style="fill:#1f77b4;stroke:#1f77b4;" x="57.835576" xlink:href="#m5fb7c3a363" y="84.758525"/>
     <use style="fill:#1f77b4;stroke:#1f77b4;" x="119.387202" xlink:href="#m5fb7c3a363" y="174.10525"/>
     <use style="fill:#1f77b4;stroke:#1f77b4;" x="61.816112" xlink:href="#m5fb7c3a363" y="55.375164"/>
     <use style="fill:#1f77b4;stroke:#1f77b4;" x="60.864962" xlink:href="#m5fb7c3a363" y="230.725735"/>
     <use style="fill:#1f77b4;stroke:#1f77b4;" x="61.292806" xlink:href="#m5fb7c3a363" y="162.586602"/>
     <use style="fill:#1f77b4;stroke:#1f77b4;" x="59.415526" xlink:href="#m5fb7c3a363" y="90.803499"/>
     <use style="fill:#1f77b4;stroke:#1f77b4;" x="58.218088" xlink:href="#m5fb7c3a363" y="277.047376"/>
     <use style="fill:#1f77b4;stroke:#1f77b4;" x="135.649579" xlink:href="#m5fb7c3a363" y="109.810812"/>
     <use style="fill:#1f77b4;stroke:#1f77b4;" x="60.554426" xlink:href="#m5fb7c3a363" y="105.062844"/>
     <use style="fill:#1f77b4;stroke:#1f77b4;" x="63.433202" xlink:href="#m5fb7c3a363" y="264.949708"/>
     <use style="fill:#1f77b4;stroke:#1f77b4;" x="60.99329" xlink:href="#m5fb7c3a363" y="285.91025"/>
     <use style="fill:#1f77b4;stroke:#1f77b4;" x="63.353315" xlink:href="#m5fb7c3a363" y="207.603516"/>
     <use style="fill:#1f77b4;stroke:#1f77b4;" x="64.818502" xlink:href="#m5fb7c3a363" y="279.348018"/>
     <use style="fill:#1f77b4;stroke:#1f77b4;" x="71.269573" xlink:href="#m5fb7c3a363" y="46.018192"/>
     <use style="fill:#1f77b4;stroke:#1f77b4;" x="59.340237" xlink:href="#m5fb7c3a363" y="323.268654"/>
     <use style="fill:#1f77b4;stroke:#1f77b4;" x="61.753048" xlink:href="#m5fb7c3a363" y="277.641837"/>
     <use style="fill:#1f77b4;stroke:#1f77b4;" x="64.238273" xlink:href="#m5fb7c3a363" y="62.230767"/>
     <use style="fill:#1f77b4;stroke:#1f77b4;" x="599.59865" xlink:href="#m5fb7c3a363" y="105.402536"/>
     <use style="fill:#1f77b4;stroke:#1f77b4;" x="75.72437" xlink:href="#m5fb7c3a363" y="105.958396"/>
     <use style="fill:#1f77b4;stroke:#1f77b4;" x="57.836557" xlink:href="#m5fb7c3a363" y="165.690152"/>
     <use style="fill:#1f77b4;stroke:#1f77b4;" x="84.101393" xlink:href="#m5fb7c3a363" y="309.982063"/>
     <use style="fill:#1f77b4;stroke:#1f77b4;" x="59.10658" xlink:href="#m5fb7c3a363" y="241.58044"/>
     <use style="fill:#1f77b4;stroke:#1f77b4;" x="59.243575" xlink:href="#m5fb7c3a363" y="60.462824"/>
     <use style="fill:#1f77b4;stroke:#1f77b4;" x="64.948855" xlink:href="#m5fb7c3a363" y="295.576033"/>
     <use style="fill:#1f77b4;stroke:#1f77b4;" x="59.39132" xlink:href="#m5fb7c3a363" y="83.886134"/>
     <use style="fill:#1f77b4;stroke:#1f77b4;" x="62.237348" xlink:href="#m5fb7c3a363" y="64.392443"/>
     <use style="fill:#1f77b4;stroke:#1f77b4;" x="61.748912" xlink:href="#m5fb7c3a363" y="78.188572"/>
     <use style="fill:#1f77b4;stroke:#1f77b4;" x="59.792022" xlink:href="#m5fb7c3a363" y="63.936947"/>
     <use style="fill:#1f77b4;stroke:#1f77b4;" x="57.74835" xlink:href="#m5fb7c3a363" y="245.679905"/>
     <use style="fill:#1f77b4;stroke:#1f77b4;" x="61.37521" xlink:href="#m5fb7c3a363" y="111.007454"/>
     <use style="fill:#1f77b4;stroke:#1f77b4;" x="63.198684" xlink:href="#m5fb7c3a363" y="89.70722"/>
     <use style="fill:#1f77b4;stroke:#1f77b4;" x="90.537639" xlink:href="#m5fb7c3a363" y="117.93254"/>
     <use style="fill:#1f77b4;stroke:#1f77b4;" x="60.396921" xlink:href="#m5fb7c3a363" y="113.763592"/>
     <use style="fill:#1f77b4;stroke:#1f77b4;" x="57.770887" xlink:href="#m5fb7c3a363" y="270.477424"/>
     <use style="fill:#1f77b4;stroke:#1f77b4;" x="59.561199" xlink:href="#m5fb7c3a363" y="220.596737"/>
     <use style="fill:#1f77b4;stroke:#1f77b4;" x="88.995083" xlink:href="#m5fb7c3a363" y="259.916089"/>
     <use style="fill:#1f77b4;stroke:#1f77b4;" x="59.697619" xlink:href="#m5fb7c3a363" y="56.363359"/>
     <use style="fill:#1f77b4;stroke:#1f77b4;" x="82.653302" xlink:href="#m5fb7c3a363" y="45.987311"/>
     <use style="fill:#1f77b4;stroke:#1f77b4;" x="58.142345" xlink:href="#m5fb7c3a363" y="230.671693"/>
     <use style="fill:#1f77b4;stroke:#1f77b4;" x="58.238324" xlink:href="#m5fb7c3a363" y="209.726591"/>
     <use style="fill:#1f77b4;stroke:#1f77b4;" x="91.415844" xlink:href="#m5fb7c3a363" y="55.645373"/>
     <use style="fill:#1f77b4;stroke:#1f77b4;" x="66.946564" xlink:href="#m5fb7c3a363" y="205.295155"/>
     <use style="fill:#1f77b4;stroke:#1f77b4;" x="61.94521" xlink:href="#m5fb7c3a363" y="55.050912"/>
     <use style="fill:#1f77b4;stroke:#1f77b4;" x="62.712506" xlink:href="#m5fb7c3a363" y="126.262715"/>
     <use style="fill:#1f77b4;stroke:#1f77b4;" x="61.633433" xlink:href="#m5fb7c3a363" y="236.292053"/>
     <use style="fill:#1f77b4;stroke:#1f77b4;" x="58.149405" xlink:href="#m5fb7c3a363" y="310.553363"/>
     <use style="fill:#1f77b4;stroke:#1f77b4;" x="61.039455" xlink:href="#m5fb7c3a363" y="198.39323"/>
     <use style="fill:#1f77b4;stroke:#1f77b4;" x="60.620567" xlink:href="#m5fb7c3a363" y="126.733651"/>
     <use style="fill:#1f77b4;stroke:#1f77b4;" x="60.413661" xlink:href="#m5fb7c3a363" y="34.013167"/>
     <use style="fill:#1f77b4;stroke:#1f77b4;" x="61.636843" xlink:href="#m5fb7c3a363" y="102.491993"/>
     <use style="fill:#1f77b4;stroke:#1f77b4;" x="57.668422" xlink:href="#m5fb7c3a363" y="37.49501"/>
     <use style="fill:#1f77b4;stroke:#1f77b4;" x="513.980851" xlink:href="#m5fb7c3a363" y="169.195156"/>
     <use style="fill:#1f77b4;stroke:#1f77b4;" x="149.434942" xlink:href="#m5fb7c3a363" y="123.244088"/>
     <use style="fill:#1f77b4;stroke:#1f77b4;" x="86.09371" xlink:href="#m5fb7c3a363" y="120.819922"/>
     <use style="fill:#1f77b4;stroke:#1f77b4;" x="68.848239" xlink:href="#m5fb7c3a363" y="208.977725"/>
     <use style="fill:#1f77b4;stroke:#1f77b4;" x="59.233381" xlink:href="#m5fb7c3a363" y="59.667636"/>
     <use style="fill:#1f77b4;stroke:#1f77b4;" x="60.186045" xlink:href="#m5fb7c3a363" y="45.307927"/>
     <use style="fill:#1f77b4;stroke:#1f77b4;" x="81.446363" xlink:href="#m5fb7c3a363" y="46.844261"/>
     <use style="fill:#1f77b4;stroke:#1f77b4;" x="58.687105" xlink:href="#m5fb7c3a363" y="108.444324"/>
     <use style="fill:#1f77b4;stroke:#1f77b4;" x="109.940954" xlink:href="#m5fb7c3a363" y="30.963659"/>
     <use style="fill:#1f77b4;stroke:#1f77b4;" x="60.032521" xlink:href="#m5fb7c3a363" y="108.691372"/>
     <use style="fill:#1f77b4;stroke:#1f77b4;" x="72.182135" xlink:href="#m5fb7c3a363" y="250.937411"/>
     <use style="fill:#1f77b4;stroke:#1f77b4;" x="67.122656" xlink:href="#m5fb7c3a363" y="149.130165"/>
     <use style="fill:#1f77b4;stroke:#1f77b4;" x="77.704531" xlink:href="#m5fb7c3a363" y="61.690347"/>
     <use style="fill:#1f77b4;stroke:#1f77b4;" x="58.57424" xlink:href="#m5fb7c3a363" y="69.68083"/>
     <use style="fill:#1f77b4;stroke:#1f77b4;" x="59.156181" xlink:href="#m5fb7c3a363" y="112.875761"/>
     <use style="fill:#1f77b4;stroke:#1f77b4;" x="58.371626" xlink:href="#m5fb7c3a363" y="339.859521"/>
     <use style="fill:#1f77b4;stroke:#1f77b4;" x="58.857205" xlink:href="#m5fb7c3a363" y="316.034757"/>
     <use style="fill:#1f77b4;stroke:#1f77b4;" x="60.025829" xlink:href="#m5fb7c3a363" y="97.751745"/>
     <use style="fill:#1f77b4;stroke:#1f77b4;" x="65.423316" xlink:href="#m5fb7c3a363" y="209.765193"/>
     <use style="fill:#1f77b4;stroke:#1f77b4;" x="63.022505" xlink:href="#m5fb7c3a363" y="295.76904"/>
     <use style="fill:#1f77b4;stroke:#1f77b4;" x="67.747283" xlink:href="#m5fb7c3a363" y="95.520586"/>
     <use style="fill:#1f77b4;stroke:#1f77b4;" x="62.490069" xlink:href="#m5fb7c3a363" y="248.181274"/>
     <use style="fill:#1f77b4;stroke:#1f77b4;" x="58.888496" xlink:href="#m5fb7c3a363" y="173.317782"/>
     <use style="fill:#1f77b4;stroke:#1f77b4;" x="58.058496" xlink:href="#m5fb7c3a363" y="106.63778"/>
     <use style="fill:#1f77b4;stroke:#1f77b4;" x="102.226608" xlink:href="#m5fb7c3a363" y="80.435171"/>
     <use style="fill:#1f77b4;stroke:#1f77b4;" x="58.725742" xlink:href="#m5fb7c3a363" y="152.94398"/>
     <use style="fill:#1f77b4;stroke:#1f77b4;" x="57.825777" xlink:href="#m5fb7c3a363" y="93.189063"/>
     <use style="fill:#1f77b4;stroke:#1f77b4;" x="71.420445" xlink:href="#m5fb7c3a363" y="119.275867"/>
     <use style="fill:#1f77b4;stroke:#1f77b4;" x="65.745586" xlink:href="#m5fb7c3a363" y="343.796861"/>
     <use style="fill:#1f77b4;stroke:#1f77b4;" x="77.177223" xlink:href="#m5fb7c3a363" y="189.491755"/>
     <use style="fill:#1f77b4;stroke:#1f77b4;" x="58.389067" xlink:href="#m5fb7c3a363" y="260.232621"/>
     <use style="fill:#1f77b4;stroke:#1f77b4;" x="69.424604" xlink:href="#m5fb7c3a363" y="176.243765"/>
     <use style="fill:#1f77b4;stroke:#1f77b4;" x="64.355783" xlink:href="#m5fb7c3a363" y="52.896956"/>
     <use style="fill:#1f77b4;stroke:#1f77b4;" x="59.236129" xlink:href="#m5fb7c3a363" y="49.484595"/>
     <use style="fill:#1f77b4;stroke:#1f77b4;" x="59.877208" xlink:href="#m5fb7c3a363" y="105.881193"/>
     <use style="fill:#1f77b4;stroke:#1f77b4;" x="62.84484" xlink:href="#m5fb7c3a363" y="229.652617"/>
     <use style="fill:#1f77b4;stroke:#1f77b4;" x="113.04986" xlink:href="#m5fb7c3a363" y="306.917114"/>
     <use style="fill:#1f77b4;stroke:#1f77b4;" x="59.446654" xlink:href="#m5fb7c3a363" y="49.546357"/>
     <use style="fill:#1f77b4;stroke:#1f77b4;" x="58.861708" xlink:href="#m5fb7c3a363" y="84.719923"/>
     <use style="fill:#1f77b4;stroke:#1f77b4;" x="127.124238" xlink:href="#m5fb7c3a363" y="163.134741"/>
     <use style="fill:#1f77b4;stroke:#1f77b4;" x="58.87703" xlink:href="#m5fb7c3a363" y="85.515111"/>
     <use style="fill:#1f77b4;stroke:#1f77b4;" x="60.284891" xlink:href="#m5fb7c3a363" y="114.736346"/>
     <use style="fill:#1f77b4;stroke:#1f77b4;" x="69.33128" xlink:href="#m5fb7c3a363" y="117.291757"/>
     <use style="fill:#1f77b4;stroke:#1f77b4;" x="94.982297" xlink:href="#m5fb7c3a363" y="115.230444"/>
     <use style="fill:#1f77b4;stroke:#1f77b4;" x="73.377516" xlink:href="#m5fb7c3a363" y="85.314384"/>
     <use style="fill:#1f77b4;stroke:#1f77b4;" x="61.919127" xlink:href="#m5fb7c3a363" y="65.743491"/>
     <use style="fill:#1f77b4;stroke:#1f77b4;" x="59.164901" xlink:href="#m5fb7c3a363" y="60.740754"/>
     <use style="fill:#1f77b4;stroke:#1f77b4;" x="57.872374" xlink:href="#m5fb7c3a363" y="78.528264"/>
     <use style="fill:#1f77b4;stroke:#1f77b4;" x="66.701047" xlink:href="#m5fb7c3a363" y="109.146868"/>
     <use style="fill:#1f77b4;stroke:#1f77b4;" x="61.186521" xlink:href="#m5fb7c3a363" y="311.680523"/>
     <use style="fill:#1f77b4;stroke:#1f77b4;" x="57.62635" xlink:href="#m5fb7c3a363" y="162.787329"/>
     <use style="fill:#1f77b4;stroke:#1f77b4;" x="68.88992" xlink:href="#m5fb7c3a363" y="106.823066"/>
     <use style="fill:#1f77b4;stroke:#1f77b4;" x="62.586954" xlink:href="#m5fb7c3a363" y="181.825523"/>
     <use style="fill:#1f77b4;stroke:#1f77b4;" x="61.716652" xlink:href="#m5fb7c3a363" y="97.365731"/>
     <use style="fill:#1f77b4;stroke:#1f77b4;" x="60.070079" xlink:href="#m5fb7c3a363" y="340.044808"/>
     <use style="fill:#1f77b4;stroke:#1f77b4;" x="59.415859" xlink:href="#m5fb7c3a363" y="51.275698"/>
     <use style="fill:#1f77b4;stroke:#1f77b4;" x="59.783547" xlink:href="#m5fb7c3a363" y="92.26263"/>
     <use style="fill:#1f77b4;stroke:#1f77b4;" x="58.370226" xlink:href="#m5fb7c3a363" y="67.071378"/>
     <use style="fill:#1f77b4;stroke:#1f77b4;" x="61.29265" xlink:href="#m5fb7c3a363" y="296.880759"/>
     <use style="fill:#1f77b4;stroke:#1f77b4;" x="75.629941" xlink:href="#m5fb7c3a363" y="287.770836"/>
     <use style="fill:#1f77b4;stroke:#1f77b4;" x="74.170836" xlink:href="#m5fb7c3a363" y="43.794753"/>
     <use style="fill:#1f77b4;stroke:#1f77b4;" x="65.920936" xlink:href="#m5fb7c3a363" y="109.76449"/>
     <use style="fill:#1f77b4;stroke:#1f77b4;" x="74.929129" xlink:href="#m5fb7c3a363" y="216.613075"/>
     <use style="fill:#1f77b4;stroke:#1f77b4;" x="58.010067" xlink:href="#m5fb7c3a363" y="362.858216"/>
     <use style="fill:#1f77b4;stroke:#1f77b4;" x="61.256606" xlink:href="#m5fb7c3a363" y="44.234809"/>
     <use style="fill:#1f77b4;stroke:#1f77b4;" x="60.64971" xlink:href="#m5fb7c3a363" y="37.927346"/>
     <use style="fill:#1f77b4;stroke:#1f77b4;" x="65.48378" xlink:href="#m5fb7c3a363" y="96.277173"/>
     <use style="fill:#1f77b4;stroke:#1f77b4;" x="67.070275" xlink:href="#m5fb7c3a363" y="63.411968"/>
     <use style="fill:#1f77b4;stroke:#1f77b4;" x="73.22189" xlink:href="#m5fb7c3a363" y="263.235807"/>
     <use style="fill:#1f77b4;stroke:#1f77b4;" x="84.29105" xlink:href="#m5fb7c3a363" y="123.506577"/>
     <use style="fill:#1f77b4;stroke:#1f77b4;" x="59.887987" xlink:href="#m5fb7c3a363" y="217.663033"/>
     <use style="fill:#1f77b4;stroke:#1f77b4;" x="57.978638" xlink:href="#m5fb7c3a363" y="129.659635"/>
     <use style="fill:#1f77b4;stroke:#1f77b4;" x="61.768401" xlink:href="#m5fb7c3a363" y="97.975633"/>
     <use style="fill:#1f77b4;stroke:#1f77b4;" x="86.794594" xlink:href="#m5fb7c3a363" y="114.54334"/>
     <use style="fill:#1f77b4;stroke:#1f77b4;" x="69.535017" xlink:href="#m5fb7c3a363" y="270.763074"/>
     <use style="fill:#1f77b4;stroke:#1f77b4;" x="82.526829" xlink:href="#m5fb7c3a363" y="55.498688"/>
     <use style="fill:#1f77b4;stroke:#1f77b4;" x="181.330091" xlink:href="#m5fb7c3a363" y="64.631772"/>
     <use style="fill:#1f77b4;stroke:#1f77b4;" x="58.96143" xlink:href="#m5fb7c3a363" y="78.97604"/>
     <use style="fill:#1f77b4;stroke:#1f77b4;" x="68.266603" xlink:href="#m5fb7c3a363" y="99.334401"/>
     <use style="fill:#1f77b4;stroke:#1f77b4;" x="92.592027" xlink:href="#m5fb7c3a363" y="95.458824"/>
     <use style="fill:#1f77b4;stroke:#1f77b4;" x="59.196076" xlink:href="#m5fb7c3a363" y="101.84349"/>
     <use style="fill:#1f77b4;stroke:#1f77b4;" x="66.674611" xlink:href="#m5fb7c3a363" y="184.635703"/>
     <use style="fill:#1f77b4;stroke:#1f77b4;" x="62.372605" xlink:href="#m5fb7c3a363" y="341.465338"/>
     <use style="fill:#1f77b4;stroke:#1f77b4;" x="62.604897" xlink:href="#m5fb7c3a363" y="332.949877"/>
    </g>
   </g>
   <g id="matplotlib.axis_1">
    <g id="xtick_1">
     <g id="line2d_1">
      <defs>
       <path d="M 0 0 
L 0 3.5 
" id="m66d609c12b" style="stroke:#000000;stroke-width:0.8;"/>
      </defs>
      <g>
       <use style="stroke:#000000;stroke-width:0.8;" x="57.544311" xlink:href="#m66d609c12b" y="379.521875"/>
      </g>
     </g>
     <g id="text_1">
      <!-- 0 -->
      <defs>
       <path d="M 31.78125 66.40625 
Q 24.171875 66.40625 20.328125 58.90625 
Q 16.5 51.421875 16.5 36.375 
Q 16.5 21.390625 20.328125 13.890625 
Q 24.171875 6.390625 31.78125 6.390625 
Q 39.453125 6.390625 43.28125 13.890625 
Q 47.125 21.390625 47.125 36.375 
Q 47.125 51.421875 43.28125 58.90625 
Q 39.453125 66.40625 31.78125 66.40625 
z
M 31.78125 74.21875 
Q 44.046875 74.21875 50.515625 64.515625 
Q 56.984375 54.828125 56.984375 36.375 
Q 56.984375 17.96875 50.515625 8.265625 
Q 44.046875 -1.421875 31.78125 -1.421875 
Q 19.53125 -1.421875 13.0625 8.265625 
Q 6.59375 17.96875 6.59375 36.375 
Q 6.59375 54.828125 13.0625 64.515625 
Q 19.53125 74.21875 31.78125 74.21875 
z
" id="DejaVuSans-30"/>
      </defs>
      <g transform="translate(54.363061 394.120313)scale(0.1 -0.1)">
       <use xlink:href="#DejaVuSans-30"/>
      </g>
     </g>
    </g>
    <g id="xtick_2">
     <g id="line2d_2">
      <g>
       <use style="stroke:#000000;stroke-width:0.8;" x="139.755775" xlink:href="#m66d609c12b" y="379.521875"/>
      </g>
     </g>
     <g id="text_2">
      <!-- 200 -->
      <defs>
       <path d="M 19.1875 8.296875 
L 53.609375 8.296875 
L 53.609375 0 
L 7.328125 0 
L 7.328125 8.296875 
Q 12.9375 14.109375 22.625 23.890625 
Q 32.328125 33.6875 34.8125 36.53125 
Q 39.546875 41.84375 41.421875 45.53125 
Q 43.3125 49.21875 43.3125 52.78125 
Q 43.3125 58.59375 39.234375 62.25 
Q 35.15625 65.921875 28.609375 65.921875 
Q 23.96875 65.921875 18.8125 64.3125 
Q 13.671875 62.703125 7.8125 59.421875 
L 7.8125 69.390625 
Q 13.765625 71.78125 18.9375 73 
Q 24.125 74.21875 28.421875 74.21875 
Q 39.75 74.21875 46.484375 68.546875 
Q 53.21875 62.890625 53.21875 53.421875 
Q 53.21875 48.921875 51.53125 44.890625 
Q 49.859375 40.875 45.40625 35.40625 
Q 44.1875 33.984375 37.640625 27.21875 
Q 31.109375 20.453125 19.1875 8.296875 
z
" id="DejaVuSans-32"/>
      </defs>
      <g transform="translate(130.212025 394.120313)scale(0.1 -0.1)">
       <use xlink:href="#DejaVuSans-32"/>
       <use x="63.623047" xlink:href="#DejaVuSans-30"/>
       <use x="127.246094" xlink:href="#DejaVuSans-30"/>
      </g>
     </g>
    </g>
    <g id="xtick_3">
     <g id="line2d_3">
      <g>
       <use style="stroke:#000000;stroke-width:0.8;" x="221.967239" xlink:href="#m66d609c12b" y="379.521875"/>
      </g>
     </g>
     <g id="text_3">
      <!-- 400 -->
      <defs>
       <path d="M 37.796875 64.3125 
L 12.890625 25.390625 
L 37.796875 25.390625 
z
M 35.203125 72.90625 
L 47.609375 72.90625 
L 47.609375 25.390625 
L 58.015625 25.390625 
L 58.015625 17.1875 
L 47.609375 17.1875 
L 47.609375 0 
L 37.796875 0 
L 37.796875 17.1875 
L 4.890625 17.1875 
L 4.890625 26.703125 
z
" id="DejaVuSans-34"/>
      </defs>
      <g transform="translate(212.423489 394.120313)scale(0.1 -0.1)">
       <use xlink:href="#DejaVuSans-34"/>
       <use x="63.623047" xlink:href="#DejaVuSans-30"/>
       <use x="127.246094" xlink:href="#DejaVuSans-30"/>
      </g>
     </g>
    </g>
    <g id="xtick_4">
     <g id="line2d_4">
      <g>
       <use style="stroke:#000000;stroke-width:0.8;" x="304.178703" xlink:href="#m66d609c12b" y="379.521875"/>
      </g>
     </g>
     <g id="text_4">
      <!-- 600 -->
      <defs>
       <path d="M 33.015625 40.375 
Q 26.375 40.375 22.484375 35.828125 
Q 18.609375 31.296875 18.609375 23.390625 
Q 18.609375 15.53125 22.484375 10.953125 
Q 26.375 6.390625 33.015625 6.390625 
Q 39.65625 6.390625 43.53125 10.953125 
Q 47.40625 15.53125 47.40625 23.390625 
Q 47.40625 31.296875 43.53125 35.828125 
Q 39.65625 40.375 33.015625 40.375 
z
M 52.59375 71.296875 
L 52.59375 62.3125 
Q 48.875 64.0625 45.09375 64.984375 
Q 41.3125 65.921875 37.59375 65.921875 
Q 27.828125 65.921875 22.671875 59.328125 
Q 17.53125 52.734375 16.796875 39.40625 
Q 19.671875 43.65625 24.015625 45.921875 
Q 28.375 48.1875 33.59375 48.1875 
Q 44.578125 48.1875 50.953125 41.515625 
Q 57.328125 34.859375 57.328125 23.390625 
Q 57.328125 12.15625 50.6875 5.359375 
Q 44.046875 -1.421875 33.015625 -1.421875 
Q 20.359375 -1.421875 13.671875 8.265625 
Q 6.984375 17.96875 6.984375 36.375 
Q 6.984375 53.65625 15.1875 63.9375 
Q 23.390625 74.21875 37.203125 74.21875 
Q 40.921875 74.21875 44.703125 73.484375 
Q 48.484375 72.75 52.59375 71.296875 
z
" id="DejaVuSans-36"/>
      </defs>
      <g transform="translate(294.634953 394.120313)scale(0.1 -0.1)">
       <use xlink:href="#DejaVuSans-36"/>
       <use x="63.623047" xlink:href="#DejaVuSans-30"/>
       <use x="127.246094" xlink:href="#DejaVuSans-30"/>
      </g>
     </g>
    </g>
    <g id="xtick_5">
     <g id="line2d_5">
      <g>
       <use style="stroke:#000000;stroke-width:0.8;" x="386.390167" xlink:href="#m66d609c12b" y="379.521875"/>
      </g>
     </g>
     <g id="text_5">
      <!-- 800 -->
      <defs>
       <path d="M 31.78125 34.625 
Q 24.75 34.625 20.71875 30.859375 
Q 16.703125 27.09375 16.703125 20.515625 
Q 16.703125 13.921875 20.71875 10.15625 
Q 24.75 6.390625 31.78125 6.390625 
Q 38.8125 6.390625 42.859375 10.171875 
Q 46.921875 13.96875 46.921875 20.515625 
Q 46.921875 27.09375 42.890625 30.859375 
Q 38.875 34.625 31.78125 34.625 
z
M 21.921875 38.8125 
Q 15.578125 40.375 12.03125 44.71875 
Q 8.5 49.078125 8.5 55.328125 
Q 8.5 64.0625 14.71875 69.140625 
Q 20.953125 74.21875 31.78125 74.21875 
Q 42.671875 74.21875 48.875 69.140625 
Q 55.078125 64.0625 55.078125 55.328125 
Q 55.078125 49.078125 51.53125 44.71875 
Q 48 40.375 41.703125 38.8125 
Q 48.828125 37.15625 52.796875 32.3125 
Q 56.78125 27.484375 56.78125 20.515625 
Q 56.78125 9.90625 50.3125 4.234375 
Q 43.84375 -1.421875 31.78125 -1.421875 
Q 19.734375 -1.421875 13.25 4.234375 
Q 6.78125 9.90625 6.78125 20.515625 
Q 6.78125 27.484375 10.78125 32.3125 
Q 14.796875 37.15625 21.921875 38.8125 
z
M 18.3125 54.390625 
Q 18.3125 48.734375 21.84375 45.5625 
Q 25.390625 42.390625 31.78125 42.390625 
Q 38.140625 42.390625 41.71875 45.5625 
Q 45.3125 48.734375 45.3125 54.390625 
Q 45.3125 60.0625 41.71875 63.234375 
Q 38.140625 66.40625 31.78125 66.40625 
Q 25.390625 66.40625 21.84375 63.234375 
Q 18.3125 60.0625 18.3125 54.390625 
z
" id="DejaVuSans-38"/>
      </defs>
      <g transform="translate(376.846417 394.120313)scale(0.1 -0.1)">
       <use xlink:href="#DejaVuSans-38"/>
       <use x="63.623047" xlink:href="#DejaVuSans-30"/>
       <use x="127.246094" xlink:href="#DejaVuSans-30"/>
      </g>
     </g>
    </g>
    <g id="xtick_6">
     <g id="line2d_6">
      <g>
       <use style="stroke:#000000;stroke-width:0.8;" x="468.601631" xlink:href="#m66d609c12b" y="379.521875"/>
      </g>
     </g>
     <g id="text_6">
      <!-- 1000 -->
      <defs>
       <path d="M 12.40625 8.296875 
L 28.515625 8.296875 
L 28.515625 63.921875 
L 10.984375 60.40625 
L 10.984375 69.390625 
L 28.421875 72.90625 
L 38.28125 72.90625 
L 38.28125 8.296875 
L 54.390625 8.296875 
L 54.390625 0 
L 12.40625 0 
z
" id="DejaVuSans-31"/>
      </defs>
      <g transform="translate(455.876631 394.120313)scale(0.1 -0.1)">
       <use xlink:href="#DejaVuSans-31"/>
       <use x="63.623047" xlink:href="#DejaVuSans-30"/>
       <use x="127.246094" xlink:href="#DejaVuSans-30"/>
       <use x="190.869141" xlink:href="#DejaVuSans-30"/>
      </g>
     </g>
    </g>
    <g id="xtick_7">
     <g id="line2d_7">
      <g>
       <use style="stroke:#000000;stroke-width:0.8;" x="550.813095" xlink:href="#m66d609c12b" y="379.521875"/>
      </g>
     </g>
     <g id="text_7">
      <!-- 1200 -->
      <g transform="translate(538.088095 394.120313)scale(0.1 -0.1)">
       <use xlink:href="#DejaVuSans-31"/>
       <use x="63.623047" xlink:href="#DejaVuSans-32"/>
       <use x="127.246094" xlink:href="#DejaVuSans-30"/>
       <use x="190.869141" xlink:href="#DejaVuSans-30"/>
      </g>
     </g>
    </g>
   </g>
   <g id="matplotlib.axis_2">
    <g id="ytick_1">
     <g id="line2d_8">
      <defs>
       <path d="M 0 0 
L -3.5 0 
" id="me623554e2f" style="stroke:#000000;stroke-width:0.8;"/>
      </defs>
      <g>
       <use style="stroke:#000000;stroke-width:0.8;" x="30.525" xlink:href="#me623554e2f" y="359.87047"/>
      </g>
     </g>
     <g id="text_8">
      <!-- 40 -->
      <g transform="translate(10.8 363.669689)scale(0.1 -0.1)">
       <use xlink:href="#DejaVuSans-34"/>
       <use x="63.623047" xlink:href="#DejaVuSans-30"/>
      </g>
     </g>
    </g>
    <g id="ytick_2">
     <g id="line2d_9">
      <g>
       <use style="stroke:#000000;stroke-width:0.8;" x="30.525" xlink:href="#me623554e2f" y="282.667735"/>
      </g>
     </g>
     <g id="text_9">
      <!-- 50 -->
      <defs>
       <path d="M 10.796875 72.90625 
L 49.515625 72.90625 
L 49.515625 64.59375 
L 19.828125 64.59375 
L 19.828125 46.734375 
Q 21.96875 47.46875 24.109375 47.828125 
Q 26.265625 48.1875 28.421875 48.1875 
Q 40.625 48.1875 47.75 41.5 
Q 54.890625 34.8125 54.890625 23.390625 
Q 54.890625 11.625 47.5625 5.09375 
Q 40.234375 -1.421875 26.90625 -1.421875 
Q 22.3125 -1.421875 17.546875 -0.640625 
Q 12.796875 0.140625 7.71875 1.703125 
L 7.71875 11.625 
Q 12.109375 9.234375 16.796875 8.0625 
Q 21.484375 6.890625 26.703125 6.890625 
Q 35.15625 6.890625 40.078125 11.328125 
Q 45.015625 15.765625 45.015625 23.390625 
Q 45.015625 31 40.078125 35.4375 
Q 35.15625 39.890625 26.703125 39.890625 
Q 22.75 39.890625 18.8125 39.015625 
Q 14.890625 38.140625 10.796875 36.28125 
z
" id="DejaVuSans-35"/>
      </defs>
      <g transform="translate(10.8 286.466954)scale(0.1 -0.1)">
       <use xlink:href="#DejaVuSans-35"/>
       <use x="63.623047" xlink:href="#DejaVuSans-30"/>
      </g>
     </g>
    </g>
    <g id="ytick_3">
     <g id="line2d_10">
      <g>
       <use style="stroke:#000000;stroke-width:0.8;" x="30.525" xlink:href="#me623554e2f" y="205.465001"/>
      </g>
     </g>
     <g id="text_10">
      <!-- 60 -->
      <g transform="translate(10.8 209.264219)scale(0.1 -0.1)">
       <use xlink:href="#DejaVuSans-36"/>
       <use x="63.623047" xlink:href="#DejaVuSans-30"/>
      </g>
     </g>
    </g>
    <g id="ytick_4">
     <g id="line2d_11">
      <g>
       <use style="stroke:#000000;stroke-width:0.8;" x="30.525" xlink:href="#me623554e2f" y="128.262266"/>
      </g>
     </g>
     <g id="text_11">
      <!-- 70 -->
      <defs>
       <path d="M 8.203125 72.90625 
L 55.078125 72.90625 
L 55.078125 68.703125 
L 28.609375 0 
L 18.3125 0 
L 43.21875 64.59375 
L 8.203125 64.59375 
z
" id="DejaVuSans-37"/>
      </defs>
      <g transform="translate(10.8 132.061484)scale(0.1 -0.1)">
       <use xlink:href="#DejaVuSans-37"/>
       <use x="63.623047" xlink:href="#DejaVuSans-30"/>
      </g>
     </g>
    </g>
    <g id="ytick_5">
     <g id="line2d_12">
      <g>
       <use style="stroke:#000000;stroke-width:0.8;" x="30.525" xlink:href="#me623554e2f" y="51.059531"/>
      </g>
     </g>
     <g id="text_12">
      <!-- 80 -->
      <g transform="translate(10.8 54.85875)scale(0.1 -0.1)">
       <use xlink:href="#DejaVuSans-38"/>
       <use x="63.623047" xlink:href="#DejaVuSans-30"/>
      </g>
     </g>
    </g>
   </g>
   <g id="patch_3">
    <path d="M 30.525 379.521875 
L 30.525 14.3 
" style="fill:none;stroke:#000000;stroke-linecap:square;stroke-linejoin:miter;stroke-width:0.8;"/>
   </g>
   <g id="patch_4">
    <path d="M 626.7 379.521875 
L 626.7 14.3 
" style="fill:none;stroke:#000000;stroke-linecap:square;stroke-linejoin:miter;stroke-width:0.8;"/>
   </g>
   <g id="patch_5">
    <path d="M 30.525 379.521875 
L 626.7 379.521875 
" style="fill:none;stroke:#000000;stroke-linecap:square;stroke-linejoin:miter;stroke-width:0.8;"/>
   </g>
   <g id="patch_6">
    <path d="M 30.525 14.3 
L 626.7 14.3 
" style="fill:none;stroke:#000000;stroke-linecap:square;stroke-linejoin:miter;stroke-width:0.8;"/>
   </g>
  </g>
 </g>
 <defs>
  <clipPath id="pb13911c282">
   <rect height="365.221875" width="596.175" x="30.525" y="14.3"/>
  </clipPath>
 </defs>
</svg>
